{
  "accessors": [
    {
      "bufferView": 2,
      "componentType": 5126,
      "count": 10574,
      "max": [
        0.9899280071258545,
        0.8428990244865417,
        0.47758299112319946
      ],
      "min": [
        -0.8222569823265076,
        -0.8396520018577576,
        -0.999750018119812
      ],
      "type": "VEC3"
    },
    {
      "bufferView": 2,
      "byteOffset": 126888,
      "componentType": 5126,
      "count": 10574,
      "max": [
        1.0,
        1.0,
        1.0
      ],
      "min": [
        -1.0,
        -1.0,
        -1.0
      ],
      "type": "VEC3"
    },
    {
      "bufferView": 3,
      "componentType": 5126,
      "count": 10574,
      "max": [
        1.0,
        1.0,
        1.0,
        1.0
      ],
      "min": [
        -1.0,
        -1.0,
        -1.0,
        -1.0
      ],
      "type": "VEC4"
    },
    {
      "bufferView": 1,
      "componentType": 5126,
      "count": 10574,
      "max": [
        0.9955599904060364,
        0.9980199933052063
      ],
      "min": [
        0.001846589962951839,
        0.003908390179276466
      ],
      "type": "VEC2"
    },
    {
      "bufferView": 0,
      "componentType": 5125,
      "count": 27852,
      "type": "SCALAR"
    },
    {
      "bufferView": 2,
      "byteOffset": 253776,
      "componentType": 5126,
      "count": 2264,
      "max": [
        0.5839539766311646,
        0.16604599356651306,
        0.5839539766311646
      ],
      "min": [
        -0.5839539766311646,
        -0.8428999781608582,
        -0.5839539766311646
      ],
      "type": "VEC3"
    },
    {
      "bufferView": 2,
      "byteOffset": 280944,
      "componentType": 5126,
      "count": 2264,
      "max": [
        1.0,
        1.0,
        1.0
      ],
      "min": [
        -1.0,
        -1.0,
        -1.0
      ],
      "type": "VEC3"
    },
    {
      "bufferView": 3,
      "byteOffset": 169184,
      "componentType": 5126,
      "count": 2264,
      "max": [
        1.0,
        1.0,
        1.0,
        1.0
      ],
      "min": [
        -1.0,
        -1.0,
        -1.0,
        -1.0
      ],
      "type": "VEC4"
    },
    {
      "bufferView": 1,
      "byteOffset": 84592,
      "componentType": 5126,
      "count": 2264,
      "max": [
        0.9973160028457642,
        0.997389018535614
      ],
      "min": [
        0.011284500360488892,
        0.003770630108192563
      ],
      "type": "VEC2"
    },
    {
      "bufferView": 0,
      "byteOffset": 111408,
      "componentType": 5125,
      "count": 5094,
      "type": "SCALAR"
    },
    {
      "bufferView": 2,
      "byteOffset": 308112,
      "componentType": 5126,
      "count": 286,
      "max": [
        0.9908789992332458,
        -0.4634220004081726,
        1.0
      ],
      "min": [
        -0.9908789992332458,
        -0.840831995010376,
        -1.0
      ],
      "type": "VEC3"
    },
    {
      "bufferView": 2,
      "byteOffset": 311544,
      "componentType": 5126,
      "count": 286,
      "max": [
        1.0,
        1.0,
        1.0
      ],
      "min": [
        -1.0,
        -0.999999463558197,
        -1.0
      ],
      "type": "VEC3"
    },
    {
      "bufferView": 3,
      "byteOffset": 205408,
      "componentType": 5126,
      "count": 286,
      "max": [
        1.0,
        1.0,
        1.0,
        1.0
      ],
      "min": [
        -1.0,
        -1.0,
        -0.8836164474487305,
        -1.0
      ],
      "type": "VEC4"
    },
    {
      "bufferView": 1,
      "byteOffset": 102704,
      "componentType": 5126,
      "count": 286,
      "max": [
        0.9936370253562927,
        0.996150016784668
      ],
      "min": [
        0.00146465003490448,
        0.010252799838781357
      ],
      "type": "VEC2"
    },
    {
      "bufferView": 0,
      "byteOffset": 131784,
      "componentType": 5125,
      "count": 426,
      "type": "SCALAR"
    }
  ],
  "asset": {
    "extras": {
      "author": "Mark Bai (https://sketchfab.com/bcfbox)",
      "license": "CC-BY-4.0 (http://creativecommons.org/licenses/by/4.0/)",
      "source": "https://sketchfab.com/3d-models/rusted-factory-machine-e1aa6b17ff2a4f7d9b7be67756e12848",
      "title": "Rusted factory machine"
    },
    "generator": "Sketchfab-12.67.0",
    "version": "2.0"
  },
  "bufferViews": [
    {
      "buffer": 0,
      "byteLength": 133488,
      "name": "floatBufferViews",
      "target": 34963
    },
    {
      "buffer": 0,
      "byteLength": 104992,
      "byteOffset": 133488,
      "byteStride": 8,
      "name": "floatBufferViews",
      "target": 34962
    },
    {
      "buffer": 0,
      "byteLength": 314976,
      "byteOffset": 238480,
      "byteStride": 12,
      "name": "floatBufferViews",
      "target": 34962
    },
    {
      "buffer": 0,
      "byteLength": 209984,
      "byteOffset": 553456,
      "byteStride": 16,
      "name": "floatBufferViews",
      "target": 34962
    }
  ],
  "buffers": [
    {
      "byteLength": 763440,
      "uri": "scene.bin"
    }
  ],
  "images": [
    {
      "uri": "textures/Ground_baseColor.png"
    },
    {
      "uri": "textures/Ground_metallicRoughness.png"
    },
    {
      "uri": "textures/Ground_normal.png"
    },
    {
      "uri": "textures/Tank_baseColor.jpeg"
    },
    {
      "uri": "textures/Tank_metallicRoughness.png"
    },
    {
      "uri": "textures/Tank_normal.png"
    },
    {
      "uri": "textures/Pipes_baseColor.png"
    },
    {
      "uri": "textures/Pipes_metallicRoughness.png"
    },
    {
      "uri": "textures/Pipes_normal.png"
    }
  ],
  "materials": [
    {
      "alphaMode": "BLEND",
      "doubleSided": true,
      "name": "Ground",
      "normalTexture": {
        "index": 2
      },
      "occlusionTexture": {
        "index": 1
      },
      "pbrMetallicRoughness": {
        "baseColorTexture": {
          "index": 0
        },
        "metallicRoughnessTexture": {
          "index": 1
        }
      }
    },
    {
      "doubleSided": true,
      "name": "Tank",
      "normalTexture": {
        "index": 5
      },
      "occlusionTexture": {
        "index": 4
      },
      "pbrMetallicRoughness": {
        "baseColorTexture": {
          "index": 3
        },
        "metallicRoughnessTexture": {
          "index": 4
        }
      }
    },
    {
      "alphaMode": "BLEND",
      "doubleSided": true,
      "name": "Pipes",
      "normalTexture": {
        "index": 8
      },
      "occlusionTexture": {
        "index": 7
      },
      "pbrMetallicRoughness": {
        "baseColorTexture": {
          "index": 6
        },
        "metallicRoughnessTexture": {
          "index": 7
        }
      }
    }
  ],
  "meshes": [
    {
      "name": "defaultMaterial",
      "primitives": [
        {
          "attributes": {
            "NORMAL": 1,
            "POSITION": 0,
            "TANGENT": 2,
            "TEXCOORD_0": 3
          },
          "indices": 4,
          "material": 2,
          "mode": 4
        }
      ]
    },
    {
      "name": "defaultMaterial",
      "primitives": [
        {
          "attributes": {
            "NORMAL": 6,
            "POSITION": 5,
            "TANGENT": 7,
            "TEXCOORD_0": 8
          },
          "indices": 9,
          "material": 1,
          "mode": 4
        }
      ]
    },
    {
      "name": "defaultMaterial",
      "primitives": [
        {
          "attributes": {
            "NORMAL": 11,
            "POSITION": 10,
            "TANGENT": 12,
            "TEXCOORD_0": 13
          },
          "indices": 14,
          "material": 0,
          "mode": 4
        }
      ]
    }
  ],
  "nodes": [
    {
      "children": [
        1
      ],
      "matrix": [
        1.0,
        0.0,
        0.0,
        0.0,
        0.0,
        2.220446049250313e-16,
        -1.0,
        0.0,
        0.0,
        1.0,
        2.220446049250313e-16,
        0.0,
        0.0,
        0.0,
        0.0,
        1.0
      ],
      "name": "Sketchfab_model"
    },
    {
      "children": [
        2,
        4,
        6
      ],
      "matrix": [
        1.0,
        0.0,
        0.0,
        0.0,
        0.0,
        -4.371139006309477e-08,
        0.999999999999999,
        0.0,
        0.0,
        -0.999999999999999,
        -4.371139006309477e-08,
        0.0,
        0.0,
        0.0,
        0.0,
        1.0
      ],
      "name": "Collada visual scene group"
    },
    {
      "children": [
        3
      ],
      "name": "Pipes"
    },
    {
      "mesh": 0,
      "name": "defaultMaterial"
    },
    {
      "children": [
        5
      ],
      "name": "Tank"
    },
    {
      "mesh": 1,
      "name": "defaultMaterial"
    },
    {
      "children": [
        7
      ],
      "name": "Ground"
    },
    {
      "mesh": 2,
      "name": "defaultMaterial"
    }
  ],
  "samplers": [
    {
      "magFilter": 9729,
      "minFilter": 9987,
      "wrapS": 10497,
      "wrapT": 10497
    }
  ],
  "scene": 0,
  "scenes": [
    {
      "name": "Sketchfab_Scene",
      "nodes": [
        0
      ]
    }
  ],
  "textures": [
    {
      "sampler": 0,
      "source": 0
    },
    {
      "sampler": 0,
      "source": 1
    },
    {
      "sampler": 0,
      "source": 2
    },
    {
      "sampler": 0,
      "source": 3
    },
    {
      "sampler": 0,
      "source": 4
    },
    {
      "sampler": 0,
      "source": 5
    },
    {
      "sampler": 0,
      "source": 6
    },
    {
      "sampler": 0,
      "source": 7
    },
    {
      "sampler": 0,
      "source": 8
    }
  ]
}
