  0
SECTION
  2
HEADER
  9
$ACADVER
  1
AC1009
  9
$INSBASE
 10
0.0
 20
0.0
 30
0.0
  9
$EXTMIN
 10
0.0
 20
0.0
 30
0.0
  9
$EXTMAX
 10
0.0
 20
0.0
 30
0.0
  0
ENDSEC
  0
SECTION
  2
TABLES
  0
TABLE
  2
VPORT
 70
1
  0
VPORT
  2
*ACTIVE
 70
0
 10
0.0
 20
0.0
 11
1.0
 21
1.0
 12
-5.0
 22
1.0
 13
0.0
 23
0.0
 14
0.1
 24
0.1
 15
0.1
 25
0.1
 16
0.0
 26
0.0
 36
1.0
 17
0.0
 27
0.0
 37
0.0
 40
10.0
 41
1.0
 42
50.0
 43
0.0
 44
0.0
 50
0.0
 51
0.0
 71
0
 72
100
 73
1
 74
1
 75
0
 76
0
 77
0
 78
0
  0
ENDTAB
  0
TABLE
  2
LTYPE
 70
8
  0
LTYPE
  2
CONTINUOUS
 70
0
  3
Solid line
 72
65
 73
0
 40
0.0
  0
LTYPE
  2
DOT
 70
0
  3
. . . . . . .
 72
65
 73
2
 40
0.25
 49
0.0
 49
-0.25
  0
LTYPE
  2
DASHED
 70
0
  3
__ __ __ __ __
 72
65
 73
2
 40
0.8
 49
0.5
 49
-0.3
  0
LTYPE
  2
DASHDOT
 70
0
  3
__ . __ . __ .
 72
65
 73
4
 40
1.0
 49
0.5
 49
-0.25
 49
0.0
 49
-0.25
  0
LTYPE
  2
DIVIDE
 70
0
  3
____ . . ____ . . 
 72
65
 73
6
 40
1.25
 49
0.5
 49
-0.25
 49
0.0
 49
-0.25
 49
0.0
 49
-0.25
  0
LTYPE
  2
BORDER
 70
0
  3
__ __ . __ __ . 
 72
65
 73
6
 40
1.75
 49
0.5
 49
-0.25
 49
0.5
 49
-0.25
 49
0.0
 49
-0.25
  0
LTYPE
  2
HIDDEN
 70
0
  3
__ __ __ __ __
 72
65
 73
2
 40
0.4
 49
0.25
 49
-0.25
  0
LTYPE
  2
CENTER
 70
0
  3
____ _ ____ _ __
 72
65
 73
4
 40
2.0
 49
1.25
 49
-0.25
 49
0.25
 49
-0.25
  0
ENDTAB
  0
TABLE
  2
LAYER
 70
1
  0
LAYER
  2
PYDXF
 70
64
 62
7
  6
continuous
  0
ENDTAB
  0
TABLE
  2
STYLE
 70
1
  0
STYLE
  2
STANDARD
 70
0
 40
0
 41
1.0
 50
0.0
 71
0
 42
1
 3
ARIAL.TTF
 4

  0
ENDTAB
  0
TABLE
  2
VIEW
 70
1
  0
VIEW
  2
BF_TOPVIEW
 70
0
 40
120.0
 10
0.0
 20
0.0
 41
200.0
 11
0.0
 21
0.0
 31
1.0
 12
0.0
 22
0.0
 32
0.0
 42
50.0
 43
0.0
 44
0.0
 50
0.0
 71
0
  0
ENDTAB
  0
ENDSEC
  0
SECTION
  2
BLOCKS
  0
ENDSEC
  0
SECTION
  2
ENTITIES
  0
3DFACE
  8
0
 10
0.4321763515472412
 20
-0.7472583651542664
 30
0.4621596932411194
 11
0.395717978477478
 21
-0.7683456540107727
 31
0.43522486090660095
 12
0.42217808961868286
 22
-0.8142734169960022
 32
0.43228983879089355
 13
0.4644775390625
 23
-0.8033247590065002
 33
0.4582884609699249
  0
3DFACE
  8
0
 10
0.3491130769252777
 20
0.5225355625152588
 30
0.3950278162956238
 11
0.30860188603401184
 21
0.5366414785385132
 31
0.4221712350845337
 12
0.21865630149841309
 22
0.3811582922935486
 32
0.37855851650238037
 13
0.2573213577270508
 23
0.36386239528656006
 33
0.35212796926498413
  0
3DFACE
  8
0
 10
0.43095266819000244
 20
0.7481297254562378
 30
0.4618927538394928
 11
0.4633578062057495
 21
0.804134726524353
 31
0.4580015540122986
 12
0.4241046607494354
 22
0.8100211024284363
 32
0.4252166152000427
 13
0.3948754370212555
 23
0.7595051527023315
 33
0.4284026622772217
  0
3DFACE
  8
0
 10
-0.27796149253845215
 20
0.5637300610542297
 30
0.39486220479011536
 11
-0.3694794476032257
 21
0.7225738167762756
 31
0.4377157688140869
 12
-0.4001108705997467
 22
0.6913577318191528
 32
0.4655824601650238
 13
-0.31043243408203125
 23
0.5357076525688171
 33
0.42201513051986694
  0
3DFACE
  8
0
 10
-0.34259819984436035
 20
0.5175618529319763
 30
0.3882101774215698
 11
-0.31043243408203125
 21
0.5357076525688171
 31
0.42201513051986694
 12
-0.4001108705997467
 22
0.6913577318191528
 32
0.4655824601650238
 13
-0.4311675727367401
 23
0.6712862253189087
 33
0.4313943386077881
  0
3DFACE
  8
0
 10
-0.46030110120773315
 20
0.7218564748764038
 30
0.42819350957870483
 11
-0.4311675727367401
 21
0.6712862253189087
 31
0.4313943386077881
 12
-0.4001108705997467
 22
0.6913577318191528
 32
0.4655824601650238
 13
-0.4324101209640503
 23
0.7474228143692017
 33
0.46167492866516113
  0
3DFACE
  8
0
 10
-0.3959381580352783
 20
0.768500566482544
 30
0.4347510039806366
 11
-0.42239683866500854
 21
0.8144272565841675
 31
0.4317862391471863
 12
-0.46470940113067627
 22
0.8034878969192505
 32
0.45776742696762085
 13
-0.4324101209640503
 23
0.7474228143692017
 33
0.46167492866516113
  0
3DFACE
  8
0
 10
-0.3959381580352783
 20
0.768500566482544
 30
0.4347510039806366
 11
-0.4324101209640503
 21
0.7474228143692017
 31
0.46167492866516113
 12
-0.4001108705997467
 22
0.6913577318191528
 32
0.4655824601650238
 13
-0.3694794476032257
 23
0.7225738167762756
 33
0.4377157688140869
  0
3DFACE
  8
0
 10
-0.3088148534297943
 20
-0.5364910364151001
 30
0.42220672965049744
 11
-0.34931230545043945
 21
-0.5223948359489441
 31
0.3950378894805908
 12
-0.44112566113471985
 22
-0.6810527443885803
 32
0.43794795870780945
 13
-0.40508919954299927
 23
-0.7006980776786804
 33
0.47237855195999146
  0
3DFACE
  8
0
 10
-0.4311855733394623
 20
-0.7479650974273682
 30
0.4619418978691101
 11
-0.40508919954299927
 21
-0.7006980776786804
 31
0.47237855195999146
 12
-0.44112566113471985
 22
-0.6810527443885803
 32
0.43794795870780945
 13
-0.4676693081855774
 23
-0.7269314527511597
 33
0.43499955534935
  0
3DFACE
  8
0
 10
0.1099812239408493
 20
-0.4096214771270752
 30
0.4375818073749542
 11
0.10117451846599579
 21
-0.37705790996551514
 31
0.3988407254219055
 12
0.0007695242529734969
 22
-0.3907705843448639
 32
0.39881783723831177
 13
0.0008460140088573098
 23
-0.4245261251926422
 33
0.4375568926334381
  0
3DFACE
  8
0
 10
0.7415234446525574
 20
-0.20267550647258759
 30
0.5113122463226318
 11
0.7685321569442749
 21
-0.0038692390080541372
 31
0.5112836360931396
 12
0.7302025556564331
 22
-0.003805117215961218
 32
0.4725409746170044
 13
0.7045409679412842
 23
-0.1926971673965454
 33
0.472568154335022
  0
3DFACE
  8
0
 10
0.19723692536354065
 20
-0.7449560165405273
 30
0.5112714767456055
 11
0.3829127550125122
 21
-0.6689432263374329
 31
0.5113047957420349
 12
0.3638145327568054
 22
-0.6357118487358093
 32
0.4725610613822937
 13
0.18739843368530273
 23
-0.707933783531189
 33
0.47252941131591797
  0
3DFACE
  8
0
 10
0.19723692536354065
 20
-0.7449560165405273
 30
0.5112714767456055
 11
0.18739843368530273
 21
-0.707933783531189
 31
0.47252941131591797
 12
-0.0015870026545599103
 22
-0.7328978776931763
 32
0.47248613834381104
 13
-0.0016678525134921074
 23
-0.7712303400039673
 33
0.5112259387969971
  0
3DFACE
  8
0
 10
0.5420321226119995
 20
-0.5467363595962524
 30
0.5113232135772705
 11
0.5149985551834106
 21
-0.5195997357368469
 31
0.47257858514785767
 12
0.3638145327568054
 22
-0.6357118487358093
 32
0.4725610613822937
 13
0.3829127550125122
 23
-0.6689432263374329
 33
0.5113047957420349
  0
3DFACE
  8
0
 10
-0.5425289273262024
 20
0.5418368577957153
 30
0.510855495929718
 11
-0.5154757499694824
 21
0.5146862268447876
 31
0.47213423252105713
 12
-0.3642917573451996
 22
0.6307984590530396
 32
0.47215166687965393
 13
-0.38340967893600464
 23
0.6640437841415405
 33
0.5108739137649536
  0
3DFACE
  8
0
 10
0.4074851870536804
 20
-0.11059678345918655
 30
0.43760359287261963
 11
0.37488049268722534
 21
-0.10195384174585342
 31
0.3988608121871948
 12
0.3365531861782074
 22
-0.19576305150985718
 32
0.39886781573295593
 13
0.3658253848552704
 23
-0.2125627100467682
 33
0.43761125206947327
  0
3DFACE
  8
0
 10
-0.4079451858997345
 20
0.10567089915275574
 30
0.4373592138290405
 11
-0.4222930073738098
 21
-0.003538669552654028
 31
0.4373750686645508
 12
-0.388520747423172
 22
-0.0034593609161674976
 32
0.398650586605072
 13
-0.3753204345703125
 23
0.09701413661241531
 33
0.39863601326942444
  0
3DFACE
  8
0
 10
-0.4079451858997345
 20
0.10567089915275574
 30
0.4373592138290405
 11
-0.3753204345703125
 21
0.09701413661241531
 31
0.39863601326942444
 12
-0.33699315786361694
 22
0.190823495388031
 32
0.39862895011901855
 13
-0.3662855625152588
 23
0.20763681828975677
 33
0.4373515546321869
  0
3DFACE
  8
0
 10
0.406928688287735
 20
0.10774802416563034
 30
0.43756455183029175
 11
0.364749550819397
 21
0.2095005214214325
 31
0.43753576278686523
 12
0.33556291460990906
 22
0.19253748655319214
 32
0.398798406124115
 13
0.3743680715560913
 23
0.09892462193965912
 33
0.39882490038871765
  0
3DFACE
  8
0
 10
-0.2992549240589142
 20
0.29504111409187317
 30
0.43735289573669434
 11
-0.3662855625152588
 21
0.20763681828975677
 31
0.4373515546321869
 12
-0.33699315786361694
 22
0.190823495388031
 32
0.39862895011901855
 13
-0.2753245234489441
 23
0.2712360620498657
 33
0.39863020181655884
  0
3DFACE
  8
0
 10
0.20997244119644165
 20
0.7763079404830933
 30
0.472270667552948
 11
0.19997699558734894
 21
0.7393224835395813
 31
0.5110077857971191
 12
0.38537099957466125
 22
0.6626242399215698
 32
0.5110682249069214
 13
0.3985474407672882
 23
0.6921247243881226
 33
0.46578389406204224
  0
3DFACE
  8
0
 10
0.3240395486354828
 20
0.3234468996524811
 30
0.3987721800804138
 11
0.22877469658851624
 21
0.3965056538581848
 31
0.3987351059913635
 12
0.209869846701622
 22
0.36359232664108276
 32
0.4374691843986511
 13
0.29727423191070557
 23
0.2965618371963501
 33
0.4375031590461731
  0
3DFACE
  8
0
 10
0.8001407980918884
 20
0.3280951976776123
 30
0.09257155656814575
 11
0.7566139698028564
 21
0.43345433473587036
 31
0.09254176914691925
 12
0.43408018350601196
 22
0.24765001237392426
 32
0.1302146017551422
 13
0.45905616879463196
 23
0.18719419836997986
 33
0.13023167848587036
  0
3DFACE
  8
0
 10
0.16197234392166138
 20
0.09382966160774231
 30
0.4431785047054291
 11
0.09509390592575073
 21
0.16114859282970428
 31
0.4431785047054291
 12
0.059755031019449234
 22
0.09999909996986389
 32
0.5023130178451538
 13
0.10000906139612198
 23
0.05810744687914848
 33
0.5023130178451538
  0
3DFACE
  8
0
 10
0.12973755598068237
 20
0.9782178401947021
 30
0.6776654720306396
 11
0.0006259913789108396
 21
0.9868369102478027
 31
0.6776313185691833
 12
0.0006139579927548766
 22
0.8928013443946838
 32
0.3804471492767334
 13
0.11745932698249817
 23
0.8850011825561523
 33
0.38047802448272705
  0
3DFACE
  8
0
 10
-0.9138603210449219
 20
0.3769853115081787
 30
0.6775091886520386
 11
-0.8269933462142944
 21
0.3408873379230499
 31
0.3803365230560303
 12
-0.7751311659812927
 22
0.4458826184272766
 32
0.3803309202194214
 13
-0.8565540313720703
 23
0.4930025339126587
 33
0.6775029301643372
  0
3DFACE
  8
0
 10
-0.7845340967178345
 20
0.600506603717804
 30
0.677501916885376
 11
-0.8565540313720703
 21
0.4930025339126587
 31
0.6775029301643372
 12
-0.7751311659812927
 22
0.4458826184272766
 32
0.3803309202194214
 13
-0.7099533081054688
 23
0.5431734919548035
 33
0.38033002614974976
  0
3DFACE
  8
0
 10
-0.8587279319763184
 20
-0.11475035548210144
 30
0.09223167598247528
 11
-0.8735027313232422
 21
-0.0017154380911961198
 31
0.09220778942108154
 12
-0.8954900503158569
 22
-0.0016437446465715766
 32
0.38038021326065063
 13
-0.8879063129425049
 23
-0.11850333958864212
 33
0.38040295243263245
  0
3DFACE
  8
0
 10
-0.11236853152513504
 20
0.8560607433319092
 30
0.0922471135854721
 11
0.0006663849926553667
 21
0.8708356022834778
 31
0.09227308630943298
 12
0.0006139579927548766
 22
0.8928013443946838
 32
0.3804471492767334
 13
-0.11624564230442047
 23
0.8852176666259766
 33
0.380418986082077
  0
3DFACE
  8
0
 10
-0.3322450816631317
 20
-0.8021938800811768
 30
0.09248702228069305
 11
-0.43752360343933105
 21
-0.7584717869758606
 31
0.09245267510414124
 12
-0.4485710859298706
 22
-0.777388870716095
 32
0.38063132762908936
 13
-0.3435758948326111
 23
-0.8292509913444519
 33
0.3806670308113098
  0
3DFACE
  8
0
 10
-0.3780026137828827
 20
0.911851167678833
 30
0.6775491237640381
 11
-0.4138106405735016
 21
0.9986559748649597
 31
0.38060638308525085
 12
-0.5409657955169678
 22
0.9361410737037659
 32
0.38060638308525085
 13
-0.49412575364112854
 23
0.854759931564331
 33
0.6775299310684204
  0
3DFACE
  8
0
 10
-0.6017630696296692
 20
0.7829393148422241
 30
0.6775155663490295
 11
-0.49412575364112854
 21
0.854759931564331
 31
0.6775299310684204
 12
-0.5409657955169678
 22
0.9361410737037659
 32
0.38060638308525085
 13
-0.6588290333747864
 23
0.8574973940849304
 33
0.38060638308525085
  0
3DFACE
  8
0
 10
-0.6017630696296692
 20
0.7829393148422241
 30
0.6775155663490295
 11
-0.6588290333747864
 21
0.8574973940849304
 31
0.38060638308525085
 12
-0.7654715180397034
 22
0.7642021775245667
 32
0.38060638308525085
 13
-0.6991530060768127
 23
0.697738528251648
 33
0.6775062084197998
  0
3DFACE
  8
0
 10
0.6863240003585815
 20
-0.530280351638794
 30
0.09269571304321289
 11
0.7558043599128723
 21
-0.4399052560329437
 31
0.09269718825817108
 12
0.4336155652999878
 22
-0.25348997116088867
 32
0.1303037703037262
 13
0.3937472701072693
 23
-0.30534785985946655
 33
0.13030292093753815
  0
3DFACE
  8
0
 10
-0.6866096258163452
 20
0.5252314805984497
 30
0.09216111898422241
 11
-0.3940519094467163
 21
0.30031242966651917
 31
0.1299961656332016
 12
-0.3541836142539978
 22
0.3521702289581299
 32
0.12999698519706726
 13
-0.6171293258666992
 23
0.6156064867973328
 33
0.09216253459453583
  0
3DFACE
  8
0
 10
0.49251002073287964
 20
0.06187820062041283
 30
0.13026243448257446
 11
0.48403215408325195
 21
0.12673838436603546
 31
0.1302487552165985
 12
0.3667972981929779
 22
0.09544186294078827
 32
0.13214431703090668
 13
0.37644344568252563
 23
0.0467078723013401
 33
0.13214431703090668
  0
3DFACE
  8
0
 10
-0.0654609277844429
 20
-0.4950598478317261
 30
0.13022080063819885
 11
-0.0006164650549180806
 21
-0.503657877445221
 31
0.13023871183395386
 12
-0.0005041647818870842
 22
-0.38231760263442993
 32
0.13214431703090668
 13
-0.05007583647966385
 23
-0.37902191281318665
 33
0.13214431703090668
  0
3DFACE
  8
0
 10
-0.5266257524490356
 20
0.6849192380905151
 30
0.0921730250120163
 11
-0.6171293258666992
 21
0.6156064867973328
 31
0.09216253459453583
 12
-0.3541836142539978
 22
0.3521702289581299
 32
0.12999698519706726
 13
-0.30225199460983276
 23
0.3919423818588257
 33
0.13000300526618958
  0
3DFACE
  8
0
 10
-0.04503050446510315
 20
0.030300190672278404
 30
0.5023130178451538
 11
0.0033681150525808334
 21
0.11399324238300323
 31
0.5023130178451538
 12
-0.05303828418254852
 22
0.10007843375205994
 32
0.5023130178451538
 13
-0.09335076808929443
 23
0.05824321135878563
 33
0.5023130178451538
  0
3DFACE
  8
0
 10
-0.04503050446510315
 20
0.030300190672278404
 30
0.5023130178451538
 11
-0.09335076808929443
 21
0.05824321135878563
 31
0.5023130178451538
 12
-0.1095031201839447
 22
0.0024364786222577095
 32
0.5023130178451538
 13
-0.09342912584543228
 23
-0.053392864763736725
 33
0.5023130178451538
  0
3DFACE
  8
0
 10
-0.04503050446510315
 20
0.030300190672278404
 30
0.5023130178451538
 11
-0.09342912584543228
 21
-0.053392864763736725
 31
0.5023130178451538
 12
-0.0531754307448864
 22
-0.09528471529483795
 32
0.5023130178451538
 13
0.003289800137281418
 23
0.002357193734496832
 33
0.5023130178451538
  0
3DFACE
  8
0
 10
-0.04503050446510315
 20
0.030300190672278404
 30
0.5023130178451538
 11
0.003289800137281418
 21
0.002357193734496832
 31
0.5023130178451538
 12
0.059755031019449234
 22
0.09999909996986389
 32
0.5023130178451538
 13
0.0033681150525808334
 23
0.11399324238300323
 33
0.5023130178451538
  0
3DFACE
  8
0
 10
0.05161018297076225
 20
-0.025585757568478584
 30
0.5023130178451538
 11
0.10000906139612198
 21
0.05810744687914848
 31
0.5023130178451538
 12
0.059755031019449234
 22
0.09999909996986389
 32
0.5023130178451538
 13
0.003289800137281418
 23
0.002357193734496832
 33
0.5023130178451538
  0
3DFACE
  8
0
 10
0.05161018297076225
 20
-0.025585757568478584
 30
0.5023130178451538
 11
0.003289800137281418
 21
0.002357193734496832
 31
0.5023130178451538
 12
-0.0531754307448864
 22
-0.09528471529483795
 32
0.5023130178451538
 13
0.0032113026827573776
 23
-0.10927896201610565
 33
0.5023130178451538
  0
3DFACE
  8
0
 10
0.05161018297076225
 20
-0.025585757568478584
 30
0.5023130178451538
 11
0.0032113026827573776
 21
-0.10927896201610565
 31
0.5023130178451538
 12
0.059617750346660614
 22
-0.09536412358283997
 32
0.5023130178451538
 13
0.09993059933185577
 23
-0.05352868512272835
 33
0.5023130178451538
  0
3DFACE
  8
0
 10
0.05161018297076225
 20
-0.025585757568478584
 30
0.5023130178451538
 11
0.09993059933185577
 21
-0.05352868512272835
 31
0.5023130178451538
 12
0.11608323454856873
 22
0.0022782105952501297
 32
0.5023130178451538
 13
0.10000906139612198
 23
0.05810744687914848
 33
0.5023130178451538
  0
3DFACE
  8
0
 10
-1.2524338960647583
 20
-0.001313094049692154
 30
0.38029006123542786
 11
-1.253528118133545
 21
-1.1825686693191528
 31
0.38050028681755066
 12
-1.0512795448303223
 22
-0.28306111693382263
 32
0.38060638308525085
 13
-1.0512795448303223
 23
-0.28306111693382263
 33
0.38060638308525085
  0
3DFACE
  8
0
 10
-1.2524338960647583
 20
-0.001313094049692154
 30
0.38029006123542786
 11
-1.0880868434906006
 21
-0.0014653366524726152
 31
0.38060638308525085
 12
-1.0786484479904175
 22
0.14052192866802216
 32
0.38060638308525085
 13
-1.0507577657699585
 23
0.28006264567375183
 33
0.38060638308525085
  0
3DFACE
  8
0
 10
-0.0013097358169034123
 20
-1.1837286949157715
 30
0.38081657886505127
 11
-0.0012232259614393115
 21
-1.0903444290161133
 31
0.38060638308525085
 12
-0.14321042597293854
 22
-1.0809060335159302
 32
0.38060638308525085
 13
-0.2827509939670563
 23
-1.0530152320861816
 33
0.38060638308525085
  0
3DFACE
  8
0
 10
-1.253528118133545
 20
-1.1825686693191528
 30
0.38050028681755066
 11
-0.942843496799469
 21
-0.5455362796783447
 31
0.38060638308525085
 12
-1.005663275718689
 22
-0.41785237193107605
 32
0.38060638308525085
 13
-1.0512795448303223
 23
-0.28306111693382263
 33
0.38060638308525085
  0
3DFACE
  8
0
 10
-0.0012232259614393115
 20
-1.0903444290161133
 30
0.38060638308525085
 11
-0.0013097358169034123
 21
-1.1837286949157715
 31
0.38081657886505127
 12
0.28037235140800476
 22
-1.0535370111465454
 32
0.38060638308525085
 13
0.1407807469367981
 23
-1.0811691284179688
 33
0.38060638308525085
  0
3DFACE
  8
0
 10
-1.0880868434906006
 20
-0.0014653366524726152
 30
0.38060638308525085
 11
-1.2524338960647583
 21
-0.001313094049692154
 31
0.38029006123542786
 12
-1.0512795448303223
 22
-0.28306111693382263
 32
0.38060638308525085
 13
-1.0789116621017456
 23
-0.14346943795681
 33
0.38060638308525085
  0
3DFACE
  8
0
 10
-0.5450242161750793
 20
-0.9440932869911194
 30
0.38060638308525085
 11
-1.253528118133545
 21
-1.1825686693191528
 31
0.38050028681755066
 12
-0.2827509939670563
 22
-1.0530152320861816
 32
0.38060638308525085
 13
-0.41745713353157043
 23
-1.0071494579315186
 33
0.38060638308525085
  0
3DFACE
  8
0
 10
-0.942843496799469
 20
-0.5455362796783447
 30
0.38060638308525085
 11
-1.253528118133545
 21
-1.1825686693191528
 31
0.38050028681755066
 12
-0.770169734954834
 22
-0.7710012793540955
 32
0.38060638308525085
 13
-0.8638954162597656
 23
-0.6639276742935181
 33
0.38060638308525085
  0
3DFACE
  8
0
 10
-1.253528118133545
 20
-1.1825686693191528
 30
0.38050028681755066
 11
-0.0013097358169034123
 21
-1.1837286949157715
 31
0.38081657886505127
 12
-0.2827509939670563
 22
-1.0530152320861816
 32
0.38060638308525085
 13
-0.2827509939670563
 23
-1.0530152320861816
 33
0.38060638308525085
  0
3DFACE
  8
0
 10
-1.253528118133545
 20
-1.1825686693191528
 30
0.38050028681755066
 11
-0.5450242161750793
 21
-0.9440932869911194
 31
0.38060638308525085
 12
-0.6632694602012634
 22
-0.8649256825447083
 32
0.38060638308525085
 13
-0.770169734954834
 23
-0.7710012793540955
 33
0.38060638308525085
  0
3DFACE
  8
0
 10
0.7850690484046936
 20
0.5990515947341919
 30
0.6778984069824219
 11
0.8568896055221558
 21
0.491414338350296
 31
0.6779357194900513
 12
0.938398003578186
 22
0.5382770299911499
 32
0.38060638308525085
 13
0.8597545623779297
 23
0.6561400890350342
 33
0.38060638308525085
  0
3DFACE
  8
0
 10
0.7850690484046936
 20
0.5990515947341919
 30
0.6778984069824219
 11
0.8597545623779297
 21
0.6561400890350342
 31
0.38060638308525085
 12
0.7664597034454346
 22
0.7627822160720825
 32
0.38060638308525085
 13
0.6998682618141174
 23
0.696441650390625
 33
0.6778595447540283
  0
3DFACE
  8
0
 10
0.3791150450706482
 20
0.9111497402191162
 30
0.6777403354644775
 11
0.2566337585449219
 21
0.9528915286064148
 31
0.6777020692825317
 12
0.23229986429214478
 22
0.862080991268158
 32
0.380511075258255
 13
0.3431449830532074
 23
0.8243046998977661
 33
0.38054579496383667
  0
3DFACE
  8
0
 10
0.3791150450706482
 20
0.9111497402191162
 30
0.6777403354644775
 11
0.3431449830532074
 21
0.8243046998977661
 31
0.38054579496383667
 12
0.4481402337551117
 22
0.7724424600601196
 32
0.3805815577507019
 13
0.4951322376728058
 23
0.8538433909416199
 33
0.6777797937393188
  0
3DFACE
  8
0
 10
-0.6032171249389648
 20
-0.7866630554199219
 30
0.677794873714447
 11
-0.49571308493614197
 21
-0.8586829900741577
 31
0.6778348684310913
 12
-0.4485710859298706
 22
-0.777388870716095
 32
0.38063132762908936
 13
-0.5458619594573975
 23
-0.712211012840271
 33
0.3805951476097107
  0
3DFACE
  8
0
 10
-0.6032171249389648
 20
-0.7866630554199219
 30
0.677794873714447
 11
-0.5458619594573975
 21
-0.712211012840271
 31
0.3805951476097107
 12
-0.6338565945625305
 22
-0.6349413990974426
 32
0.38055917620658875
 13
-0.7004490494728088
 23
-0.7012819051742554
 33
0.6777551174163818
  0
3DFACE
  8
0
 10
-0.9811676144599915
 20
-0.13063053786754608
 30
0.6775826215744019
 11
-0.956076443195343
 21
-0.25757309794425964
 31
0.6776115298271179
 12
-0.8651989698410034
 22
-0.23338615894317627
 32
0.380429208278656
 13
-0.8879063129425049
 23
-0.11850333958864212
 33
0.38040295243263245
  0
3DFACE
  8
0
 10
-0.9811676144599915
 20
-0.13063053786754608
 30
0.6775826215744019
 11
-0.8879063129425049
 21
-0.11850333958864212
 31
0.38040295243263245
 12
-0.8954900503158569
 22
-0.0016437446465715766
 32
0.38038021326065063
 13
-0.9895474910736084
 23
-0.0015035865362733603
 33
0.6775574684143066
  0
3DFACE
  8
0
 10
0.7850690484046936
 20
0.5990515947341919
 30
0.6778984069824219
 11
0.7105323672294617
 21
0.5418569445610046
 31
0.38068878650665283
 12
0.7755298614501953
 22
0.4444453716278076
 32
0.3807225525379181
 13
0.8568896055221558
 23
0.491414338350296
 33
0.6779357194900513
  0
3DFACE
  8
0
 10
0.7850690484046936
 20
0.5990515947341919
 30
0.6778984069824219
 11
0.6998682618141174
 21
0.696441650390625
 31
0.6778595447540283
 12
0.6334258317947388
 22
0.6299947500228882
 32
0.38065361976623535
 13
0.7105323672294617
 23
0.5418569445610046
 33
0.38068878650665283
  0
3DFACE
  8
0
 10
0.9139808416366577
 20
0.375291109085083
 30
0.6779707670211792
 11
0.8568896055221558
 21
0.491414338350296
 31
0.6779357194900513
 12
0.7755298614501953
 22
0.4444453716278076
 32
0.3807225525379181
 13
0.8271971940994263
 23
0.33935439586639404
 33
0.38075435161590576
  0
3DFACE
  8
0
 10
0.9139808416366577
 20
0.375291109085083
 30
0.6779707670211792
 11
0.8271971940994263
 21
0.33935439586639404
 31
0.38075435161590576
 12
0.8647679090499878
 22
0.22843968868255615
 32
0.3807836174964905
 13
0.9554953575134277
 23
0.2527328431606293
 33
0.6780031323432922
  0
3DFACE
  8
0
 10
-0.12850134074687958
 20
0.9784570932388306
 30
0.6776002645492554
 11
-0.2554442584514618
 21
0.9533658623695374
 31
0.6775726675987244
 12
-0.23112845420837402
 22
0.8625103235244751
 32
0.3803940415382385
 13
-0.11624564230442047
 23
0.8852176666259766
 33
0.380418986082077
  0
3DFACE
  8
0
 10
-0.12850134074687958
 20
0.9784570932388306
 30
0.6776002645492554
 11
-0.11624564230442047
 21
0.8852176666259766
 31
0.380418986082077
 12
0.0006139579927548766
 22
0.8928013443946838
 32
0.3804471492767334
 13
0.0006259913789108396
 23
0.9868369102478027
 33
0.6776313185691833
  0
3DFACE
  8
0
 10
-0.37969592213630676
 20
-0.9159895181655884
 30
0.6778743267059326
 11
-0.3435758948326111
 21
-0.8292509913444519
 31
0.3806670308113098
 12
-0.4485710859298706
 22
-0.777388870716095
 32
0.38063132762908936
 13
-0.49571308493614197
 23
-0.8586829900741577
 33
0.6778348684310913
  0
3DFACE
  8
0
 10
-0.37969592213630676
 20
-0.9159895181655884
 30
0.6778743267059326
 11
-0.2572146952152252
 21
-0.9577315449714661
 31
0.6779125928878784
 12
-0.23273077607154846
 22
-0.867027223110199
 32
0.3807016909122467
 13
-0.3435758948326111
 23
-0.8292509913444519
 33
0.3806670308113098
  0
3DFACE
  8
0
 10
0.12791992723941803
 20
-0.9832972288131714
 30
0.6780143976211548
 11
0.11581464111804962
 21
-0.8901638388633728
 31
0.38079380989074707
 12
-0.0010448565008118749
 22
-0.8977475166320801
 32
0.3807656466960907
 13
-0.0012070147786289454
 23
-0.9916771054267883
 33
0.6779833436012268
  0
3DFACE
  8
0
 10
0.12791992723941803
 20
-0.9832972288131714
 30
0.6780143976211548
 11
0.2548624873161316
 21
-0.958206057548523
 31
0.6780419945716858
 12
0.23069725930690765
 22
-0.8674565553665161
 32
0.38081878423690796
 13
0.11581464111804962
 23
-0.8901638388633728
 33
0.38079380989074707
  0
3DFACE
  8
0
 10
-0.6017630696296692
 20
0.7829393148422241
 30
0.6775155663490295
 11
-0.6991530060768127
 21
0.697738528251648
 31
0.6775062084197998
 12
-0.6326836943626404
 22
0.6311681270599365
 32
0.3803338408470154
 13
-0.5445460081100464
 23
0.7082746028900146
 33
0.38034236431121826
  0
3DFACE
  8
0
 10
-0.6017630696296692
 20
0.7829393148422241
 30
0.6775155663490295
 11
-0.5445460081100464
 21
0.7082746028900146
 31
0.38034236431121826
 12
-0.4471345543861389
 22
0.7732720971107483
 32
0.3803554177284241
 13
-0.49412575364112854
 23
0.854759931564331
 33
0.6775299310684204
  0
3DFACE
  8
0
 10
0.9805862307548523
 20
0.1257903128862381
 30
0.6780320405960083
 11
0.8874751925468445
 21
0.11355706304311752
 31
0.3808097839355469
 12
0.8950588703155518
 22
-0.0033024498261511326
 32
0.3808324933052063
 13
0.9889658689498901
 23
-0.0033366179559379816
 33
0.6780571937561035
  0
3DFACE
  8
0
 10
0.9805862307548523
 20
0.1257903128862381
 30
0.6780320405960083
 11
0.9554953575134277
 21
0.2527328431606293
 31
0.6780031323432922
 12
0.8647679090499878
 22
0.22843968868255615
 32
0.3807836174964905
 13
0.8874751925468445
 23
0.11355706304311752
 33
0.3808097839355469
  0
3DFACE
  8
0
 10
-0.9809284210205078
 20
0.12760783731937408
 30
0.67753666639328
 11
-0.9895474910736084
 21
-0.0015035865362733603
 31
0.6775574684143066
 12
-0.8954900503158569
 22
-0.0016437446465715766
 32
0.38038021326065063
 13
-0.8876898288726807
 23
0.11520160734653473
 33
0.3803613781929016
  0
3DFACE
  8
0
 10
-0.9809284210205078
 20
0.12760783731937408
 30
0.67753666639328
 11
-0.8876898288726807
 21
0.11520160734653473
 31
0.3803613781929016
 12
-0.8647696375846863
 22
0.23004215955734253
 32
0.38034677505493164
 13
-0.9556020498275757
 23
0.2545040249824524
 33
0.6775205135345459
  0
3DFACE
  8
0
 10
-0.7856498956680298
 20
-0.6038918495178223
 30
0.6777162551879883
 11
-0.7109631299972534
 21
-0.5468038320541382
 31
0.3805239796638489
 12
-0.7759605646133423
 22
-0.4493923783302307
 32
0.380490243434906
 13
-0.8574704527854919
 23
-0.49625450372695923
 33
0.6776789426803589
  0
3DFACE
  8
0
 10
-0.7856498956680298
 20
-0.6038918495178223
 30
0.6777162551879883
 11
-0.7004490494728088
 21
-0.7012819051742554
 31
0.6777551174163818
 12
-0.6338565945625305
 22
-0.6349413990974426
 32
0.38055917620658875
 13
-0.7109631299972534
 23
-0.5468038320541382
 33
0.3805239796638489
  0
3DFACE
  8
0
 10
0.9803470373153687
 20
-0.13244806230068207
 30
0.6780780553817749
 11
0.9889658689498901
 21
-0.0033366179559379816
 31
0.6780571937561035
 12
0.8950588703155518
 22
-0.0033024498261511326
 32
0.3808324933052063
 13
0.8872585892677307
 23
-0.12014776468276978
 33
0.3808513283729553
  0
3DFACE
  8
0
 10
0.9803470373153687
 20
-0.13244806230068207
 30
0.6780780553817749
 11
0.8872585892677307
 21
-0.12014776468276978
 31
0.3808513283729553
 12
0.8643383979797363
 22
-0.234988272190094
 32
0.38086605072021484
 13
0.9550209045410156
 23
-0.2593441605567932
 33
0.6780942678451538
  0
3DFACE
  8
0
 10
0.12973755598068237
 20
0.9782178401947021
 30
0.6776654720306396
 11
0.11745932698249817
 21
0.8850011825561523
 31
0.38047802448272705
 12
0.23229986429214478
 22
0.862080991268158
 32
0.380511075258255
 13
0.2566337585449219
 23
0.9528915286064148
 33
0.6777020692825317
  0
3DFACE
  8
0
 10
-0.9145616292953491
 20
-0.380131334066391
 30
0.677643895149231
 11
-0.8574704527854919
 21
-0.49625450372695923
 31
0.6776789426803589
 12
-0.7759605646133423
 22
-0.4493923783302307
 32
0.380490243434906
 13
-0.8276281356811523
 23
-0.34430116415023804
 33
0.38045844435691833
  0
3DFACE
  8
0
 10
-0.9145616292953491
 20
-0.380131334066391
 30
0.677643895149231
 11
-0.8276281356811523
 21
-0.34430116415023804
 31
0.38045844435691833
 12
-0.8651989698410034
 22
-0.23338615894317627
 32
0.380429208278656
 13
-0.956076443195343
 23
-0.25757309794425964
 33
0.6776115298271179
  0
3DFACE
  8
0
 10
0.6026363372802734
 20
0.7818231582641602
 30
0.6778197884559631
 11
0.4951322376728058
 21
0.8538433909416199
 31
0.6777797937393188
 12
0.4481402337551117
 22
0.7724424600601196
 32
0.3805815577507019
 13
0.5454311370849609
 23
0.7072645425796509
 33
0.3806176781654358
  0
3DFACE
  8
0
 10
0.6026363372802734
 20
0.7818231582641602
 30
0.6778197884559631
 11
0.5454311370849609
 21
0.7072645425796509
 31
0.3806176781654358
 12
0.6334258317947388
 22
0.6299947500228882
 32
0.38065361976623535
 13
0.6998682618141174
 23
0.696441650390625
 33
0.6778595447540283
  0
3DFACE
  8
0
 10
-0.3780026137828827
 20
0.911851167678833
 30
0.6775491237640381
 11
-0.49412575364112854
 21
0.854759931564331
 31
0.6775299310684204
 12
-0.4471345543861389
 22
0.7732720971107483
 32
0.3803554177284241
 13
-0.342043399810791
 23
0.8249395489692688
 33
0.3803727626800537
  0
3DFACE
  8
0
 10
-0.3780026137828827
 20
0.911851167678833
 30
0.6775491237640381
 11
-0.342043399810791
 21
0.8249395489692688
 31
0.3803727626800537
 12
-0.23112845420837402
 22
0.8625103235244751
 32
0.3803940415382385
 13
-0.2554442584514618
 23
0.9533658623695374
 33
0.6775726675987244
  0
3DFACE
  8
0
 10
0.37742072343826294
 20
-0.9166914224624634
 30
0.6780655384063721
 11
0.49354392290115356
 21
-0.8596001863479614
 31
0.6780847311019897
 12
0.4467029869556427
 22
-0.7782183885574341
 32
0.3808574378490448
 13
0.34161198139190674
 23
-0.8298858404159546
 33
0.38084009289741516
  0
3DFACE
  8
0
 10
0.37742072343826294
 20
-0.9166914224624634
 30
0.6780655384063721
 11
0.34161198139190674
 21
-0.8298858404159546
 31
0.38084009289741516
 12
0.23069725930690765
 22
-0.8674565553665161
 32
0.38081878423690796
 13
0.2548624873161316
 23
-0.958206057548523
 33
0.6780419945716858
  0
3DFACE
  8
0
 10
0.9132789373397827
 20
-0.3818250298500061
 30
0.6781055331230164
 11
0.8265621066093445
 21
-0.3458333909511566
 31
0.38087624311447144
 12
0.7746999859809875
 22
-0.4508286416530609
 32
0.3808818757534027
 13
0.8559722900390625
 23
-0.49784183502197266
 33
0.678111732006073
  0
3DFACE
  8
0
 10
0.9132789373397827
 20
-0.3818250298500061
 30
0.6781055331230164
 11
0.9550209045410156
 21
-0.2593441605567932
 31
0.6780942678451538
 12
0.8643383979797363
 22
-0.234988272190094
 32
0.38086605072021484
 13
0.8265621066093445
 23
-0.3458333909511566
 33
0.38087624311447144
  0
3DFACE
  8
0
 10
0.6011812090873718
 20
-0.7877792119979858
 30
0.6780990958213806
 11
0.5441145300865173
 21
-0.7132208347320557
 31
0.3808704614639282
 12
0.4467029869556427
 22
-0.7782183885574341
 32
0.3808574378490448
 13
0.49354392290115356
 23
-0.8596001863479614
 33
0.6780847311019897
  0
3DFACE
  8
0
 10
0.6011812090873718
 20
-0.7877792119979858
 30
0.6780990958213806
 11
0.6985712051391602
 21
-0.702578067779541
 31
0.6781084537506104
 12
0.6322523355484009
 22
-0.636114239692688
 32
0.3808789551258087
 13
0.5441145300865173
 23
-0.7132208347320557
 33
0.3808704614639282
  0
3DFACE
  8
0
 10
-0.13031847774982452
 20
-0.983057975769043
 30
0.6779491901397705
 11
-0.0012070147786289454
 21
-0.9916771054267883
 31
0.6779833436012268
 12
-0.0010448565008118749
 22
-0.8977475166320801
 32
0.3807656466960907
 13
-0.11789020895957947
 23
-0.8899473547935486
 33
0.38073474168777466
  0
3DFACE
  8
0
 10
-0.13031847774982452
 20
-0.983057975769043
 30
0.6779491901397705
 11
-0.11789020895957947
 21
-0.8899473547935486
 31
0.38073474168777466
 12
-0.23273077607154846
 22
-0.867027223110199
 32
0.3807016909122467
 13
-0.2572146952152252
 23
-0.9577315449714661
 33
0.6779125928878784
  0
3DFACE
  8
0
 10
-0.9138603210449219
 20
0.3769853115081787
 30
0.6775091886520386
 11
-0.9556020498275757
 21
0.2545040249824524
 31
0.6775205135345459
 12
-0.8647696375846863
 22
0.23004215955734253
 32
0.38034677505493164
 13
-0.8269933462142944
 23
0.3408873379230499
 33
0.3803365230560303
  0
3DFACE
  8
0
 10
0.7839522957801819
 20
-0.6053458452224731
 30
0.6781127452850342
 11
0.8559722900390625
 21
-0.49784183502197266
 31
0.678111732006073
 12
0.7746999859809875
 22
-0.4508286416530609
 32
0.3808818757534027
 13
0.7095221281051636
 23
-0.5481195449829102
 33
0.38088276982307434
  0
3DFACE
  8
0
 10
0.7839522957801819
 20
-0.6053458452224731
 30
0.6781127452850342
 11
0.7095221281051636
 21
-0.5481195449829102
 31
0.38088276982307434
 12
0.6322523355484009
 22
-0.636114239692688
 32
0.3808789551258087
 13
0.6985712051391602
 23
-0.702578067779541
 33
0.6781084537506104
  0
3DFACE
  8
0
 10
-0.7845340967178345
 20
0.600506603717804
 30
0.677501916885376
 11
-0.7099533081054688
 21
0.5431734919548035
 31
0.38033002614974976
 12
-0.6326836943626404
 22
0.6311681270599365
 32
0.3803338408470154
 13
-0.6991530060768127
 23
0.697738528251648
 33
0.6775062084197998
  0
3DFACE
  8
0
 10
0.3791150450706482
 20
0.9111497402191162
 30
0.6777403354644775
 11
0.41523393988609314
 21
0.9978875517845154
 31
0.38060638308525085
 12
0.2811168432235718
 22
1.0435949563980103
 32
0.38060638308525085
 13
0.2566337585449219
 23
0.9528915286064148
 33
0.6777020692825317
  0
3DFACE
  8
0
 10
0.3791150450706482
 20
0.9111497402191162
 30
0.6777403354644775
 11
0.4951322376728058
 21
0.8538433909416199
 31
0.6777797937393188
 12
0.5422729849815369
 22
0.9351367950439453
 32
0.38060638308525085
 13
0.41523393988609314
 23
0.9978875517845154
 33
0.38060638308525085
  0
3DFACE
  8
0
 10
-0.3780026137828827
 20
0.911851167678833
 30
0.6775491237640381
 11
-0.2554442584514618
 21
0.9533658623695374
 31
0.6775726675987244
 12
-0.2796090841293335
 22
1.0441144704818726
 32
0.38060638308525085
 13
-0.4138106405735016
 23
0.9986559748649597
 33
0.38060638308525085
  0
3DFACE
  8
0
 10
-0.12850134074687958
 20
0.9784570932388306
 30
0.6776002645492554
 11
0.0006259913789108396
 21
0.9868369102478027
 31
0.6776313185691833
 12
0.0007880817865952849
 22
1.0807653665542603
 32
0.38060638308525085
 13
-0.14060644805431366
 23
1.0715893507003784
 33
0.38060638308525085
  0
3DFACE
  8
0
 10
-0.12850134074687958
 20
0.9784570932388306
 30
0.6776002645492554
 11
-0.14060644805431366
 21
1.0715893507003784
 31
0.38060638308525085
 12
-0.2796090841293335
 22
1.0441144704818726
 32
0.38060638308525085
 13
-0.2554442584514618
 23
0.9533658623695374
 33
0.6775726675987244
  0
3DFACE
  8
0
 10
0.9803470373153687
 20
-0.13244806230068207
 30
0.6780780553817749
 11
1.073585033416748
 21
-0.14485390484333038
 31
0.38060638308525085
 12
1.0830230712890625
 22
-0.0034766807220876217
 32
0.38060638308525085
 13
0.9889658689498901
 23
-0.0033366179559379816
 33
0.6780571937561035
  0
3DFACE
  8
0
 10
0.9803470373153687
 20
-0.13244806230068207
 30
0.6780780553817749
 11
0.9550209045410156
 21
-0.2593441605567932
 31
0.6780942678451538
 12
1.0458526611328125
 22
-0.28380540013313293
 32
0.38060638308525085
 13
1.073585033416748
 23
-0.14485390484333038
 33
0.38060638308525085
  0
3DFACE
  8
0
 10
0.6026363372802734
 20
0.7818231582641602
 30
0.6778197884559631
 11
0.6599903702735901
 21
0.8562747240066528
 31
0.38060638308525085
 12
0.5422729849815369
 22
0.9351367950439453
 32
0.38060638308525085
 13
0.4951322376728058
 23
0.8538433909416199
 33
0.6777797937393188
  0
3DFACE
  8
0
 10
0.6026363372802734
 20
0.7818231582641602
 30
0.6778197884559631
 11
0.6998682618141174
 21
0.696441650390625
 31
0.6778595447540283
 12
0.7664597034454346
 22
0.7627822160720825
 32
0.38060638308525085
 13
0.6599903702735901
 23
0.8562747240066528
 33
0.38060638308525085
  0
3DFACE
  8
0
 10
0.9139808416366577
 20
0.375291109085083
 30
0.6779707670211792
 11
1.000913143157959
 21
0.4111216962337494
 31
0.38060638308525085
 12
0.938398003578186
 22
0.5382770299911499
 32
0.38060638308525085
 13
0.8568896055221558
 23
0.491414338350296
 33
0.6779357194900513
  0
3DFACE
  8
0
 10
0.9139808416366577
 20
0.375291109085083
 30
0.6779707670211792
 11
0.9554953575134277
 21
0.2527328431606293
 31
0.6780031323432922
 12
1.0463721752166748
 22
0.2769199013710022
 32
0.38060638308525085
 13
1.000913143157959
 23
0.4111216962337494
 33
0.38060638308525085
  0
3DFACE
  8
0
 10
0.7839522957801819
 20
-0.6053458452224731
 30
0.6781127452850342
 11
0.8585322499275208
 21
-0.6626783609390259
 31
0.38060638308525085
 12
0.9373943209648132
 22
-0.5449613332748413
 32
0.38060638308525085
 13
0.8559722900390625
 23
-0.49784183502197266
 33
0.678111732006073
  0
3DFACE
  8
0
 10
0.9805862307548523
 20
0.1257903128862381
 30
0.6780320405960083
 11
0.9889658689498901
 21
-0.0033366179559379816
 31
0.6780571937561035
 12
1.0830230712890625
 22
-0.0034766807220876217
 32
0.38060638308525085
 13
1.0738470554351807
 23
0.13791750371456146
 33
0.38060638308525085
  0
3DFACE
  8
0
 10
0.9805862307548523
 20
0.1257903128862381
 30
0.6780320405960083
 11
1.0738470554351807
 21
0.13791750371456146
 31
0.38060638308525085
 12
1.0463721752166748
 22
0.2769199013710022
 32
0.38060638308525085
 13
0.9554953575134277
 23
0.2527328431606293
 33
0.6780031323432922
  0
3DFACE
  8
0
 10
0.12973755598068237
 20
0.9782178401947021
 30
0.6776654720306396
 11
0.2566337585449219
 21
0.9528915286064148
 31
0.6777020692825317
 12
0.2811168432235718
 22
1.0435949563980103
 32
0.38060638308525085
 13
0.1421653777360916
 23
1.0713274478912354
 33
0.38060638308525085
  0
3DFACE
  8
0
 10
0.12973755598068237
 20
0.9782178401947021
 30
0.6776654720306396
 11
0.1421653777360916
 21
1.0713274478912354
 31
0.38060638308525085
 12
0.0007880817865952849
 22
1.0807653665542603
 32
0.38060638308525085
 13
0.0006259913789108396
 23
0.9868369102478027
 33
0.6776313185691833
  0
3DFACE
  8
0
 10
0.9132789373397827
 20
-0.3818250298500061
 30
0.6781055331230164
 11
0.8559722900390625
 21
-0.49784183502197266
 31
0.678111732006073
 12
0.9373943209648132
 22
-0.5449613332748413
 32
0.38060638308525085
 13
1.0001450777053833
 23
-0.4179224669933319
 33
0.38060638308525085
  0
3DFACE
  8
0
 10
0.9132789373397827
 20
-0.3818250298500061
 30
0.6781055331230164
 11
1.0001450777053833
 21
-0.4179224669933319
 31
0.38060638308525085
 12
1.0458526611328125
 22
-0.28380540013313293
 32
0.38060638308525085
 13
0.9550209045410156
 23
-0.2593441605567932
 33
0.6780942678451538
  0
3DFACE
  8
0
 10
1.4838204383850098
 20
1.394710898399353
 30
0.004580080509185791
 11
1.4825247526168823
 21
-0.0039136093109846115
 31
0.004828914999961853
 12
-0.00012052059173583984
 22
-0.0025400519371032715
 32
0.004454439505934715
 13
-0.00012052059173583984
 23
-0.0025400519371032715
 33
0.004454439505934715
  0
3DFACE
  8
0
 10
-0.0014161599101498723
 20
-1.4011644124984741
 30
0.004703276325017214
 11
-1.4840614795684814
 21
-1.3997910022735596
 31
0.004328787326812744
 12
-0.00012052059173583984
 22
-0.0025400519371032715
 32
0.004454439505934715
 13
-0.00012052059173583984
 23
-0.0025400519371032715
 33
0.004454439505934715
  0
3DFACE
  8
0
 10
-1.4840614795684814
 20
-1.3997910022735596
 30
0.004328787326812744
 11
-1.482765793800354
 21
-0.001166713540442288
 31
0.004079957492649555
 12
-0.00012052059173583984
 22
-0.0025400519371032715
 32
0.004454439505934715
 13
-0.00012052059173583984
 23
-0.0025400519371032715
 33
0.004454439505934715
  0
3DFACE
  8
0
 10
0.5428469181060791
 20
-0.9451013803482056
 30
0.38060638308525085
 11
1.250908613204956
 21
-1.1848887205123901
 31
0.3811328709125519
 12
0.7683129906654358
 22
-0.7724268436431885
 32
0.38060638308525085
 13
0.6612387895584106
 23
-0.8661530017852783
 33
0.38060638308525085
  0
3DFACE
  8
0
 10
1.250908613204956
 20
-1.1848887205123901
 30
0.3811328709125519
 11
0.5428469181060791
 21
-0.9451013803482056
 31
0.38060638308525085
 12
0.41516321897506714
 22
-1.0079209804534912
 32
0.38060638308525085
 13
0.28037235140800476
 23
-1.0535370111465454
 33
0.38060638308525085
  0
3DFACE
  8
0
 10
-1.4814702272415161
 20
1.3974577188491821
 30
0.00383111834526062
 11
-1.482765793800354
 21
-0.001166713540442288
 31
0.004079957492649555
 12
-1.2524338960647583
 22
-0.001313094049692154
 32
0.38029006123542786
 13
-1.2513395547866821
 23
1.1799423694610596
 33
0.3800799250602722
  0
3DFACE
  8
0
 10
-1.2524338960647583
 20
-0.001313094049692154
 30
0.38029006123542786
 11
-1.482765793800354
 21
-0.001166713540442288
 31
0.004079957492649555
 12
-1.4840614795684814
 22
-1.3997910022735596
 32
0.004328787326812744
 13
-1.253528118133545
 23
-1.1825686693191528
 33
0.38050028681755066
  0
3DFACE
  8
0
 10
-1.4840614795684814
 20
-1.3997910022735596
 30
0.004328787326812744
 11
-0.0014161599101498723
 21
-1.4011644124984741
 31
0.004703276325017214
 12
-0.0013097358169034123
 22
-1.1837286949157715
 32
0.38081657886505127
 13
-1.253528118133545
 23
-1.1825686693191528
 33
0.38050028681755066
  0
3DFACE
  8
0
 10
1.4812290668487549
 20
-1.4025378227233887
 30
0.005077759735286236
 11
1.250908613204956
 21
-1.1848887205123901
 31
0.3811328709125519
 12
-0.0013097358169034123
 22
-1.1837286949157715
 32
0.38081657886505127
 13
-0.0014161599101498723
 23
-1.4011644124984741
 33
0.004703276325017214
  0
3DFACE
  8
0
 10
1.4812290668487549
 20
-1.4025378227233887
 30
0.005077759735286236
 11
-0.0014161599101498723
 21
-1.4011644124984741
 31
0.004703276325017214
 12
-0.00012052059173583984
 22
-0.0025400519371032715
 32
0.004454439505934715
 13
-0.00012052059173583984
 23
-0.0025400519371032715
 33
0.004454439505934715
  0
3DFACE
  8
0
 10
-1.482765793800354
 20
-0.001166713540442288
 30
0.004079957492649555
 11
-1.4814702272415161
 21
1.3974577188491821
 31
0.00383111834526062
 12
-0.00012052059173583984
 22
-0.0025400519371032715
 32
0.004454439505934715
 13
-0.00012052059173583984
 23
-0.0025400519371032715
 33
0.004454439505934715
  0
3DFACE
  8
0
 10
-1.4814702272415161
 20
1.3974577188491821
 30
0.00383111834526062
 11
0.0011751956772059202
 21
1.3960843086242676
 31
0.004205584526062012
 12
-0.00012052059173583984
 22
-0.0025400519371032715
 32
0.004454439505934715
 13
-0.00012052059173583984
 23
-0.0025400519371032715
 33
0.004454439505934715
  0
3DFACE
  8
0
 10
1.4812290668487549
 20
-1.4025378227233887
 30
0.005077759735286236
 11
-0.00012052059173583984
 21
-0.0025400519371032715
 31
0.004454439505934715
 12
1.4825247526168823
 22
-0.0039136093109846115
 32
0.004828914999961853
 13
1.4825247526168823
 23
-0.0039136093109846115
 33
0.004828914999961853
  0
3DFACE
  8
0
 10
0.0011751956772059202
 20
1.3960843086242676
 30
0.004205584526062012
 11
1.4838204383850098
 21
1.394710898399353
 31
0.004580080509185791
 12
-0.00012052059173583984
 22
-0.0025400519371032715
 32
0.004454439505934715
 13
-0.00012052059173583984
 23
-0.0025400519371032715
 33
0.004454439505934715
  0
3DFACE
  8
0
 10
-0.941835880279541
 20
0.5423351526260376
 30
0.38060638308525085
 11
-1.2513395547866821
 21
1.1799423694610596
 31
0.3800799250602722
 12
-1.0507577657699585
 22
0.28006264567375183
 32
0.38060638308525085
 13
-1.0048918724060059
 23
0.4147685170173645
 33
0.38060638308525085
  0
3DFACE
  8
0
 10
-0.0013097358169034123
 20
-1.1837286949157715
 30
0.38081657886505127
 11
1.250908613204956
 21
-1.1848887205123901
 31
0.3811328709125519
 12
0.28037235140800476
 22
-1.0535370111465454
 32
0.38060638308525085
 13
0.28037235140800476
 23
-1.0535370111465454
 33
0.38060638308525085
  0
3DFACE
  8
0
 10
-1.2513395547866821
 20
1.1799423694610596
 30
0.3800799250602722
 11
-1.2524338960647583
 21
-0.001313094049692154
 31
0.38029006123542786
 12
-1.0507577657699585
 22
0.28006264567375183
 32
0.38060638308525085
 13
-1.0507577657699585
 23
0.28006264567375183
 33
0.38060638308525085
  0
3DFACE
  8
0
 10
1.4838204383850098
 20
1.394710898399353
 30
0.004580080509185791
 11
1.2530971765518188
 21
1.1776223182678223
 31
0.38071247935295105
 12
1.2520028352737427
 22
-0.0036330779548734426
 32
0.3809226155281067
 13
1.4825247526168823
 23
-0.0039136093109846115
 33
0.004828914999961853
  0
3DFACE
  8
0
 10
1.4812290668487549
 20
-1.4025378227233887
 30
0.005077759735286236
 11
1.4825247526168823
 21
-0.0039136093109846115
 31
0.004828914999961853
 12
1.2520028352737427
 22
-0.0036330779548734426
 32
0.3809226155281067
 13
1.250908613204956
 23
-1.1848887205123901
 33
0.3811328709125519
  0
3DFACE
  8
0
 10
1.4838204383850098
 20
1.394710898399353
 30
0.004580080509185791
 11
0.0011751956772059202
 21
1.3960843086242676
 31
0.004205584526062012
 12
0.0008788813138380647
 22
1.178782343864441
 32
0.3803962171077728
 13
1.2530971765518188
 23
1.1776223182678223
 33
0.38071247935295105
  0
3DFACE
  8
0
 10
-1.4814702272415161
 20
1.3974577188491821
 30
0.00383111834526062
 11
-1.2513395547866821
 21
1.1799423694610596
 31
0.3800799250602722
 12
0.0008788813138380647
 22
1.178782343864441
 32
0.3803962171077728
 13
0.0011751956772059202
 23
1.3960843086242676
 33
0.004205584526062012
  0
3DFACE
  8
0
 10
0.003400550689548254
 20
0.18602915108203888
 30
0.4431785047054291
 11
0.0033681150525808334
 21
0.11399324238300323
 31
0.5023130178451538
 12
0.059755031019449234
 22
0.09999909996986389
 32
0.5023130178451538
 13
0.09509390592575073
 23
0.16114859282970428
 33
0.4431785047054291
  0
3DFACE
  8
0
 10
0.0007880817865952849
 20
1.0807653665542603
 30
0.38060638308525085
 11
0.0008788813138380647
 21
1.178782343864441
 31
0.3803962171077728
 12
-0.2796090841293335
 22
1.0441144704818726
 32
0.38060638308525085
 13
-0.14060644805431366
 23
1.0715893507003784
 33
0.38060638308525085
  0
3DFACE
  8
0
 10
0.0008788813138380647
 20
1.178782343864441
 30
0.3803962171077728
 11
0.0007880817865952849
 21
1.0807653665542603
 31
0.38060638308525085
 12
0.1421653777360916
 22
1.0713274478912354
 32
0.38060638308525085
 13
0.2811168432235718
 23
1.0435949563980103
 33
0.38060638308525085
  0
3DFACE
  8
0
 10
1.0830230712890625
 20
-0.0034766807220876217
 30
0.38060638308525085
 11
1.2520028352737427
 21
-0.0036330779548734426
 31
0.3809226155281067
 12
1.0463721752166748
 22
0.2769199013710022
 32
0.38060638308525085
 13
1.0738470554351807
 23
0.13791750371456146
 33
0.38060638308525085
  0
3DFACE
  8
0
 10
1.2520028352737427
 20
-0.0036330779548734426
 30
0.3809226155281067
 11
1.0830230712890625
 21
-0.0034766807220876217
 31
0.38060638308525085
 12
1.073585033416748
 22
-0.14485390484333038
 32
0.38060638308525085
 13
1.0458526611328125
 23
-0.28380540013313293
 33
0.38060638308525085
  0
3DFACE
  8
0
 10
-0.7856498956680298
 20
-0.6038918495178223
 30
0.6777162551879883
 11
-0.8574704527854919
 21
-0.49625450372695923
 31
0.6776789426803589
 12
-0.942843496799469
 22
-0.5455362796783447
 32
0.38060638308525085
 13
-0.8638954162597656
 23
-0.6639276742935181
 33
0.38060638308525085
  0
3DFACE
  8
0
 10
0.12791992723941803
 20
-0.9832972288131714
 30
0.6780143976211548
 11
0.1407807469367981
 21
-1.0811691284179688
 31
0.38060638308525085
 12
0.28037235140800476
 22
-1.0535370111465454
 32
0.38060638308525085
 13
0.2548624873161316
 23
-0.958206057548523
 33
0.6780419945716858
  0
3DFACE
  8
0
 10
0.7839522957801819
 20
-0.6053458452224731
 30
0.6781127452850342
 11
0.6985712051391602
 21
-0.702578067779541
 31
0.6781084537506104
 12
0.7683129906654358
 22
-0.7724268436431885
 32
0.38060638308525085
 13
0.8585322499275208
 23
-0.6626783609390259
 33
0.38060638308525085
  0
3DFACE
  8
0
 10
-0.9809284210205078
 20
0.12760783731937408
 30
0.67753666639328
 11
-0.9556020498275757
 21
0.2545040249824524
 31
0.6775205135345459
 12
-1.0507577657699585
 22
0.28006264567375183
 32
0.38060638308525085
 13
-1.0786484479904175
 23
0.14052192866802216
 33
0.38060638308525085
  0
3DFACE
  8
0
 10
0.6011812090873718
 20
-0.7877792119979858
 30
0.6780990958213806
 11
0.49354392290115356
 21
-0.8596001863479614
 31
0.6780847311019897
 12
0.5428469181060791
 22
-0.9451013803482056
 32
0.38060638308525085
 13
0.6612387895584106
 23
-0.8661530017852783
 33
0.38060638308525085
  0
3DFACE
  8
0
 10
0.6011812090873718
 20
-0.7877792119979858
 30
0.6780990958213806
 11
0.6612387895584106
 21
-0.8661530017852783
 31
0.38060638308525085
 12
0.7683129906654358
 22
-0.7724268436431885
 32
0.38060638308525085
 13
0.6985712051391602
 23
-0.702578067779541
 33
0.6781084537506104
  0
3DFACE
  8
0
 10
-0.9145616292953491
 20
-0.380131334066391
 30
0.677643895149231
 11
-1.005663275718689
 21
-0.41785237193107605
 31
0.38060638308525085
 12
-0.942843496799469
 22
-0.5455362796783447
 32
0.38060638308525085
 13
-0.8574704527854919
 23
-0.49625450372695923
 33
0.6776789426803589
  0
3DFACE
  8
0
 10
-0.9145616292953491
 20
-0.380131334066391
 30
0.677643895149231
 11
-0.956076443195343
 21
-0.25757309794425964
 31
0.6776115298271179
 12
-1.0512795448303223
 22
-0.28306111693382263
 32
0.38060638308525085
 13
-1.005663275718689
 23
-0.41785237193107605
 33
0.38060638308525085
  0
3DFACE
  8
0
 10
-0.37969592213630676
 20
-0.9159895181655884
 30
0.6778743267059326
 11
-0.49571308493614197
 21
-0.8586829900741577
 31
0.6778348684310913
 12
-0.5450242161750793
 22
-0.9440932869911194
 32
0.38060638308525085
 13
-0.41745713353157043
 23
-1.0071494579315186
 33
0.38060638308525085
  0
3DFACE
  8
0
 10
-0.37969592213630676
 20
-0.9159895181655884
 30
0.6778743267059326
 11
-0.41745713353157043
 21
-1.0071494579315186
 31
0.38060638308525085
 12
-0.2827509939670563
 22
-1.0530152320861816
 32
0.38060638308525085
 13
-0.2572146952152252
 23
-0.9577315449714661
 33
0.6779125928878784
  0
3DFACE
  8
0
 10
-0.13031847774982452
 20
-0.983057975769043
 30
0.6779491901397705
 11
-0.14321042597293854
 21
-1.0809060335159302
 31
0.38060638308525085
 12
-0.0012232259614393115
 22
-1.0903444290161133
 32
0.38060638308525085
 13
-0.0012070147786289454
 23
-0.9916771054267883
 33
0.6779833436012268
  0
3DFACE
  8
0
 10
-0.13031847774982452
 20
-0.983057975769043
 30
0.6779491901397705
 11
-0.2572146952152252
 21
-0.9577315449714661
 31
0.6779125928878784
 12
-0.2827509939670563
 22
-1.0530152320861816
 32
0.38060638308525085
 13
-0.14321042597293854
 23
-1.0809060335159302
 33
0.38060638308525085
  0
3DFACE
  8
0
 10
-0.7856498956680298
 20
-0.6038918495178223
 30
0.6777162551879883
 11
-0.8638954162597656
 21
-0.6639276742935181
 31
0.38060638308525085
 12
-0.770169734954834
 22
-0.7710012793540955
 32
0.38060638308525085
 13
-0.7004490494728088
 23
-0.7012819051742554
 33
0.6777551174163818
  0
3DFACE
  8
0
 10
-0.6032171249389648
 20
-0.7866630554199219
 30
0.677794873714447
 11
-0.7004490494728088
 21
-0.7012819051742554
 31
0.6777551174163818
 12
-0.770169734954834
 22
-0.7710012793540955
 32
0.38060638308525085
 13
-0.6632694602012634
 23
-0.8649256825447083
 33
0.38060638308525085
  0
3DFACE
  8
0
 10
-0.6032171249389648
 20
-0.7866630554199219
 30
0.677794873714447
 11
-0.6632694602012634
 21
-0.8649256825447083
 31
0.38060638308525085
 12
-0.5450242161750793
 22
-0.9440932869911194
 32
0.38060638308525085
 13
-0.49571308493614197
 23
-0.8586829900741577
 33
0.6778348684310913
  0
3DFACE
  8
0
 10
-0.9138603210449219
 20
0.3769853115081787
 30
0.6775091886520386
 11
-0.8565540313720703
 21
0.4930025339126587
 31
0.6775029301643372
 12
-0.941835880279541
 22
0.5423351526260376
 32
0.38060638308525085
 13
-1.0048918724060059
 23
0.4147685170173645
 33
0.38060638308525085
  0
3DFACE
  8
0
 10
-0.9138603210449219
 20
0.3769853115081787
 30
0.6775091886520386
 11
-1.0048918724060059
 21
0.4147685170173645
 31
0.38060638308525085
 12
-1.0507577657699585
 22
0.28006264567375183
 32
0.38060638308525085
 13
-0.9556020498275757
 23
0.2545040249824524
 33
0.6775205135345459
  0
3DFACE
  8
0
 10
-0.9811676144599915
 20
-0.13063053786754608
 30
0.6775826215744019
 11
-0.9895474910736084
 21
-0.0015035865362733603
 31
0.6775574684143066
 12
-1.0880868434906006
 22
-0.0014653366524726152
 32
0.38060638308525085
 13
-1.0789116621017456
 23
-0.14346943795681
 33
0.38060638308525085
  0
3DFACE
  8
0
 10
-0.9811676144599915
 20
-0.13063053786754608
 30
0.6775826215744019
 11
-1.0789116621017456
 21
-0.14346943795681
 31
0.38060638308525085
 12
-1.0512795448303223
 22
-0.28306111693382263
 32
0.38060638308525085
 13
-0.956076443195343
 23
-0.25757309794425964
 33
0.6776115298271179
  0
3DFACE
  8
0
 10
0.12791992723941803
 20
-0.9832972288131714
 30
0.6780143976211548
 11
-0.0012070147786289454
 21
-0.9916771054267883
 31
0.6779833436012268
 12
-0.0012232259614393115
 22
-1.0903444290161133
 32
0.38060638308525085
 13
0.1407807469367981
 23
-1.0811691284179688
 33
0.38060638308525085
  0
3DFACE
  8
0
 10
-0.7845340967178345
 20
0.600506603717804
 30
0.677501916885376
 11
-0.8626683950424194
 21
0.6605805158615112
 31
0.38060638308525085
 12
-0.941835880279541
 22
0.5423351526260376
 32
0.38060638308525085
 13
-0.8565540313720703
 23
0.4930025339126587
 33
0.6775029301643372
  0
3DFACE
  8
0
 10
-0.7845340967178345
 20
0.600506603717804
 30
0.677501916885376
 11
-0.6991530060768127
 21
0.697738528251648
 31
0.6775062084197998
 12
-0.7654715180397034
 22
0.7642021775245667
 32
0.38060638308525085
 13
-0.8626683950424194
 23
0.6605805158615112
 33
0.38060638308525085
  0
3DFACE
  8
0
 10
0.37742072343826294
 20
-0.9166914224624634
 30
0.6780655384063721
 11
0.41516321897506714
 21
-1.0079209804534912
 31
0.38060638308525085
 12
0.5428469181060791
 22
-0.9451013803482056
 32
0.38060638308525085
 13
0.49354392290115356
 23
-0.8596001863479614
 33
0.6780847311019897
  0
3DFACE
  8
0
 10
0.37742072343826294
 20
-0.9166914224624634
 30
0.6780655384063721
 11
0.2548624873161316
 21
-0.958206057548523
 31
0.6780419945716858
 12
0.28037235140800476
 22
-1.0535370111465454
 32
0.38060638308525085
 13
0.41516321897506714
 23
-1.0079209804534912
 33
0.38060638308525085
  0
3DFACE
  8
0
 10
-0.9809284210205078
 20
0.12760783731937408
 30
0.67753666639328
 11
-1.0786484479904175
 21
0.14052192866802216
 31
0.38060638308525085
 12
-1.0880868434906006
 22
-0.0014653366524726152
 32
0.38060638308525085
 13
-0.9895474910736084
 23
-0.0015035865362733603
 33
0.6775574684143066
  0
3DFACE
  8
0
 10
1.250908613204956
 20
-1.1848887205123901
 30
0.3811328709125519
 11
1.2520028352737427
 21
-0.0036330779548734426
 31
0.3809226155281067
 12
1.0458526611328125
 22
-0.28380540013313293
 32
0.38060638308525085
 13
1.0458526611328125
 23
-0.28380540013313293
 33
0.38060638308525085
  0
3DFACE
  8
0
 10
0.9373943209648132
 20
-0.5449613332748413
 30
0.38060638308525085
 11
1.250908613204956
 21
-1.1848887205123901
 31
0.3811328709125519
 12
1.0458526611328125
 22
-0.28380540013313293
 32
0.38060638308525085
 13
1.0001450777053833
 23
-0.4179224669933319
 33
0.38060638308525085
  0
3DFACE
  8
0
 10
1.250908613204956
 20
-1.1848887205123901
 30
0.3811328709125519
 11
0.9373943209648132
 21
-0.5449613332748413
 31
0.38060638308525085
 12
0.8585322499275208
 22
-0.6626783609390259
 32
0.38060638308525085
 13
0.7683129906654358
 23
-0.7724268436431885
 33
0.38060638308525085
  0
3DFACE
  8
0
 10
0.938398003578186
 20
0.5382770299911499
 30
0.38060638308525085
 11
1.2530971765518188
 21
1.1776223182678223
 31
0.38071247935295105
 12
0.7664597034454346
 22
0.7627822160720825
 32
0.38060638308525085
 13
0.8597545623779297
 23
0.6561400890350342
 33
0.38060638308525085
  0
3DFACE
  8
0
 10
-1.2513395547866821
 20
1.1799423694610596
 30
0.3800799250602722
 11
-0.941835880279541
 21
0.5423351526260376
 31
0.38060638308525085
 12
-0.8626683950424194
 22
0.6605805158615112
 32
0.38060638308525085
 13
-0.7654715180397034
 23
0.7642021775245667
 33
0.38060638308525085
  0
3DFACE
  8
0
 10
1.0463721752166748
 20
0.2769199013710022
 30
0.38060638308525085
 11
1.2520028352737427
 21
-0.0036330779548734426
 31
0.3809226155281067
 12
1.2530971765518188
 22
1.1776223182678223
 32
0.38071247935295105
 13
1.2530971765518188
 23
1.1776223182678223
 33
0.38071247935295105
  0
3DFACE
  8
0
 10
0.5422729849815369
 20
0.9351367950439453
 30
0.38060638308525085
 11
1.2530971765518188
 21
1.1776223182678223
 31
0.38071247935295105
 12
0.2811168432235718
 22
1.0435949563980103
 32
0.38060638308525085
 13
0.41523393988609314
 23
0.9978875517845154
 33
0.38060638308525085
  0
3DFACE
  8
0
 10
-0.5409657955169678
 20
0.9361410737037659
 30
0.38060638308525085
 11
-1.2513395547866821
 21
1.1799423694610596
 31
0.3800799250602722
 12
-0.7654715180397034
 22
0.7642021775245667
 32
0.38060638308525085
 13
-0.6588290333747864
 23
0.8574973940849304
 33
0.38060638308525085
  0
3DFACE
  8
0
 10
-1.2513395547866821
 20
1.1799423694610596
 30
0.3800799250602722
 11
-0.5409657955169678
 21
0.9361410737037659
 31
0.38060638308525085
 12
-0.4138106405735016
 22
0.9986559748649597
 32
0.38060638308525085
 13
-0.2796090841293335
 23
1.0441144704818726
 33
0.38060638308525085
  0
3DFACE
  8
0
 10
0.0008788813138380647
 20
1.178782343864441
 30
0.3803962171077728
 11
-1.2513395547866821
 21
1.1799423694610596
 31
0.3800799250602722
 12
-0.2796090841293335
 22
1.0441144704818726
 32
0.38060638308525085
 13
-0.2796090841293335
 23
1.0441144704818726
 33
0.38060638308525085
  0
3DFACE
  8
0
 10
1.2530971765518188
 20
1.1776223182678223
 30
0.38071247935295105
 11
0.0008788813138380647
 21
1.178782343864441
 31
0.3803962171077728
 12
0.2811168432235718
 22
1.0435949563980103
 32
0.38060638308525085
 13
0.2811168432235718
 23
1.0435949563980103
 33
0.38060638308525085
  0
3DFACE
  8
0
 10
1.2530971765518188
 20
1.1776223182678223
 30
0.38071247935295105
 11
0.5422729849815369
 21
0.9351367950439453
 31
0.38060638308525085
 12
0.6599903702735901
 22
0.8562747240066528
 32
0.38060638308525085
 13
0.7664597034454346
 23
0.7627822160720825
 33
0.38060638308525085
  0
3DFACE
  8
0
 10
0.938398003578186
 20
0.5382770299911499
 30
0.38060638308525085
 11
1.000913143157959
 21
0.4111216962337494
 31
0.38060638308525085
 12
1.0463721752166748
 22
0.2769199013710022
 32
0.38060638308525085
 13
1.2530971765518188
 23
1.1776223182678223
 33
0.38071247935295105
  0
3DFACE
  8
0
 10
-0.05065702646970749
 20
-0.06836056709289551
 30
0.03640899062156677
 11
-0.00012052059173583984
 21
-0.0025400519371032715
 31
0.004454439505934715
 12
-0.07753046602010727
 22
-0.03424501046538353
 32
0.03640899062156677
 13
-0.07753046602010727
 23
-0.03424501046538353
 33
0.03640899062156677
  0
3DFACE
  8
0
 10
0.05085085704922676
 20
-0.06818903982639313
 30
0.03640899062156677
 11
0.07265479862689972
 21
-0.04376879334449768
 31
0.03640899062156677
 12
-0.00012052059173583984
 22
-0.0025400519371032715
 32
0.004454439505934715
 13
-0.00012052059173583984
 23
-0.0025400519371032715
 33
0.004454439505934715
  0
3DFACE
  8
0
 10
0.08438215404748917
 20
-0.0021832792554050684
 30
0.03640899062156677
 11
-0.00012052059173583984
 21
-0.0025400519371032715
 31
0.004454439505934715
 12
0.07265479862689972
 22
-0.04376879334449768
 32
0.03640899062156677
 13
0.07265479862689972
 23
-0.04376879334449768
 33
0.03640899062156677
  0
3DFACE
  8
0
 10
-0.1139591708779335
 20
-0.8609001636505127
 30
0.09255261719226837
 11
-0.11789020895957947
 21
-0.8899473547935486
 31
0.38073474168777466
 12
-0.0010448565008118749
 22
-0.8977475166320801
 32
0.3807656466960907
 13
-0.000951766618527472
 23
-0.8758842349052429
 33
0.0925838053226471
  0
3DFACE
  8
0
 10
-0.1139591708779335
 20
-0.8609001636505127
 30
0.09255261719226837
 11
-0.22696657478809357
 21
-0.8459160327911377
 31
0.09252141416072845
 12
-0.23273077607154846
 22
-0.867027223110199
 32
0.3807016909122467
 13
-0.11789020895957947
 23
-0.8899473547935486
 33
0.38073474168777466
  0
3DFACE
  8
0
 10
0.2313336282968521
 20
0.29858413338661194
 30
0.13214431703090668
 11
0.19005243480205536
 21
0.3262227177619934
 31
0.13214431703090668
 12
0.0540517121553421
 22
0.12694168090820312
 32
0.03640899062156677
 13
0.0853172019124031
 23
0.1082901731133461
 33
0.03640899062156677
  0
3DFACE
  8
0
 10
0.2313336282968521
 20
0.29858413338661194
 30
0.13214431703090668
 11
0.0853172019124031
 21
0.1082901731133461
 31
0.03640899062156677
 12
0.11099502444267273
 22
0.08256427198648453
 32
0.03640899062156677
 13
0.2686556577682495
 23
0.26579248905181885
 33
0.13214431703090668
  0
3DFACE
  8
0
 10
0.14551512897014618
 20
0.3482375741004944
 30
0.13214431703090668
 11
0.0984870046377182
 21
0.3642497658729553
 31
0.13214431703090668
 12
0.018985943868756294
 22
0.13735370337963104
 32
0.03640899062156677
 13
0.0540517121553421
 23
0.12694168090820312
 33
0.03640899062156677
  0
3DFACE
  8
0
 10
0.14551512897014618
 20
0.3482375741004944
 30
0.13214431703090668
 11
0.0540517121553421
 21
0.12694168090820312
 31
0.03640899062156677
 12
0.19005243480205536
 22
0.3262227177619934
 32
0.13214431703090668
 13
0.19005243480205536
 23
0.3262227177619934
 33
0.13214431703090668
  0
3DFACE
  8
0
 10
-0.1458214372396469
 20
-0.35327187180519104
 30
0.13214431703090668
 11
-0.09879171848297119
 21
-0.3692851662635803
 31
0.13214431703090668
 12
-0.03929847106337547
 22
-0.15021373331546783
 32
0.03640899062156677
 13
-0.07670598477125168
 23
-0.1355549842119217
 33
0.03640899062156677
  0
3DFACE
  8
0
 10
-0.1458214372396469
 20
-0.35327187180519104
 30
0.13214431703090668
 11
-0.07670598477125168
 21
-0.1355549842119217
 31
0.03640899062156677
 12
-0.19035707414150238
 22
-0.3312581181526184
 32
0.13214431703090668
 13
-0.19035707414150238
 23
-0.3312581181526184
 33
0.13214431703090668
  0
3DFACE
  8
0
 10
-0.4928145408630371
 20
-0.06691376119852066
 30
0.13003666698932648
 11
-0.48433661460876465
 21
-0.13177399337291718
 31
0.13005037605762482
 12
-0.3671019673347473
 22
-0.10047733783721924
 32
0.13214431703090668
 13
-0.376749724149704
 23
-0.05174214765429497
 33
0.13214431703090668
  0
3DFACE
  8
0
 10
-0.4593605697154999
 20
-0.19222994148731232
 30
0.13006745278835297
 11
-0.3511771559715271
 21
-0.1475352644920349
 31
0.13214431703090668
 12
-0.3671019673347473
 22
-0.10047733783721924
 32
0.13214431703090668
 13
-0.48433661460876465
 23
-0.13177399337291718
 33
0.13005037605762482
  0
3DFACE
  8
0
 10
-0.7998120784759521
 20
0.32957789301872253
 30
0.09216742217540741
 11
-0.756089985370636
 21
0.4348565340042114
 31
0.092159703373909
 12
-0.7751311659812927
 22
0.4458826184272766
 32
0.3803309202194214
 13
-0.8269933462142944
 23
0.3408873379230499
 33
0.3803365230560303
  0
3DFACE
  8
0
 10
-0.8585184812545776
 20
0.11129191517829895
 30
0.09219148755073547
 11
-0.8876898288726807
 21
0.11520160734653473
 31
0.3803613781929016
 12
-0.8954900503158569
 22
-0.0016437446465715766
 32
0.38038021326065063
 13
-0.8735027313232422
 23
-0.0017154380911961198
 33
0.09220778942108154
  0
3DFACE
  8
0
 10
0.05224025622010231
 20
0.0654601976275444
 30
0.03640899062156677
 11
0.02284911274909973
 21
0.08042488992214203
 31
0.03640899062156677
 12
-0.00012052059173583984
 22
-0.0025400519371032715
 32
0.004454439505934715
 13
0.07382840663194656
 23
0.04006022587418556
 33
0.03640899062156677
  0
3DFACE
  8
0
 10
-0.07753046602010727
 20
-0.03424501046538353
 30
0.03640899062156677
 11
-0.00012052059173583984
 21
-0.0025400519371032715
 31
0.004454439505934715
 12
-0.08384573459625244
 22
0.009058605879545212
 32
0.03640899062156677
 13
-0.08384573459625244
 23
0.009058605879545212
 33
0.03640899062156677
  0
3DFACE
  8
0
 10
0.02284911274909973
 20
0.08042488992214203
 30
0.03640899062156677
 11
-0.021456265822052956
 21
0.0808127373456955
 31
0.03640899062156677
 12
-0.00012052059173583984
 22
-0.0025400519371032715
 32
0.004454439505934715
 13
-0.00012052059173583984
 23
-0.0025400519371032715
 33
0.004454439505934715
  0
3DFACE
  8
0
 10
-0.05065702646970749
 20
-0.06836056709289551
 30
0.03640899062156677
 11
-0.010657954961061478
 21
-0.08456472307443619
 31
0.03640899062156677
 12
-0.00012052059173583984
 22
-0.0025400519371032715
 32
0.004454439505934715
 13
-0.00012052059173583984
 23
-0.0025400519371032715
 33
0.004454439505934715
  0
3DFACE
  8
0
 10
-0.010657954961061478
 20
-0.08456472307443619
 30
0.03640899062156677
 11
0.02206283062696457
 21
-0.08229941874742508
 31
0.03640899062156677
 12
-0.00012052059173583984
 22
-0.0025400519371032715
 32
0.004454439505934715
 13
-0.00012052059173583984
 23
-0.0025400519371032715
 33
0.004454439505934715
  0
3DFACE
  8
0
 10
0.05085085704922676
 20
-0.06818903982639313
 30
0.03640899062156677
 11
-0.00012052059173583984
 21
-0.0025400519371032715
 31
0.004454439505934715
 12
0.02206283062696457
 22
-0.08229941874742508
 32
0.03640899062156677
 13
0.02206283062696457
 23
-0.08229941874742508
 33
0.03640899062156677
  0
3DFACE
  8
0
 10
-0.05176986753940582
 20
0.06585480272769928
 30
0.03640899062156677
 11
-0.07343072444200516
 21
0.040828753262758255
 31
0.03640899062156677
 12
-0.00012052059173583984
 22
-0.0025400519371032715
 32
0.004454439505934715
 13
-0.00012052059173583984
 23
-0.0025400519371032715
 33
0.004454439505934715
  0
3DFACE
  8
0
 10
-0.08384573459625244
 20
0.009058605879545212
 30
0.03640899062156677
 11
-0.00012052059173583984
 21
-0.0025400519371032715
 31
0.004454439505934715
 12
-0.07343072444200516
 22
0.040828753262758255
 32
0.03640899062156677
 13
-0.07343072444200516
 23
0.040828753262758255
 33
0.03640899062156677
  0
3DFACE
  8
0
 10
0.07382840663194656
 20
0.04006022587418556
 30
0.03640899062156677
 11
-0.00012052059173583984
 21
-0.0025400519371032715
 31
0.004454439505934715
 12
0.08438215404748917
 22
-0.0021832792554050684
 32
0.03640899062156677
 13
0.08438215404748917
 23
-0.0021832792554050684
 33
0.03640899062156677
  0
3DFACE
  8
0
 10
-0.05176986753940582
 20
0.06585480272769928
 30
0.03640899062156677
 11
-0.00012052059173583984
 21
-0.0025400519371032715
 31
0.004454439505934715
 12
-0.021456265822052956
 22
0.0808127373456955
 32
0.03640899062156677
 13
-0.021456265822052956
 23
0.0808127373456955
 33
0.03640899062156677
  0
3DFACE
  8
0
 10
-0.3307628333568573
 20
0.797758936882019
 30
0.09220235049724579
 11
-0.342043399810791
 21
0.8249395489692688
 31
0.3803727626800537
 12
-0.4471345543861389
 22
0.7732720971107483
 32
0.3803554177284241
 13
-0.43612223863601685
 23
0.7542319893836975
 33
0.09218350052833557
  0
3DFACE
  8
0
 10
-0.3322450816631317
 20
-0.8021938800811768
 30
0.09248702228069305
 11
-0.3435758948326111
 21
-0.8292509913444519
 31
0.3806670308113098
 12
-0.23273077607154846
 22
-0.867027223110199
 32
0.3807016909122467
 13
-0.22696657478809357
 23
-0.8459160327911377
 33
0.09252141416072845
  0
3DFACE
  8
0
 10
0.5276132822036743
 20
0.6839423775672913
 30
0.09243930876255035
 11
0.6179883480072021
 21
0.6144619584083557
 31
0.09247450530529022
 12
0.6334258317947388
 22
0.6299947500228882
 32
0.38065361976623535
 13
0.5454311370849609
 23
0.7072645425796509
 33
0.3806176781654358
  0
3DFACE
  8
0
 10
-0.5278985500335693
 20
-0.6889914274215698
 30
0.09241747111082077
 11
-0.5458619594573975
 21
-0.712211012840271
 31
0.3805951476097107
 12
-0.4485710859298706
 22
-0.777388870716095
 32
0.38063132762908936
 13
-0.43752360343933105
 23
-0.7584717869758606
 33
0.09245267510414124
  0
3DFACE
  8
0
 10
-0.5278985500335693
 20
-0.6889914274215698
 30
0.09241747111082077
 11
-0.6182735562324524
 21
-0.619511067867279
 31
0.09238225221633911
 12
-0.6338565945625305
 22
-0.6349413990974426
 32
0.38055917620658875
 13
-0.5458619594573975
 23
-0.712211012840271
 33
0.3805951476097107
  0
3DFACE
  8
0
 10
0.11367372423410416
 20
0.8558512926101685
 30
0.09230422228574753
 11
0.22668106853961945
 21
0.8408670425415039
 31
0.09233535826206207
 12
0.23229986429214478
 22
0.862080991268158
 32
0.380511075258255
 13
0.11745932698249817
 23
0.8850011825561523
 33
0.38047802448272705
  0
3DFACE
  8
0
 10
0.11367372423410416
 20
0.8558512926101685
 30
0.09230422228574753
 11
0.11745932698249817
 21
0.8850011825561523
 31
0.38047802448272705
 12
0.0006139579927548766
 22
0.8928013443946838
 32
0.3804471492767334
 13
0.0006663849926553667
 23
0.8708356022834778
 33
0.09227308630943298
  0
3DFACE
  8
0
 10
-0.3511771559715271
 20
-0.1475352644920349
 30
0.13214431703090668
 11
-0.13315218687057495
 21
-0.07900355756282806
 31
0.03640899062156677
 12
-0.14774122834205627
 22
-0.04156895726919174
 32
0.03640899062156677
 13
-0.3671019673347473
 23
-0.10047733783721924
 33
0.13214431703090668
  0
3DFACE
  8
0
 10
-0.3511771559715271
 20
-0.1475352644920349
 30
0.13214431703090668
 11
-0.3292446434497833
 21
-0.1921130120754242
 31
0.13214431703090668
 12
-0.13315218687057495
 22
-0.07900355756282806
 32
0.03640899062156677
 13
-0.13315218687057495
 23
-0.07900355756282806
 33
0.03640899062156677
  0
3DFACE
  8
0
 10
-0.23163986206054688
 20
-0.303618460893631
 30
0.13214431703090668
 11
-0.10885025560855865
 21
-0.11119309812784195
 31
0.03640899062156677
 12
-0.26896023750305176
 22
-0.2708280384540558
 32
0.13214431703090668
 13
-0.26896023750305176
 23
-0.2708280384540558
 33
0.13214431703090668
  0
3DFACE
  8
0
 10
-0.23163986206054688
 20
-0.303618460893631
 30
0.13214431703090668
 11
-0.19035707414150238
 21
-0.3312581181526184
 31
0.13214431703090668
 12
-0.07670598477125168
 22
-0.1355549842119217
 32
0.03640899062156677
 13
-0.10885025560855865
 23
-0.11119309812784195
 33
0.03640899062156677
  0
3DFACE
  8
0
 10
0.3009481132030487
 20
-0.23400388658046722
 30
0.13214431703090668
 11
0.10392607748508453
 21
-0.10597817599773407
 31
0.03640899062156677
 12
0.26815786957740784
 22
-0.27132564783096313
 32
0.13214431703090668
 13
0.26815786957740784
 23
-0.27132564783096313
 33
0.13214431703090668
  0
3DFACE
  8
0
 10
0.3009481132030487
 20
-0.23400388658046722
 30
0.13214431703090668
 11
0.3285880386829376
 21
-0.19272245466709137
 31
0.13214431703090668
 12
0.125555619597435
 22
-0.0747472420334816
 32
0.03640899062156677
 13
0.10392607748508453
 23
-0.10597817599773407
 33
0.03640899062156677
  0
3DFACE
  8
0
 10
0.35087087750434875
 20
0.14250078797340393
 30
0.13214431703090668
 11
0.12958794832229614
 21
0.051264118403196335
 31
0.03640899062156677
 12
0.13993431627750397
 22
0.016179284080863
 32
0.03640899062156677
 13
0.3667972981929779
 23
0.09544186294078827
 33
0.13214431703090668
  0
3DFACE
  8
0
 10
0.35087087750434875
 20
0.14250078797340393
 30
0.13214431703090668
 11
0.3289400339126587
 21
0.1870773434638977
 31
0.13214431703090668
 12
0.12958794832229614
 22
0.051264118403196335
 32
0.03640899062156677
 13
0.12958794832229614
 23
0.051264118403196335
 33
0.03640899062156677
  0
3DFACE
  8
0
 10
0.37635159492492676
 20
-0.05243978649377823
 30
0.13214431703090668
 11
0.13834676146507263
 21
-0.039467550814151764
 31
0.03640899062156677
 12
0.3666151463985443
 22
-0.10115702450275421
 32
0.13214431703090668
 13
0.3666151463985443
 23
-0.10115702450275421
 33
0.13214431703090668
  0
3DFACE
  8
0
 10
0.37635159492492676
 20
-0.05243978649377823
 30
0.13214431703090668
 11
0.37964755296707153
 21
-0.0028695042710751295
 31
0.13214431703090668
 12
0.13993431627750397
 22
0.016179284080863
 32
0.03640899062156677
 13
0.13834676146507263
 23
-0.039467550814151764
 33
0.03640899062156677
  0
3DFACE
  8
0
 10
-0.05007583647966385
 20
-0.37902191281318665
 30
0.13214431703090668
 11
-0.03929847106337547
 21
-0.15021373331546783
 31
0.03640899062156677
 12
-0.09879171848297119
 22
-0.3692851662635803
 32
0.13214431703090668
 13
-0.09879171848297119
 23
-0.3692851662635803
 33
0.13214431703090668
  0
3DFACE
  8
0
 10
-0.05007583647966385
 20
-0.37902191281318665
 30
0.13214431703090668
 11
-0.0005041647818870842
 21
-0.38231760263442993
 31
0.13214431703090668
 12
0.0003840741701424122
 22
-0.15419407188892365
 32
0.03640899062156677
 13
-0.03929847106337547
 23
-0.15021373331546783
 33
0.03640899062156677
  0
3DFACE
  8
0
 10
0.1448647826910019
 20
-0.35354119539260864
 30
0.13214431703090668
 11
0.03928394615650177
 21
-0.14747154712677002
 31
0.03640899062156677
 12
0.09780716150999069
 22
-0.3694673180580139
 32
0.13214431703090668
 13
0.09780716150999069
 23
-0.3694673180580139
 33
0.13214431703090668
  0
3DFACE
  8
0
 10
0.1448647826910019
 20
-0.35354119539260864
 30
0.13214431703090668
 11
0.1894426941871643
 21
-0.3316100835800171
 31
0.13214431703090668
 12
0.07458236813545227
 22
-0.1308886855840683
 32
0.03640899062156677
 13
0.03928394615650177
 23
-0.14747154712677002
 33
0.03640899062156677
  0
3DFACE
  8
0
 10
-0.14517122507095337
 20
0.3485068380832672
 30
0.13214431703090668
 11
-0.07196951657533646
 21
0.12314369529485703
 31
0.03640899062156677
 12
-0.03666652366518974
 22
0.13586947321891785
 32
0.03640899062156677
 13
-0.09811194241046906
 23
0.3644319474697113
 33
0.13214431703090668
  0
3DFACE
  8
0
 10
-0.14517122507095337
 20
0.3485068380832672
 30
0.13214431703090668
 11
-0.1897476613521576
 21
0.32657456398010254
 31
0.13214431703090668
 12
-0.07196951657533646
 22
0.12314369529485703
 32
0.03640899062156677
 13
-0.07196951657533646
 23
0.12314369529485703
 33
0.03640899062156677
  0
3DFACE
  8
0
 10
-0.3766578733921051
 20
0.047405559569597244
 30
0.13214431703090668
 11
-0.15164774656295776
 21
-0.0018793446943163872
 31
0.03640899062156677
 12
-0.14485299587249756
 22
0.03700771927833557
 32
0.03640899062156677
 13
-0.3669198453426361
 23
0.0961216613650322
 33
0.13214431703090668
  0
3DFACE
  8
0
 10
-0.3766578733921051
 20
0.047405559569597244
 30
0.13214431703090668
 11
-0.3799522817134857
 21
-0.002165846759453416
 31
0.13214431703090668
 12
-0.15164774656295776
 22
-0.0018793446943163872
 32
0.03640899062156677
 13
-0.15164774656295776
 23
-0.0018793446943163872
 33
0.03640899062156677
  0
3DFACE
  8
0
 10
-0.30125442147254944
 20
0.22896963357925415
 30
0.13214431703090668
 11
-0.12820473313331604
 21
0.0722750723361969
 31
0.03640899062156677
 12
-0.10324011743068695
 22
0.10157224535942078
 32
0.03640899062156677
 13
-0.2684626281261444
 23
0.26629024744033813
 33
0.13214431703090668
  0
3DFACE
  8
0
 10
-0.30125442147254944
 20
0.22896963357925415
 30
0.13214431703090668
 11
-0.32889270782470703
 21
0.18768711388111115
 31
0.13214431703090668
 12
-0.12820473313331604
 22
0.0722750723361969
 32
0.03640899062156677
 13
-0.12820473313331604
 23
0.0722750723361969
 33
0.03640899062156677
  0
3DFACE
  8
0
 10
-0.30168288946151733
 20
-0.23344558477401733
 30
0.13214431703090668
 11
-0.26896023750305176
 21
-0.2708280384540558
 31
0.13214431703090668
 12
-0.10885025560855865
 22
-0.11119309812784195
 32
0.03640899062156677
 13
-0.10885025560855865
 23
-0.11119309812784195
 33
0.03640899062156677
  0
3DFACE
  8
0
 10
-0.30168288946151733
 20
-0.23344558477401733
 30
0.13214431703090668
 11
-0.10885025560855865
 21
-0.11119309812784195
 31
0.03640899062156677
 12
-0.13315218687057495
 22
-0.07900355756282806
 32
0.03640899062156677
 13
-0.3292446434497833
 23
-0.1921130120754242
 33
0.13214431703090668
  0
3DFACE
  8
0
 10
0.35060152411460876
 20
-0.1481853723526001
 30
0.13214431703090668
 11
0.3666151463985443
 21
-0.10115702450275421
 31
0.13214431703090668
 12
0.13834676146507263
 22
-0.039467550814151764
 32
0.03640899062156677
 13
0.125555619597435
 23
-0.0747472420334816
 33
0.03640899062156677
  0
3DFACE
  8
0
 10
0.35060152411460876
 20
-0.1481853723526001
 30
0.13214431703090668
 11
0.125555619597435
 21
-0.0747472420334816
 31
0.03640899062156677
 12
0.3285880386829376
 22
-0.19272245466709137
 32
0.13214431703090668
 13
0.3285880386829376
 23
-0.19272245466709137
 33
0.13214431703090668
  0
3DFACE
  8
0
 10
0.30137670040130615
 20
0.22841107845306396
 30
0.13214431703090668
 11
0.2686556577682495
 21
0.26579248905181885
 31
0.13214431703090668
 12
0.11099502444267273
 22
0.08256427198648453
 32
0.03640899062156677
 13
0.11099502444267273
 23
0.08256427198648453
 33
0.03640899062156677
  0
3DFACE
  8
0
 10
0.30137670040130615
 20
0.22841107845306396
 30
0.13214431703090668
 11
0.11099502444267273
 21
0.08256427198648453
 31
0.03640899062156677
 12
0.12958794832229614
 22
0.051264118403196335
 32
0.03640899062156677
 13
0.3289400339126587
 23
0.1870773434638977
 33
0.13214431703090668
  0
3DFACE
  8
0
 10
-0.376749724149704
 20
-0.05174214765429497
 30
0.13214431703090668
 11
-0.3671019673347473
 21
-0.10047733783721924
 31
0.13214431703090668
 12
-0.14774122834205627
 22
-0.04156895726919174
 32
0.03640899062156677
 13
-0.14774122834205627
 23
-0.04156895726919174
 33
0.03640899062156677
  0
3DFACE
  8
0
 10
-0.376749724149704
 20
-0.05174214765429497
 30
0.13214431703090668
 11
-0.14774122834205627
 21
-0.04156895726919174
 31
0.03640899062156677
 12
-0.15164774656295776
 22
-0.0018793446943163872
 32
0.03640899062156677
 13
-0.3799522817134857
 23
-0.002165846759453416
 33
0.13214431703090668
  0
3DFACE
  8
0
 10
0.0497695654630661
 20
0.3739875853061676
 30
0.13214431703090668
 11
0.00019952979346271604
 21
0.37728220224380493
 31
0.13214431703090668
 12
0.018985943868756294
 22
0.13735370337963104
 32
0.03640899062156677
 13
0.018985943868756294
 23
0.13735370337963104
 33
0.03640899062156677
  0
3DFACE
  8
0
 10
0.0497695654630661
 20
0.3739875853061676
 30
0.13214431703090668
 11
0.018985943868756294
 21
0.13735370337963104
 31
0.03640899062156677
 12
0.0984870046377182
 22
0.3642497658729553
 32
0.13214431703090668
 13
0.0984870046377182
 23
0.3642497658729553
 33
0.13214431703090668
  0
3DFACE
  8
0
 10
0.37644344568252563
 20
0.0467078723013401
 30
0.13214431703090668
 11
0.3667972981929779
 21
0.09544186294078827
 31
0.13214431703090668
 12
0.13993431627750397
 22
0.016179284080863
 32
0.03640899062156677
 13
0.13993431627750397
 23
0.016179284080863
 33
0.03640899062156677
  0
3DFACE
  8
0
 10
0.37644344568252563
 20
0.0467078723013401
 30
0.13214431703090668
 11
0.13993431627750397
 21
0.016179284080863
 31
0.03640899062156677
 12
0.37964755296707153
 22
-0.0028695042710751295
 32
0.13214431703090668
 13
0.37964755296707153
 23
-0.0028695042710751295
 33
0.13214431703090668
  0
3DFACE
  8
0
 10
0.04907183721661568
 20
-0.3791137635707855
 30
0.13214431703090668
 11
0.09780716150999069
 21
-0.3694673180580139
 31
0.13214431703090668
 12
0.03928394615650177
 22
-0.14747154712677002
 32
0.03640899062156677
 13
0.0003840741701424122
 23
-0.15419407188892365
 33
0.03640899062156677
  0
3DFACE
  8
0
 10
0.04907183721661568
 20
-0.3791137635707855
 30
0.13214431703090668
 11
0.0003840741701424122
 21
-0.15419407188892365
 31
0.03640899062156677
 12
-0.0005041647818870842
 22
-0.38231760263442993
 32
0.13214431703090668
 13
-0.0005041647818870842
 23
-0.38231760263442993
 33
0.13214431703090668
  0
3DFACE
  8
0
 10
0.23077510297298431
 20
-0.30404695868492126
 30
0.13214431703090668
 11
0.26815786957740784
 21
-0.27132564783096313
 31
0.13214431703090668
 12
0.10392607748508453
 22
-0.10597817599773407
 32
0.03640899062156677
 13
0.07458236813545227
 23
-0.1308886855840683
 33
0.03640899062156677
  0
3DFACE
  8
0
 10
0.23077510297298431
 20
-0.30404695868492126
 30
0.13214431703090668
 11
0.07458236813545227
 21
-0.1308886855840683
 31
0.03640899062156677
 12
0.1894426941871643
 22
-0.3316100835800171
 32
0.13214431703090668
 13
0.1894426941871643
 23
-0.3316100835800171
 33
0.13214431703090668
  0
3DFACE
  8
0
 10
-0.04937812685966492
 20
0.37407949566841125
 30
0.13214431703090668
 11
-0.09811194241046906
 21
0.3644319474697113
 31
0.13214431703090668
 12
-0.03666652366518974
 22
0.13586947321891785
 32
0.03640899062156677
 13
-0.03666652366518974
 23
0.13586947321891785
 33
0.03640899062156677
  0
3DFACE
  8
0
 10
-0.04937812685966492
 20
0.37407949566841125
 30
0.13214431703090668
 11
-0.03666652366518974
 21
0.13586947321891785
 31
0.03640899062156677
 12
0.018985943868756294
 22
0.13735370337963104
 32
0.03640899062156677
 13
0.00019952979346271604
 23
0.37728220224380493
 33
0.13214431703090668
  0
3DFACE
  8
0
 10
-0.2310815304517746
 20
0.29901260137557983
 30
0.13214431703090668
 11
-0.2684626281261444
 21
0.26629024744033813
 31
0.13214431703090668
 12
-0.10324011743068695
 22
0.10157224535942078
 32
0.03640899062156677
 13
-0.10324011743068695
 23
0.10157224535942078
 33
0.03640899062156677
  0
3DFACE
  8
0
 10
-0.2310815304517746
 20
0.29901260137557983
 30
0.13214431703090668
 11
-0.10324011743068695
 21
0.10157224535942078
 31
0.03640899062156677
 12
-0.07196951657533646
 22
0.12314369529485703
 32
0.03640899062156677
 13
-0.1897476613521576
 23
0.32657456398010254
 33
0.13214431703090668
  0
3DFACE
  8
0
 10
-0.3509078621864319
 20
0.1431511789560318
 30
0.13214431703090668
 11
-0.3669198453426361
 21
0.0961216613650322
 31
0.13214431703090668
 12
-0.14485299587249756
 22
0.03700771927833557
 32
0.03640899062156677
 13
-0.14485299587249756
 23
0.03700771927833557
 33
0.03640899062156677
  0
3DFACE
  8
0
 10
-0.3509078621864319
 20
0.1431511789560318
 30
0.13214431703090668
 11
-0.14485299587249756
 21
0.03700771927833557
 31
0.03640899062156677
 12
-0.12820473313331604
 22
0.0722750723361969
 32
0.03640899062156677
 13
-0.32889270782470703
 23
0.18768711388111115
 33
0.13214431703090668
  0
3DFACE
  8
0
 10
0.3943079710006714
 20
0.29958173632621765
 30
0.13019528985023499
 11
0.3545357882976532
 21
0.35151344537734985
 31
0.13017597794532776
 12
0.2686556577682495
 22
0.26579248905181885
 32
0.13214431703090668
 13
0.30137670040130615
 23
0.22841107845306396
 33
0.13214431703090668
  0
3DFACE
  8
0
 10
0.3026779294013977
 20
0.39138180017471313
 30
0.1301557868719101
 11
0.2508200407028198
 21
0.4312502145767212
 31
0.13013559579849243
 12
0.19005243480205536
 22
0.3262227177619934
 32
0.13214431703090668
 13
0.2313336282968521
 23
0.29858413338661194
 33
0.13214431703090668
  0
3DFACE
  8
0
 10
0.3026779294013977
 20
0.39138180017471313
 30
0.1301557868719101
 11
0.2313336282968521
 21
0.29858413338661194
 31
0.13214431703090668
 12
0.2686556577682495
 22
0.26579248905181885
 32
0.13214431703090668
 13
0.3545357882976532
 23
0.35151344537734985
 33
0.13017597794532776
  0
3DFACE
  8
0
 10
0.06515645980834961
 20
0.4900244176387787
 30
0.1300782710313797
 11
0.0497695654630661
 21
0.3739875853061676
 31
0.13214431703090668
 12
0.0984870046377182
 22
0.3642497658729553
 32
0.13214431703090668
 13
0.13000088930130005
 23
0.48142632842063904
 33
0.13009613752365112
  0
3DFACE
  8
0
 10
-0.45900824666023254
 20
0.18804499506950378
 30
0.1299997866153717
 11
-0.4840962886810303
 21
0.12763535976409912
 31
0.13000422716140747
 12
-0.3669198453426361
 22
0.0961216613650322
 32
0.13214431703090668
 13
-0.3509078621864319
 23
0.1431511789560318
 33
0.13214431703090668
  0
3DFACE
  8
0
 10
0.16226086020469666
 20
-0.08958940953016281
 30
0.4431785047054291
 11
0.18566423654556274
 21
0.001386527786962688
 31
0.4431785047054291
 12
0.11608323454856873
 22
0.0022782105952501297
 32
0.5023130178451538
 13
0.09993059933185577
 23
-0.05352868512272835
 33
0.5023130178451538
  0
3DFACE
  8
0
 10
0.16197234392166138
 20
0.09382966160774231
 30
0.4431785047054291
 11
0.10000906139612198
 21
0.05810744687914848
 31
0.5023130178451538
 12
0.11608323454856873
 22
0.0022782105952501297
 32
0.5023130178451538
 13
0.18566423654556274
 23
0.001386527786962688
 33
0.4431785047054291
  0
3DFACE
  8
0
 10
0.16226086020469666
 20
-0.08958940953016281
 30
0.4431785047054291
 11
0.09993059933185577
 21
-0.05352868512272835
 31
0.5023130178451538
 12
0.059617750346660614
 22
-0.09536412358283997
 32
0.5023130178451538
 13
0.09259044378995895
 23
-0.15792185068130493
 33
0.4431785047054291
  0
3DFACE
  8
0
 10
0.0031461953185498714
 20
-0.1822928786277771
 30
0.4431785047054291
 11
0.09259044378995895
 21
-0.15792185068130493
 31
0.4431785047054291
 12
0.059617750346660614
 22
-0.09536412358283997
 32
0.5023130178451538
 13
0.0032113026827573776
 23
-0.10927896201610565
 33
0.5023130178451538
  0
3DFACE
  8
0
 10
0.003400550689548254
 20
0.18602915108203888
 30
0.4431785047054291
 11
-0.09325623512268066
 21
0.15839333832263947
 31
0.4431785047054291
 12
-0.05303828418254852
 22
0.10007843375205994
 32
0.5023130178451538
 13
0.0033681150525808334
 23
0.11399324238300323
 33
0.5023130178451538
  0
3DFACE
  8
0
 10
-0.1565842628479004
 20
0.0947985053062439
 30
0.4431785047054291
 11
-0.09335076808929443
 21
0.05824321135878563
 31
0.5023130178451538
 12
-0.05303828418254852
 22
0.10007843375205994
 32
0.5023130178451538
 13
-0.09325623512268066
 23
0.15839333832263947
 33
0.4431785047054291
  0
3DFACE
  8
0
 10
0.7995264530181885
 20
-0.3346267342567444
 30
0.09268945455551147
 11
0.7558043599128723
 21
-0.4399052560329437
 31
0.09269718825817108
 12
0.7746999859809875
 22
-0.4508286416530609
 32
0.3808818757534027
 13
0.8265621066093445
 23
-0.3458333909511566
 33
0.38087624311447144
  0
3DFACE
  8
0
 10
-0.5278985500335693
 20
-0.6889914274215698
 30
0.09241747111082077
 11
-0.3029823303222656
 21
-0.39641743898391724
 31
0.13014325499534607
 12
-0.35484015941619873
 22
-0.35654914379119873
 32
0.1301230639219284
 13
-0.6182735562324524
 23
-0.619511067867279
 33
0.09238225221633911
  0
3DFACE
  8
0
 10
-0.5278985500335693
 20
-0.6889914274215698
 30
0.09241747111082077
 11
-0.43752360343933105
 21
-0.7584717869758606
 31
0.09245267510414124
 12
-0.2511245012283325
 22
-0.43628570437431335
 32
0.13016346096992493
 13
-0.3029823303222656
 23
-0.39641743898391724
 33
0.13014325499534607
  0
3DFACE
  8
0
 10
0.8001407980918884
 20
0.3280951976776123
 30
0.09257155656814575
 11
0.45905616879463196
 21
0.18719419836997986
 31
0.13023167848587036
 12
0.48403215408325195
 22
0.12673838436603546
 32
0.1302487552165985
 13
0.8436676263809204
 23
0.22273609042167664
 33
0.09260132163763046
  0
3DFACE
  8
0
 10
-0.3307628333568573
 20
0.797758936882019
 30
0.09220235049724579
 11
-0.1898644119501114
 21
0.45669060945510864
 31
0.13001981377601624
 12
-0.12940843403339386
 22
0.481666624546051
 32
0.13003063201904297
 13
-0.22540344297885895
 23
0.8412858247756958
 33
0.09222117811441422
  0
3DFACE
  8
0
 10
-0.3307628333568573
 20
0.797758936882019
 30
0.09220235049724579
 11
-0.43612223863601685
 21
0.7542319893836975
 31
0.09218350052833557
 12
-0.2503203749656677
 22
0.4317145347595215
 32
0.1300090104341507
 13
-0.1898644119501114
 23
0.45669060945510864
 33
0.13001981377601624
  0
3DFACE
  8
0
 10
-0.8585184812545776
 20
0.11129191517829895
 30
0.09219148755073547
 11
-0.4926943778991699
 21
0.06279091536998749
 31
0.1300135850906372
 12
-0.4840962886810303
 22
0.12763535976409912
 32
0.13000422716140747
 13
-0.8435342311859131
 23
0.22429926693439484
 33
0.09217515587806702
  0
3DFACE
  8
0
 10
-0.8585184812545776
 20
0.11129191517829895
 30
0.09219148755073547
 11
-0.8735027313232422
 21
-0.0017154380911961198
 31
0.09220778942108154
 12
-0.5012924671173096
 22
-0.002053517382591963
 32
0.13002295792102814
 13
-0.4926943778991699
 23
0.06279091536998749
 33
0.1300135850906372
  0
3DFACE
  8
0
 10
-0.4928145408630371
 20
-0.06691376119852066
 30
0.13003666698932648
 11
-0.376749724149704
 21
-0.05174214765429497
 31
0.13214431703090668
 12
-0.3799522817134857
 22
-0.002165846759453416
 32
0.13214431703090668
 13
-0.5012924671173096
 23
-0.002053517382591963
 33
0.13002295792102814
  0
3DFACE
  8
0
 10
-0.6875863075256348
 20
-0.5290075540542603
 30
0.09234869480133057
 11
-0.6182735562324524
 21
-0.619511067867279
 31
0.09238225221633911
 12
-0.35484015941619873
 22
-0.35654914379119873
 32
0.1301230639219284
 13
-0.39461231231689453
 23
-0.3046175241470337
 33
0.13010379672050476
  0
3DFACE
  8
0
 10
-0.6875863075256348
 20
-0.5290075540542603
 30
0.09234869480133057
 11
-0.39461231231689453
 21
-0.3046175241470337
 31
0.13010379672050476
 12
-0.4343845248222351
 22
-0.25268590450286865
 32
0.1300845444202423
 13
-0.7568991184234619
 23
-0.4385039806365967
 33
0.09231510758399963
  0
3DFACE
  8
0
 10
0.6873011589050293
 20
0.523958146572113
 30
0.09250813722610474
 11
0.6179883480072021
 21
0.6144619584083557
 31
0.09247450530529022
 12
0.3545357882976532
 22
0.35151344537734985
 32
0.13017597794532776
 13
0.3943079710006714
 23
0.29958173632621765
 33
0.13019528985023499
  0
3DFACE
  8
0
 10
0.6873011589050293
 20
0.523958146572113
 30
0.09250813722610474
 11
0.3943079710006714
 21
0.29958173632621765
 31
0.13019528985023499
 12
0.43408018350601196
 22
0.24765001237392426
 32
0.1302146017551422
 13
0.7566139698028564
 23
0.43345433473587036
 33
0.09254176914691925
  0
3DFACE
  8
0
 10
-0.7998120784759521
 20
0.32957789301872253
 30
0.09216742217540741
 11
-0.8435342311859131
 21
0.22429926693439484
 31
0.09217515587806702
 12
-0.4840962886810303
 22
0.12763535976409912
 32
0.13000422716140747
 13
-0.45900824666023254
 23
0.18804499506950378
 33
0.1299997866153717
  0
3DFACE
  8
0
 10
-0.7998120784759521
 20
0.32957789301872253
 30
0.09216742217540741
 11
-0.45900824666023254
 21
0.18804499506950378
 31
0.1299997866153717
 12
-0.4339202046394348
 22
0.24845461547374725
 32
0.12999534606933594
 13
-0.756089985370636
 23
0.4348565340042114
 33
0.092159703373909
  0
3DFACE
  8
0
 10
-0.7998120784759521
 20
0.32957789301872253
 30
0.09216742217540741
 11
-0.8269933462142944
 21
0.3408873379230499
 31
0.3803365230560303
 12
-0.8647696375846863
 22
0.23004215955734253
 32
0.38034677505493164
 13
-0.8435342311859131
 23
0.22429926693439484
 33
0.09217515587806702
  0
3DFACE
  8
0
 10
0.8584423661231995
 20
0.10970129072666168
 30
0.09262514114379883
 11
0.8732171058654785
 21
-0.0033335110638290644
 31
0.0926489531993866
 12
0.8950588703155518
 22
-0.0033024498261511326
 32
0.3808324933052063
 13
0.8874751925468445
 23
0.11355706304311752
 33
0.3808097839355469
  0
3DFACE
  8
0
 10
-0.8004261255264282
 20
-0.3331446349620819
 30
0.09228533506393433
 11
-0.8276281356811523
 21
-0.34430116415023804
 31
0.38045844435691833
 12
-0.7759605646133423
 22
-0.4493923783302307
 32
0.380490243434906
 13
-0.7568991184234619
 23
-0.4385039806365967
 33
0.09231510758399963
  0
3DFACE
  8
0
 10
-0.8004261255264282
 20
-0.3331446349620819
 30
0.09228533506393433
 11
-0.8439530730247498
 21
-0.22778527438640594
 31
0.09225554764270782
 12
-0.8651989698410034
 22
-0.23338615894317627
 32
0.380429208278656
 13
-0.8276281356811523
 23
-0.34430116415023804
 33
0.38045844435691833
  0
3DFACE
  8
0
 10
0.5263398289680481
 20
-0.6899682879447937
 30
0.09268373250961304
 11
0.4358360171318054
 21
-0.7592810988426208
 31
0.09267327189445496
 12
0.4467029869556427
 22
-0.7782183885574341
 32
0.3808574378490448
 13
0.5441145300865173
 23
-0.7132208347320557
 33
0.3808704614639282
  0
3DFACE
  8
0
 10
0.5263398289680481
 20
-0.6899682879447937
 30
0.09268373250961304
 11
0.5441145300865173
 21
-0.7132208347320557
 31
0.3808704614639282
 12
0.6322523355484009
 22
-0.636114239692688
 32
0.3808789551258087
 13
0.6168436408042908
 23
-0.6206554770469666
 33
0.0926942229270935
  0
3DFACE
  8
0
 10
0.11208296567201614
 20
-0.8611094951629639
 30
0.092609703540802
 11
0.11581464111804962
 21
-0.8901638388633728
 31
0.38079380989074707
 12
0.23069725930690765
 22
-0.8674565553665161
 32
0.38081878423690796
 13
0.22511769831180573
 23
-0.8463348150253296
 33
0.09263558685779572
  0
3DFACE
  8
0
 10
-0.5266257524490356
 20
0.6849192380905151
 30
0.0921730250120163
 11
-0.43612223863601685
 21
0.7542319893836975
 31
0.09218350052833557
 12
-0.4471345543861389
 22
0.7732720971107483
 32
0.3803554177284241
 13
-0.5445460081100464
 23
0.7082746028900146
 33
0.38034236431121826
  0
3DFACE
  8
0
 10
-0.5266257524490356
 20
0.6849192380905151
 30
0.0921730250120163
 11
-0.5445460081100464
 21
0.7082746028900146
 31
0.38034236431121826
 12
-0.6326836943626404
 22
0.6311681270599365
 32
0.3803338408470154
 13
-0.6171293258666992
 23
0.6156064867973328
 33
0.09216253459453583
  0
3DFACE
  8
0
 10
0.6863240003585815
 20
-0.530280351638794
 30
0.09269571304321289
 11
0.7095221281051636
 21
-0.5481195449829102
 31
0.38088276982307434
 12
0.7746999859809875
 22
-0.4508286416530609
 32
0.3808818757534027
 13
0.7558043599128723
 23
-0.4399052560329437
 33
0.09269718825817108
  0
3DFACE
  8
0
 10
0.6863240003585815
 20
-0.530280351638794
 30
0.09269571304321289
 11
0.6168436408042908
 21
-0.6206554770469666
 31
0.0926942229270935
 12
0.6322523355484009
 22
-0.636114239692688
 32
0.3808789551258087
 13
0.7095221281051636
 23
-0.5481195449829102
 33
0.38088276982307434
  0
3DFACE
  8
0
 10
-0.6866096258163452
 20
0.5252314805984497
 30
0.09216111898422241
 11
-0.6171293258666992
 21
0.6156064867973328
 31
0.09216253459453583
 12
-0.6326836943626404
 22
0.6311681270599365
 32
0.3803338408470154
 13
-0.7099533081054688
 23
0.5431734919548035
 33
0.38033002614974976
  0
3DFACE
  8
0
 10
-0.8587279319763184
 20
-0.11475035548210144
 30
0.09223167598247528
 11
-0.8879063129425049
 21
-0.11850333958864212
 31
0.38040295243263245
 12
-0.8651989698410034
 22
-0.23338615894317627
 32
0.380429208278656
 13
-0.8439530730247498
 23
-0.22778527438640594
 33
0.09225554764270782
  0
3DFACE
  8
0
 10
0.8001407980918884
 20
0.3280951976776123
 30
0.09257155656814575
 11
0.8271971940994263
 21
0.33935439586639404
 31
0.38075435161590576
 12
0.7755298614501953
 22
0.4444453716278076
 32
0.3807225525379181
 13
0.7566139698028564
 23
0.43345433473587036
 33
0.09254176914691925
  0
3DFACE
  8
0
 10
0.6873011589050293
 20
0.523958146572113
 30
0.09250813722610474
 11
0.7566139698028564
 21
0.43345433473587036
 31
0.09254176914691925
 12
0.7755298614501953
 22
0.4444453716278076
 32
0.3807225525379181
 13
0.7105323672294617
 23
0.5418569445610046
 33
0.38068878650665283
  0
3DFACE
  8
0
 10
-0.8004261255264282
 20
-0.3331446349620819
 30
0.09228533506393433
 11
-0.4593605697154999
 21
-0.19222994148731232
 31
0.13006745278835297
 12
-0.48433661460876465
 22
-0.13177399337291718
 32
0.13005037605762482
 13
-0.8439530730247498
 23
-0.22778527438640594
 33
0.09225554764270782
  0
3DFACE
  8
0
 10
-0.8004261255264282
 20
-0.3331446349620819
 30
0.09228533506393433
 11
-0.7568991184234619
 21
-0.4385039806365967
 31
0.09231510758399963
 12
-0.4343845248222351
 22
-0.25268590450286865
 32
0.1300845444202423
 13
-0.4593605697154999
 23
-0.19222994148731232
 33
0.13006745278835297
  0
3DFACE
  8
0
 10
0.6863240003585815
 20
-0.530280351638794
 30
0.09269571304321289
 11
0.3937472701072693
 21
-0.30534785985946655
 31
0.13030292093753815
 12
0.3538789749145508
 22
-0.35720574855804443
 32
0.1303020715713501
 13
0.6168436408042908
 23
-0.6206554770469666
 33
0.0926942229270935
  0
3DFACE
  8
0
 10
0.858232855796814
 20
-0.11634086072444916
 30
0.09266534447669983
 11
0.4923897981643677
 21
-0.06782639771699905
 31
0.13028550148010254
 12
0.483791708946228
 22
-0.1326708197593689
 32
0.13029488921165466
 13
0.8432486057281494
 23
-0.22934821248054504
 33
0.09268171340227127
  0
3DFACE
  8
0
 10
0.858232855796814
 20
-0.11634086072444916
 30
0.09266534447669983
 11
0.8732171058654785
 21
-0.0033335110638290644
 31
0.0926489531993866
 12
0.5009878873825073
 22
-0.0029819791670888662
 32
0.13027611374855042
 13
0.4923897981643677
 23
-0.06782639771699905
 33
0.13028550148010254
  0
3DFACE
  8
0
 10
-0.1139591708779335
 20
-0.8609001636505127
 30
0.09255261719226837
 11
-0.0654609277844429
 21
-0.4950598478317261
 31
0.13022080063819885
 12
-0.13030537962913513
 22
-0.4864618182182312
 32
0.13020290434360504
 13
-0.22696657478809357
 23
-0.8459160327911377
 33
0.09252141416072845
  0
3DFACE
  8
0
 10
-0.1139591708779335
 20
-0.8609001636505127
 30
0.09255261719226837
 11
-0.000951766618527472
 21
-0.8758842349052429
 31
0.0925838053226471
 12
-0.0006164650549180806
 22
-0.503657877445221
 32
0.13023871183395386
 13
-0.0654609277844429
 23
-0.4950598478317261
 33
0.13022080063819885
  0
3DFACE
  8
0
 10
-0.39461231231689453
 20
-0.3046175241470337
 30
0.13010379672050476
 11
-0.35484015941619873
 21
-0.35654914379119873
 31
0.1301230639219284
 12
-0.26896023750305176
 22
-0.2708280384540558
 32
0.13214431703090668
 13
-0.30168288946151733
 23
-0.23344558477401733
 33
0.13214431703090668
  0
3DFACE
  8
0
 10
-0.39461231231689453
 20
-0.3046175241470337
 30
0.13010379672050476
 11
-0.30168288946151733
 21
-0.23344558477401733
 31
0.13214431703090668
 12
-0.3292446434497833
 22
-0.1921130120754242
 32
0.13214431703090668
 13
-0.4343845248222351
 23
-0.25268590450286865
 33
0.1300845444202423
  0
3DFACE
  8
0
 10
0.330476850271225
 20
-0.8028079271316528
 30
0.09265443682670593
 11
0.189559668302536
 21
-0.4617261290550232
 31
0.13027922809123993
 12
0.12910382449626923
 22
-0.4867021441459656
 32
0.1302684247493744
 13
0.22511769831180573
 23
-0.8463348150253296
 33
0.09263558685779572
  0
3DFACE
  8
0
 10
0.330476850271225
 20
-0.8028079271316528
 30
0.09265443682670593
 11
0.4358360171318054
 21
-0.7592810988426208
 31
0.09267327189445496
 12
0.2500154972076416
 22
-0.4367501139640808
 32
0.13029003143310547
 13
0.189559668302536
 23
-0.4617261290550232
 33
0.13027922809123993
  0
3DFACE
  8
0
 10
-0.6866096258163452
 20
0.5252314805984497
 30
0.09216111898422241
 11
-0.756089985370636
 21
0.4348565340042114
 31
0.092159703373909
 12
-0.4339202046394348
 22
0.24845461547374725
 32
0.12999534606933594
 13
-0.3940519094467163
 23
0.30031242966651917
 33
0.1299961656332016
  0
3DFACE
  8
0
 10
0.19041046500205994
 20
0.4563382565975189
 30
0.13011586666107178
 11
0.14551512897014618
 21
0.3482375741004944
 31
0.13214431703090668
 12
0.19005243480205536
 22
0.3262227177619934
 32
0.13214431703090668
 13
0.2508200407028198
 23
0.4312502145767212
 33
0.13013559579849243
  0
3DFACE
  8
0
 10
0.06515645980834961
 20
0.4900244176387787
 30
0.1300782710313797
 11
0.0003120419569313526
 21
0.4986225366592407
 31
0.13006040453910828
 12
0.00019952979346271604
 22
0.37728220224380493
 32
0.13214431703090668
 13
0.0497695654630661
 23
0.3739875853061676
 33
0.13214431703090668
  0
3DFACE
  8
0
 10
0.06424367427825928
 20
-0.49518001079559326
 30
0.13025356829166412
 11
0.12910382449626923
 21
-0.4867021441459656
 31
0.1302684247493744
 12
0.09780716150999069
 22
-0.3694673180580139
 32
0.13214431703090668
 13
0.04907183721661568
 23
-0.3791137635707855
 33
0.13214431703090668
  0
3DFACE
  8
0
 10
0.06424367427825928
 20
-0.49518001079559326
 30
0.13025356829166412
 11
0.04907183721661568
 21
-0.3791137635707855
 31
0.13214431703090668
 12
-0.0005041647818870842
 22
-0.38231760263442993
 32
0.13214431703090668
 13
-0.0006164650549180806
 23
-0.503657877445221
 33
0.13023871183395386
  0
3DFACE
  8
0
 10
0.7995264530181885
 20
-0.3346267342567444
 30
0.09268945455551147
 11
0.8432486057281494
 21
-0.22934821248054504
 31
0.09268171340227127
 12
0.483791708946228
 22
-0.1326708197593689
 32
0.13029488921165466
 13
0.4587036371231079
 23
-0.19308039546012878
 33
0.13029932975769043
  0
3DFACE
  8
0
 10
0.7995264530181885
 20
-0.3346267342567444
 30
0.09268945455551147
 11
0.4587036371231079
 21
-0.19308039546012878
 31
0.13029932975769043
 12
0.4336155652999878
 22
-0.25348997116088867
 32
0.1303037703037262
 13
0.7558043599128723
 23
-0.4399052560329437
 33
0.09269718825817108
  0
3DFACE
  8
0
 10
-0.3322450816631317
 20
-0.8021938800811768
 30
0.09248702228069305
 11
-0.22696657478809357
 21
-0.8459160327911377
 31
0.09252141416072845
 12
-0.13030537962913513
 22
-0.4864618182182312
 32
0.13020290434360504
 13
-0.19071494042873383
 23
-0.4613737463951111
 33
0.13018319010734558
  0
3DFACE
  8
0
 10
-0.3322450816631317
 20
-0.8021938800811768
 30
0.09248702228069305
 11
-0.19071494042873383
 21
-0.4613737463951111
 31
0.13018319010734558
 12
-0.2511245012283325
 22
-0.43628570437431335
 32
0.13016346096992493
 13
-0.43752360343933105
 23
-0.7584717869758606
 33
0.09245267510414124
  0
3DFACE
  8
0
 10
0.5263398289680481
 20
-0.6899682879447937
 30
0.09268373250961304
 11
0.6168436408042908
 21
-0.6206554770469666
 31
0.0926942229270935
 12
0.3538789749145508
 22
-0.35720574855804443
 32
0.1303020715713501
 13
0.3019472360610962
 23
-0.39697790145874023
 33
0.13029605150222778
  0
3DFACE
  8
0
 10
0.5263398289680481
 20
-0.6899682879447937
 30
0.09268373250961304
 11
0.3019472360610962
 21
-0.39697790145874023
 31
0.13029605150222778
 12
0.2500154972076416
 22
-0.4367501139640808
 32
0.13029003143310547
 13
0.4358360171318054
 23
-0.7592810988426208
 33
0.09267327189445496
  0
3DFACE
  8
0
 10
-0.1898644119501114
 20
0.45669060945510864
 30
0.13001981377601624
 11
-0.14517122507095337
 21
0.3485068380832672
 31
0.13214431703090668
 12
-0.09811194241046906
 22
0.3644319474697113
 32
0.13214431703090668
 13
-0.12940843403339386
 23
0.481666624546051
 33
0.13003063201904297
  0
3DFACE
  8
0
 10
-0.4926943778991699
 20
0.06279091536998749
 30
0.1300135850906372
 11
-0.3766578733921051
 21
0.047405559569597244
 31
0.13214431703090668
 12
-0.3669198453426361
 22
0.0961216613650322
 32
0.13214431703090668
 13
-0.4840962886810303
 23
0.12763535976409912
 33
0.13000422716140747
  0
3DFACE
  8
0
 10
-0.4926943778991699
 20
0.06279091536998749
 30
0.1300135850906372
 11
-0.5012924671173096
 21
-0.002053517382591963
 31
0.13002295792102814
 12
-0.3799522817134857
 22
-0.002165846759453416
 32
0.13214431703090668
 13
-0.3766578733921051
 23
0.047405559569597244
 33
0.13214431703090668
  0
3DFACE
  8
0
 10
-0.3940519094467163
 20
0.30031242966651917
 30
0.1299961656332016
 11
-0.30125442147254944
 21
0.22896963357925415
 31
0.13214431703090668
 12
-0.2684626281261444
 22
0.26629024744033813
 32
0.13214431703090668
 13
-0.3541836142539978
 23
0.3521702289581299
 33
0.12999698519706726
  0
3DFACE
  8
0
 10
-0.3940519094467163
 20
0.30031242966651917
 30
0.1299961656332016
 11
-0.4339202046394348
 21
0.24845461547374725
 31
0.12999534606933594
 12
-0.32889270782470703
 22
0.18768711388111115
 32
0.13214431703090668
 13
-0.30125442147254944
 23
0.22896963357925415
 33
0.13214431703090668
  0
3DFACE
  8
0
 10
0.5276132822036743
 20
0.6839423775672913
 30
0.09243930876255035
 11
0.4372381567955017
 21
0.7534227967262268
 31
0.09240409731864929
 12
0.2508200407028198
 22
0.4312502145767212
 32
0.13013559579849243
 13
0.3026779294013977
 23
0.39138180017471313
 33
0.1301557868719101
  0
3DFACE
  8
0
 10
0.5276132822036743
 20
0.6839423775672913
 30
0.09243930876255035
 11
0.3026779294013977
 21
0.39138180017471313
 31
0.1301557868719101
 12
0.3545357882976532
 22
0.35151344537734985
 32
0.13017597794532776
 13
0.6179883480072021
 23
0.6144619584083557
 33
0.09247450530529022
  0
3DFACE
  8
0
 10
-0.8587279319763184
 20
-0.11475035548210144
 30
0.09223167598247528
 11
-0.8439530730247498
 21
-0.22778527438640594
 31
0.09225554764270782
 12
-0.48433661460876465
 22
-0.13177399337291718
 32
0.13005037605762482
 13
-0.4928145408630371
 23
-0.06691376119852066
 33
0.13003666698932648
  0
3DFACE
  8
0
 10
-0.8587279319763184
 20
-0.11475035548210144
 30
0.09223167598247528
 11
-0.4928145408630371
 21
-0.06691376119852066
 31
0.13003666698932648
 12
-0.5012924671173096
 22
-0.002053517382591963
 32
0.13002295792102814
 13
-0.8735027313232422
 23
-0.0017154380911961198
 33
0.09220778942108154
  0
3DFACE
  8
0
 10
0.33195960521698
 20
0.797144889831543
 30
0.09236973524093628
 11
0.22668106853961945
 21
0.8408670425415039
 31
0.09233535826206207
 12
0.13000088930130005
 22
0.48142632842063904
 32
0.13009613752365112
 13
0.19041046500205994
 23
0.4563382565975189
 33
0.13011586666107178
  0
3DFACE
  8
0
 10
0.33195960521698
 20
0.797144889831543
 30
0.09236973524093628
 11
0.19041046500205994
 21
0.4563382565975189
 31
0.13011586666107178
 12
0.2508200407028198
 22
0.4312502145767212
 32
0.13013559579849243
 13
0.4372381567955017
 23
0.7534227967262268
 33
0.09240409731864929
  0
3DFACE
  8
0
 10
0.11367372423410416
 20
0.8558512926101685
 30
0.09230422228574753
 11
0.0006663849926553667
 21
0.8708356022834778
 31
0.09227308630943298
 12
0.0003120419569313526
 22
0.4986225366592407
 32
0.13006040453910828
 13
0.06515645980834961
 23
0.4900244176387787
 33
0.1300782710313797
  0
3DFACE
  8
0
 10
0.11367372423410416
 20
0.8558512926101685
 30
0.09230422228574753
 11
0.06515645980834961
 21
0.4900244176387787
 31
0.1300782710313797
 12
0.13000088930130005
 22
0.48142632842063904
 32
0.13009613752365112
 13
0.22668106853961945
 23
0.8408670425415039
 33
0.09233535826206207
  0
3DFACE
  8
0
 10
0.8584423661231995
 20
0.10970129072666168
 30
0.09262514114379883
 11
0.8436676263809204
 21
0.22273609042167664
 31
0.09260132163763046
 12
0.48403215408325195
 22
0.12673838436603546
 32
0.1302487552165985
 13
0.49251002073287964
 23
0.06187820062041283
 33
0.13026243448257446
  0
3DFACE
  8
0
 10
0.8584423661231995
 20
0.10970129072666168
 30
0.09262514114379883
 11
0.49251002073287964
 21
0.06187820062041283
 31
0.13026243448257446
 12
0.5009878873825073
 22
-0.0029819791670888662
 32
0.13027611374855042
 13
0.8732171058654785
 23
-0.0033335110638290644
 33
0.0926489531993866
  0
3DFACE
  8
0
 10
0.11208296567201614
 20
-0.8611094951629639
 30
0.092609703540802
 11
0.22511769831180573
 21
-0.8463348150253296
 31
0.09263558685779572
 12
0.12910382449626923
 22
-0.4867021441459656
 32
0.1302684247493744
 13
0.06424367427825928
 23
-0.49518001079559326
 33
0.13025356829166412
  0
3DFACE
  8
0
 10
0.11208296567201614
 20
-0.8611094951629639
 30
0.092609703540802
 11
0.06424367427825928
 21
-0.49518001079559326
 31
0.13025356829166412
 12
-0.0006164650549180806
 22
-0.503657877445221
 32
0.13023871183395386
 13
-0.000951766618527472
 23
-0.8758842349052429
 33
0.0925838053226471
  0
3DFACE
  8
0
 10
-0.11236853152513504
 20
0.8560607433319092
 30
0.0922471135854721
 11
-0.22540344297885895
 21
0.8412858247756958
 31
0.09222117811441422
 12
-0.12940843403339386
 22
0.481666624546051
 32
0.13003063201904297
 13
-0.06454819440841675
 23
0.4901445806026459
 33
0.13004551827907562
  0
3DFACE
  8
0
 10
-0.11236853152513504
 20
0.8560607433319092
 30
0.0922471135854721
 11
-0.06454819440841675
 21
0.4901445806026459
 31
0.13004551827907562
 12
0.0003120419569313526
 22
0.4986225366592407
 32
0.13006040453910828
 13
0.0006663849926553667
 23
0.8708356022834778
 33
0.09227308630943298
  0
3DFACE
  8
0
 10
-0.5266257524490356
 20
0.6849192380905151
 30
0.0921730250120163
 11
-0.30225199460983276
 21
0.3919423818588257
 31
0.13000300526618958
 12
-0.2503203749656677
 22
0.4317145347595215
 32
0.1300090104341507
 13
-0.43612223863601685
 23
0.7542319893836975
 33
0.09218350052833557
  0
3DFACE
  8
0
 10
0.858232855796814
 20
-0.11634086072444916
 30
0.09266534447669983
 11
0.8872585892677307
 21
-0.12014776468276978
 31
0.3808513283729553
 12
0.8950588703155518
 22
-0.0033024498261511326
 32
0.3808324933052063
 13
0.8732171058654785
 23
-0.0033335110638290644
 33
0.0926489531993866
  0
3DFACE
  8
0
 10
0.858232855796814
 20
-0.11634086072444916
 30
0.09266534447669983
 11
0.8432486057281494
 21
-0.22934821248054504
 31
0.09268171340227127
 12
0.8643383979797363
 22
-0.234988272190094
 32
0.38086605072021484
 13
0.8872585892677307
 23
-0.12014776468276978
 33
0.3808513283729553
  0
3DFACE
  8
0
 10
0.7995264530181885
 20
-0.3346267342567444
 30
0.09268945455551147
 11
0.8265621066093445
 21
-0.3458333909511566
 31
0.38087624311447144
 12
0.8643383979797363
 22
-0.234988272190094
 32
0.38086605072021484
 13
0.8432486057281494
 23
-0.22934821248054504
 33
0.09268171340227127
  0
3DFACE
  8
0
 10
0.4587036371231079
 20
-0.19308039546012878
 30
0.13029932975769043
 11
0.483791708946228
 21
-0.1326708197593689
 31
0.13029488921165466
 12
0.3666151463985443
 22
-0.10115702450275421
 32
0.13214431703090668
 13
0.35060152411460876
 23
-0.1481853723526001
 33
0.13214431703090668
  0
3DFACE
  8
0
 10
0.4587036371231079
 20
-0.19308039546012878
 30
0.13029932975769043
 11
0.35060152411460876
 21
-0.1481853723526001
 31
0.13214431703090668
 12
0.3285880386829376
 22
-0.19272245466709137
 32
0.13214431703090668
 13
0.4336155652999878
 23
-0.25348997116088867
 33
0.1303037703037262
  0
3DFACE
  8
0
 10
-0.4593605697154999
 20
-0.19222994148731232
 30
0.13006745278835297
 11
-0.4343845248222351
 21
-0.25268590450286865
 31
0.1300845444202423
 12
-0.3292446434497833
 22
-0.1921130120754242
 32
0.13214431703090668
 13
-0.3511771559715271
 23
-0.1475352644920349
 33
0.13214431703090668
  0
3DFACE
  8
0
 10
0.45905616879463196
 20
0.18719419836997986
 30
0.13023167848587036
 11
0.35087087750434875
 21
0.14250078797340393
 31
0.13214431703090668
 12
0.3667972981929779
 22
0.09544186294078827
 32
0.13214431703090668
 13
0.48403215408325195
 23
0.12673838436603546
 33
0.1302487552165985
  0
3DFACE
  8
0
 10
0.45905616879463196
 20
0.18719419836997986
 30
0.13023167848587036
 11
0.43408018350601196
 21
0.24765001237392426
 31
0.1302146017551422
 12
0.3289400339126587
 22
0.1870773434638977
 32
0.13214431703090668
 13
0.35087087750434875
 23
0.14250078797340393
 33
0.13214431703090668
  0
3DFACE
  8
0
 10
-0.8585184812545776
 20
0.11129191517829895
 30
0.09219148755073547
 11
-0.8435342311859131
 21
0.22429926693439484
 31
0.09217515587806702
 12
-0.8647696375846863
 22
0.23004215955734253
 32
0.38034677505493164
 13
-0.8876898288726807
 23
0.11520160734653473
 33
0.3803613781929016
  0
3DFACE
  8
0
 10
0.8584423661231995
 20
0.10970129072666168
 30
0.09262514114379883
 11
0.8874751925468445
 21
0.11355706304311752
 31
0.3808097839355469
 12
0.8647679090499878
 22
0.22843968868255615
 32
0.3807836174964905
 13
0.8436676263809204
 23
0.22273609042167664
 33
0.09260132163763046
  0
3DFACE
  8
0
 10
-0.3307628333568573
 20
0.797758936882019
 30
0.09220235049724579
 11
-0.22540344297885895
 21
0.8412858247756958
 31
0.09222117811441422
 12
-0.23112845420837402
 22
0.8625103235244751
 32
0.3803940415382385
 13
-0.342043399810791
 23
0.8249395489692688
 33
0.3803727626800537
  0
3DFACE
  8
0
 10
0.11208296567201614
 20
-0.8611094951629639
 30
0.092609703540802
 11
-0.000951766618527472
 21
-0.8758842349052429
 31
0.0925838053226471
 12
-0.0010448565008118749
 22
-0.8977475166320801
 32
0.3807656466960907
 13
0.11581464111804962
 23
-0.8901638388633728
 33
0.38079380989074707
  0
3DFACE
  8
0
 10
0.330476850271225
 20
-0.8028079271316528
 30
0.09265443682670593
 11
0.34161198139190674
 21
-0.8298858404159546
 31
0.38084009289741516
 12
0.4467029869556427
 22
-0.7782183885574341
 32
0.3808574378490448
 13
0.4358360171318054
 23
-0.7592810988426208
 33
0.09267327189445496
  0
3DFACE
  8
0
 10
0.330476850271225
 20
-0.8028079271316528
 30
0.09265443682670593
 11
0.22511769831180573
 21
-0.8463348150253296
 31
0.09263558685779572
 12
0.23069725930690765
 22
-0.8674565553665161
 32
0.38081878423690796
 13
0.34161198139190674
 23
-0.8298858404159546
 33
0.38084009289741516
  0
3DFACE
  8
0
 10
-0.6866096258163452
 20
0.5252314805984497
 30
0.09216111898422241
 11
-0.7099533081054688
 21
0.5431734919548035
 31
0.38033002614974976
 12
-0.7751311659812927
 22
0.4458826184272766
 32
0.3803309202194214
 13
-0.756089985370636
 23
0.4348565340042114
 33
0.092159703373909
  0
3DFACE
  8
0
 10
-0.11236853152513504
 20
0.8560607433319092
 30
0.0922471135854721
 11
-0.11624564230442047
 21
0.8852176666259766
 31
0.380418986082077
 12
-0.23112845420837402
 22
0.8625103235244751
 32
0.3803940415382385
 13
-0.22540344297885895
 23
0.8412858247756958
 33
0.09222117811441422
  0
3DFACE
  8
0
 10
0.8001407980918884
 20
0.3280951976776123
 30
0.09257155656814575
 11
0.8436676263809204
 21
0.22273609042167664
 31
0.09260132163763046
 12
0.8647679090499878
 22
0.22843968868255615
 32
0.3807836174964905
 13
0.8271971940994263
 23
0.33935439586639404
 33
0.38075435161590576
  0
3DFACE
  8
0
 10
0.6873011589050293
 20
0.523958146572113
 30
0.09250813722610474
 11
0.7105323672294617
 21
0.5418569445610046
 31
0.38068878650665283
 12
0.6334258317947388
 22
0.6299947500228882
 32
0.38065361976623535
 13
0.6179883480072021
 23
0.6144619584083557
 33
0.09247450530529022
  0
3DFACE
  8
0
 10
-0.6875863075256348
 20
-0.5290075540542603
 30
0.09234869480133057
 11
-0.7568991184234619
 21
-0.4385039806365967
 31
0.09231510758399963
 12
-0.7759605646133423
 22
-0.4493923783302307
 32
0.380490243434906
 13
-0.7109631299972534
 23
-0.5468038320541382
 33
0.3805239796638489
  0
3DFACE
  8
0
 10
-0.6875863075256348
 20
-0.5290075540542603
 30
0.09234869480133057
 11
-0.7109631299972534
 21
-0.5468038320541382
 31
0.3805239796638489
 12
-0.6338565945625305
 22
-0.6349413990974426
 32
0.38055917620658875
 13
-0.6182735562324524
 23
-0.619511067867279
 33
0.09238225221633911
  0
3DFACE
  8
0
 10
0.33195960521698
 20
0.797144889831543
 30
0.09236973524093628
 11
0.4372381567955017
 21
0.7534227967262268
 31
0.09240409731864929
 12
0.4481402337551117
 22
0.7724424600601196
 32
0.3805815577507019
 13
0.3431449830532074
 23
0.8243046998977661
 33
0.38054579496383667
  0
3DFACE
  8
0
 10
0.33195960521698
 20
0.797144889831543
 30
0.09236973524093628
 11
0.3431449830532074
 21
0.8243046998977661
 31
0.38054579496383667
 12
0.23229986429214478
 22
0.862080991268158
 32
0.380511075258255
 13
0.22668106853961945
 23
0.8408670425415039
 33
0.09233535826206207
  0
3DFACE
  8
0
 10
0.5276132822036743
 20
0.6839423775672913
 30
0.09243930876255035
 11
0.5454311370849609
 21
0.7072645425796509
 31
0.3806176781654358
 12
0.4481402337551117
 22
0.7724424600601196
 32
0.3805815577507019
 13
0.4372381567955017
 23
0.7534227967262268
 33
0.09240409731864929
  0
3DFACE
  8
0
 10
0.3943079710006714
 20
0.29958173632621765
 30
0.13019528985023499
 11
0.30137670040130615
 21
0.22841107845306396
 31
0.13214431703090668
 12
0.3289400339126587
 22
0.1870773434638977
 32
0.13214431703090668
 13
0.43408018350601196
 23
0.24765001237392426
 33
0.1302146017551422
  0
3DFACE
  8
0
 10
-0.19071494042873383
 20
-0.4613737463951111
 30
0.13018319010734558
 11
-0.13030537962913513
 21
-0.4864618182182312
 31
0.13020290434360504
 12
-0.09879171848297119
 22
-0.3692851662635803
 32
0.13214431703090668
 13
-0.1458214372396469
 23
-0.35327187180519104
 33
0.13214431703090668
  0
3DFACE
  8
0
 10
-0.19071494042873383
 20
-0.4613737463951111
 30
0.13018319010734558
 11
-0.1458214372396469
 21
-0.35327187180519104
 31
0.13214431703090668
 12
-0.19035707414150238
 22
-0.3312581181526184
 32
0.13214431703090668
 13
-0.2511245012283325
 23
-0.43628570437431335
 33
0.13016346096992493
  0
3DFACE
  8
0
 10
0.3019472360610962
 20
-0.39697790145874023
 30
0.13029605150222778
 11
0.3538789749145508
 21
-0.35720574855804443
 31
0.1303020715713501
 12
0.26815786957740784
 22
-0.27132564783096313
 32
0.13214431703090668
 13
0.23077510297298431
 23
-0.30404695868492126
 33
0.13214431703090668
  0
3DFACE
  8
0
 10
0.3019472360610962
 20
-0.39697790145874023
 30
0.13029605150222778
 11
0.23077510297298431
 21
-0.30404695868492126
 31
0.13214431703090668
 12
0.1894426941871643
 22
-0.3316100835800171
 32
0.13214431703090668
 13
0.2500154972076416
 23
-0.4367501139640808
 33
0.13029003143310547
  0
3DFACE
  8
0
 10
0.19041046500205994
 20
0.4563382565975189
 30
0.13011586666107178
 11
0.13000088930130005
 21
0.48142632842063904
 31
0.13009613752365112
 12
0.0984870046377182
 22
0.3642497658729553
 32
0.13214431703090668
 13
0.14551512897014618
 23
0.3482375741004944
 33
0.13214431703090668
  0
3DFACE
  8
0
 10
0.49251002073287964
 20
0.06187820062041283
 30
0.13026243448257446
 11
0.37644344568252563
 21
0.0467078723013401
 31
0.13214431703090668
 12
0.37964755296707153
 22
-0.0028695042710751295
 32
0.13214431703090668
 13
0.5009878873825073
 23
-0.0029819791670888662
 33
0.13027611374855042
  0
3DFACE
  8
0
 10
-0.06454819440841675
 20
0.4901445806026459
 30
0.13004551827907562
 11
-0.12940843403339386
 21
0.481666624546051
 31
0.13003063201904297
 12
-0.09811194241046906
 22
0.3644319474697113
 32
0.13214431703090668
 13
-0.04937812685966492
 23
0.37407949566841125
 33
0.13214431703090668
  0
3DFACE
  8
0
 10
-0.06454819440841675
 20
0.4901445806026459
 30
0.13004551827907562
 11
-0.04937812685966492
 21
0.37407949566841125
 31
0.13214431703090668
 12
0.00019952979346271604
 22
0.37728220224380493
 32
0.13214431703090668
 13
0.0003120419569313526
 23
0.4986225366592407
 33
0.13006040453910828
  0
3DFACE
  8
0
 10
-0.30225199460983276
 20
0.3919423818588257
 30
0.13000300526618958
 11
-0.3541836142539978
 21
0.3521702289581299
 31
0.12999698519706726
 12
-0.2684626281261444
 22
0.26629024744033813
 32
0.13214431703090668
 13
-0.2310815304517746
 23
0.29901260137557983
 33
0.13214431703090668
  0
3DFACE
  8
0
 10
-0.30225199460983276
 20
0.3919423818588257
 30
0.13000300526618958
 11
-0.2310815304517746
 21
0.29901260137557983
 31
0.13214431703090668
 12
-0.1897476613521576
 22
0.32657456398010254
 32
0.13214431703090668
 13
-0.2503203749656677
 23
0.4317145347595215
 33
0.1300090104341507
  0
3DFACE
  8
0
 10
-0.45900824666023254
 20
0.18804499506950378
 30
0.1299997866153717
 11
-0.3509078621864319
 21
0.1431511789560318
 31
0.13214431703090668
 12
-0.32889270782470703
 22
0.18768711388111115
 32
0.13214431703090668
 13
-0.4339202046394348
 23
0.24845461547374725
 33
0.12999534606933594
  0
3DFACE
  8
0
 10
-0.3029823303222656
 20
-0.39641743898391724
 30
0.13014325499534607
 11
-0.23163986206054688
 21
-0.303618460893631
 31
0.13214431703090668
 12
-0.26896023750305176
 22
-0.2708280384540558
 32
0.13214431703090668
 13
-0.35484015941619873
 23
-0.35654914379119873
 33
0.1301230639219284
  0
3DFACE
  8
0
 10
-0.3029823303222656
 20
-0.39641743898391724
 30
0.13014325499534607
 11
-0.2511245012283325
 21
-0.43628570437431335
 31
0.13016346096992493
 12
-0.19035707414150238
 22
-0.3312581181526184
 32
0.13214431703090668
 13
-0.23163986206054688
 23
-0.303618460893631
 33
0.13214431703090668
  0
3DFACE
  8
0
 10
0.3937472701072693
 20
-0.30534785985946655
 30
0.13030292093753815
 11
0.3009481132030487
 21
-0.23400388658046722
 31
0.13214431703090668
 12
0.26815786957740784
 22
-0.27132564783096313
 32
0.13214431703090668
 13
0.3538789749145508
 23
-0.35720574855804443
 33
0.1303020715713501
  0
3DFACE
  8
0
 10
0.3937472701072693
 20
-0.30534785985946655
 30
0.13030292093753815
 11
0.4336155652999878
 21
-0.25348997116088867
 31
0.1303037703037262
 12
0.3285880386829376
 22
-0.19272245466709137
 32
0.13214431703090668
 13
0.3009481132030487
 23
-0.23400388658046722
 33
0.13214431703090668
  0
3DFACE
  8
0
 10
0.4923897981643677
 20
-0.06782639771699905
 30
0.13028550148010254
 11
0.37635159492492676
 21
-0.05243978649377823
 31
0.13214431703090668
 12
0.3666151463985443
 22
-0.10115702450275421
 32
0.13214431703090668
 13
0.483791708946228
 23
-0.1326708197593689
 33
0.13029488921165466
  0
3DFACE
  8
0
 10
0.4923897981643677
 20
-0.06782639771699905
 30
0.13028550148010254
 11
0.5009878873825073
 21
-0.0029819791670888662
 31
0.13027611374855042
 12
0.37964755296707153
 22
-0.0028695042710751295
 32
0.13214431703090668
 13
0.37635159492492676
 23
-0.05243978649377823
 33
0.13214431703090668
  0
3DFACE
  8
0
 10
-0.0654609277844429
 20
-0.4950598478317261
 30
0.13022080063819885
 11
-0.05007583647966385
 21
-0.37902191281318665
 31
0.13214431703090668
 12
-0.09879171848297119
 22
-0.3692851662635803
 32
0.13214431703090668
 13
-0.13030537962913513
 23
-0.4864618182182312
 33
0.13020290434360504
  0
3DFACE
  8
0
 10
0.189559668302536
 20
-0.4617261290550232
 30
0.13027922809123993
 11
0.1448647826910019
 21
-0.35354119539260864
 31
0.13214431703090668
 12
0.09780716150999069
 22
-0.3694673180580139
 32
0.13214431703090668
 13
0.12910382449626923
 23
-0.4867021441459656
 33
0.1302684247493744
  0
3DFACE
  8
0
 10
0.189559668302536
 20
-0.4617261290550232
 30
0.13027922809123993
 11
0.2500154972076416
 21
-0.4367501139640808
 31
0.13029003143310547
 12
0.1894426941871643
 22
-0.3316100835800171
 32
0.13214431703090668
 13
0.1448647826910019
 23
-0.35354119539260864
 33
0.13214431703090668
  0
3DFACE
  8
0
 10
-0.1898644119501114
 20
0.45669060945510864
 30
0.13001981377601624
 11
-0.2503203749656677
 21
0.4317145347595215
 31
0.1300090104341507
 12
-0.1897476613521576
 22
0.32657456398010254
 32
0.13214431703090668
 13
-0.14517122507095337
 23
0.3485068380832672
 33
0.13214431703090668
  0
3DFACE
  8
0
 10
0.15514157712459564
 20
-0.26637452840805054
 30
0.4074071943759918
 11
0.09259044378995895
 21
-0.15792185068130493
 31
0.4431785047054291
 12
0.04385816678404808
 22
-0.15759137272834778
 32
0.41474756598472595
 13
0.11506181210279465
 23
-0.2811761200428009
 33
0.38349735736846924
  0
3DFACE
  8
0
 10
0.15514157712459564
 20
-0.26637452840805054
 30
0.4074071943759918
 11
0.11506181210279465
 21
-0.2811761200428009
 31
0.38349735736846924
 12
0.18626545369625092
 22
-0.40476086735725403
 32
0.35224711894989014
 13
0.22056254744529724
 23
-0.37992268800735474
 33
0.37869468331336975
  0
3DFACE
  8
0
 10
0.31021884083747864
 20
-0.5355573296546936
 30
0.4223628044128418
 11
0.22056254744529724
 21
-0.37992268800735474
 31
0.37869468331336975
 12
0.18626545369625092
 22
-0.40476086735725403
 32
0.35224711894989014
 13
0.27776163816452026
 23
-0.5635893940925598
 33
0.39520350098609924
  0
3DFACE
  8
0
 10
0.31021884083747864
 20
-0.5355573296546936
 30
0.4223628044128418
 11
0.27776163816452026
 21
-0.5635893940925598
 31
0.39520350098609924
 12
0.3692578375339508
 22
-0.7224178910255432
 32
0.43815988302230835
 13
0.4020305871963501
 23
-0.7021878957748413
 33
0.47258254885673523
  0
3DFACE
  8
0
 10
0.18394812941551208
 20
-0.24238094687461853
 30
0.37596559524536133
 11
0.11404192447662354
 21
-0.12104727327823639
 31
0.406647264957428
 12
0.09259044378995895
 22
-0.15792185068130493
 32
0.4431785047054291
 13
0.15514157712459564
 23
-0.26637452840805054
 33
0.4074071943759918
  0
3DFACE
  8
0
 10
0.18394812941551208
 20
-0.24238094687461853
 30
0.37596559524536133
 11
0.15514157712459564
 21
-0.26637452840805054
 31
0.4074071943759918
 12
0.22056254744529724
 22
-0.37992268800735474
 32
0.37869468331336975
 13
0.25385433435440063
 23
-0.3637146055698395
 33
0.3452839255332947
  0
3DFACE
  8
0
 10
0.34240174293518066
 20
-0.5174236297607422
 30
0.38856762647628784
 11
0.25385433435440063
 21
-0.3637146055698395
 31
0.3452839255332947
 12
0.22056254744529724
 22
-0.37992268800735474
 32
0.37869468331336975
 13
0.31021884083747864
 23
-0.5355573296546936
 33
0.4223628044128418
  0
3DFACE
  8
0
 10
0.4600842595100403
 20
-0.7217040061950684
 30
0.4286832809448242
 11
0.4321763515472412
 21
-0.7472583651542664
 31
0.4621596932411194
 12
0.4644775390625
 22
-0.8033247590065002
 32
0.4582884609699249
 13
0.4892193675041199
 23
-0.772275447845459
 33
0.42551520466804504
  0
3DFACE
  8
0
 10
0.4321763515472412
 20
-0.7472583651542664
 30
0.4621596932411194
 11
0.4020305871963501
 21
-0.7021878957748413
 31
0.47258254885673523
 12
0.3692578375339508
 22
-0.7224178910255432
 32
0.43815988302230835
 13
0.395717978477478
 23
-0.7683456540107727
 33
0.43522486090660095
  0
3DFACE
  8
0
 10
0.3010474145412445
 20
-0.04082351177930832
 30
0.38350141048431396
 11
0.4436759054660797
 21
-0.04096130281686783
 31
0.3522472083568573
 12
0.4393146336078644
 22
0.001168128103017807
 32
0.3786819577217102
 13
0.3082693815231323
 23
0.0012947656214237213
 33
0.40739813446998596
  0
3DFACE
  8
0
 10
0.3010474145412445
 20
-0.04082351177930832
 30
0.38350141048431396
 11
0.3082693815231323
 21
0.0012947656214237213
 31
0.40739813446998596
 12
0.18566423654556274
 22
0.001386527786962688
 32
0.4431785047054291
 13
0.1584189236164093
 23
-0.04068571701645851
 33
0.414755642414093
  0
3DFACE
  8
0
 10
0.6269747614860535
 20
-0.04112429544329643
 30
0.3951984643936157
 11
0.8102735877037048
 21
-0.04128728806972504
 31
0.43814975023269653
 12
0.7985405921936035
 22
0.000849640928208828
 32
0.46600815653800964
 13
0.6189275979995728
 23
0.0010088849812746048
 33
0.4223451018333435
  0
3DFACE
  8
0
 10
0.6269747614860535
 20
-0.04112429544329643
 30
0.3951984643936157
 11
0.6189275979995728
 21
0.0010088849812746048
 31
0.4223451018333435
 12
0.4393146336078644
 22
0.001168128103017807
 32
0.3786819577217102
 13
0.4436759054660797
 23
-0.04096130281686783
 33
0.3522472083568573
  0
3DFACE
  8
0
 10
0.3082693815231323
 20
0.0012947656214237213
 30
0.40739813446998596
 11
0.4393146336078644
 21
0.001168128103017807
 31
0.3786819577217102
 12
0.44192299246788025
 22
0.03809339553117752
 32
0.34525975584983826
 13
0.3018927276134491
 23
0.0382290780544281
 33
0.3759453296661377
  0
3DFACE
  8
0
 10
0.3082693815231323
 20
0.0012947656214237213
 30
0.40739813446998596
 11
0.3018927276134491
 21
0.0382290780544281
 31
0.3759453296661377
 12
0.16186244785785675
 22
0.03836476057767868
 32
0.4066309332847595
 13
0.18566423654556274
 23
0.001386527786962688
 33
0.4431785047054291
  0
3DFACE
  8
0
 10
0.6189275979995728
 20
0.0010088849812746048
 30
0.4223451018333435
 11
0.7985405921936035
 21
0.000849640928208828
 31
0.46600815653800964
 12
0.7967045903205872
 22
0.03777965158224106
 32
0.4318172335624695
 13
0.6193137764930725
 23
0.03793652355670929
 33
0.3885384798049927
  0
3DFACE
  8
0
 10
0.6189275979995728
 20
0.0010088849812746048
 30
0.4223451018333435
 11
0.6193137764930725
 21
0.03793652355670929
 31
0.3885384798049927
 12
0.44192299246788025
 22
0.03809339553117752
 32
0.34525975584983826
 13
0.4393146336078644
 23
0.001168128103017807
 33
0.3786819577217102
  0
3DFACE
  8
0
 10
0.863245964050293
 20
0.0007889214903116226
 30
0.46213510632514954
 11
0.927951455116272
 21
0.0007282055448740721
 31
0.4582620859146118
 12
0.9134317636489868
 22
0.03766985237598419
 32
0.4254778325557709
 13
0.8550682067871094
 23
0.037724751979112625
 33
0.428647518157959
  0
3DFACE
  8
0
 10
0.863245964050293
 20
0.0007889214903116226
 30
0.46213510632514954
 11
0.8550682067871094
 21
0.037724751979112625
 31
0.428647518157959
 12
0.7967045903205872
 22
0.03777965158224106
 32
0.4318172335624695
 13
0.7985405921936035
 23
0.000849640928208828
 33
0.46600815653800964
  0
3DFACE
  8
0
 10
0.8632781505584717
 20
-0.04133688285946846
 30
0.43521323800086975
 11
0.9162827134132385
 21
-0.041386477649211884
 31
0.43227672576904297
 12
0.927951455116272
 22
0.0007282055448740721
 32
0.4582620859146118
 13
0.863245964050293
 23
0.0007889214903116226
 33
0.46213510632514954
  0
3DFACE
  8
0
 10
0.8632781505584717
 20
-0.04133688285946846
 30
0.43521323800086975
 11
0.863245964050293
 21
0.0007889214903116226
 31
0.46213510632514954
 12
0.7985405921936035
 22
0.000849640928208828
 32
0.46600815653800964
 13
0.8102735877037048
 23
-0.04128728806972504
 33
0.43814975023269653
  0
3DFACE
  8
0
 10
0.18588867783546448
 20
0.24042101204395294
 30
0.38342219591140747
 11
0.2573213577270508
 21
0.36386239528656006
 31
0.35212796926498413
 12
0.21865630149841309
 22
0.3811582922935486
 32
0.37855851650238037
 13
0.153024822473526
 23
0.2677419185638428
 33
0.40731143951416016
  0
3DFACE
  8
0
 10
0.18588867783546448
 20
0.24042101204395294
 30
0.38342219591140747
 11
0.153024822473526
 21
0.2677419185638428
 31
0.40731143951416016
 12
0.0873933658003807
 22
0.15432554483413696
 32
0.43606433272361755
 13
0.11445600539445877
 23
0.11697962135076523
 33
0.4147164225578308
  0
3DFACE
  8
0
 10
0.3491130769252777
 20
0.5225355625152588
 30
0.3950278162956238
 11
0.44090479612350464
 21
0.6812087893486023
 31
0.4379276931285858
 12
0.3985474407672882
 22
0.6921247243881226
 32
0.46578389406204224
 13
0.30860188603401184
 23
0.5366414785385132
 33
0.4221712350845337
  0
3DFACE
  8
0
 10
0.153024822473526
 20
0.2677419185638428
 30
0.40731143951416016
 11
0.21865630149841309
 21
0.3811582922935486
 31
0.37855851650238037
 12
0.18798129260540009
 22
0.4018695056438446
 32
0.3451308012008667
 13
0.11784955114126205
 23
0.28067702054977417
 33
0.3758556544780731
  0
3DFACE
  8
0
 10
0.153024822473526
 20
0.2677419185638428
 30
0.40731143951416016
 11
0.11784955114126205
 21
0.28067702054977417
 31
0.3758556544780731
 12
0.04771780967712402
 22
0.15948452055454254
 32
0.40658050775527954
 13
0.0873933658003807
 23
0.15432554483413696
 33
0.43606433272361755
  0
3DFACE
  8
0
 10
0.30860188603401184
 20
0.5366414785385132
 30
0.4221712350845337
 11
0.3985474407672882
 21
0.6921247243881226
 31
0.46578389406204224
 12
0.36564621329307556
 22
0.7089892625808716
 32
0.431588739156723
 13
0.2768137454986572
 23
0.5554293990135193
 33
0.38835978507995605
  0
3DFACE
  8
0
 10
0.30860188603401184
 20
0.5366414785385132
 30
0.4221712350845337
 11
0.2768137454986572
 21
0.5554293990135193
 31
0.38835978507995605
 12
0.18798129260540009
 22
0.4018695056438446
 32
0.3451308012008667
 13
0.21865630149841309
 23
0.3811582922935486
 33
0.37855851650238037
  0
3DFACE
  8
0
 10
0.43095266819000244
 20
0.7481297254562378
 30
0.4618927538394928
 11
0.3948754370212555
 21
0.7595051527023315
 31
0.4284026622772217
 12
0.36564621329307556
 22
0.7089892625808716
 32
0.431588739156723
 13
0.3985474407672882
 23
0.6921247243881226
 33
0.46578389406204224
  0
3DFACE
  8
0
 10
0.46744996309280396
 20
0.7270864248275757
 30
0.4349763095378876
 11
0.49399513006210327
 21
0.7729640603065491
 31
0.43202492594718933
 12
0.4633578062057495
 22
0.804134726524353
 32
0.4580015540122986
 13
0.43095266819000244
 23
0.7481297254562378
 33
0.4618927538394928
  0
3DFACE
  8
0
 10
0.46744996309280396
 20
0.7270864248275757
 30
0.4349763095378876
 11
0.43095266819000244
 21
0.7481297254562378
 31
0.4618927538394928
 12
0.3985474407672882
 22
0.6921247243881226
 32
0.46578389406204224
 13
0.44090479612350464
 23
0.6812087893486023
 33
0.4379276931285858
  0
3DFACE
  8
0
 10
-0.11525560170412064
 20
0.2813127934932709
 30
0.3833388686180115
 11
-0.18644355237483978
 21
0.4048863351345062
 31
0.3520086407661438
 12
-0.2207539975643158
 22
0.38005751371383667
 32
0.3784478008747101
 13
-0.15534742176532745
 23
0.2665196657180786
 33
0.4072338044643402
  0
3DFACE
  8
0
 10
-0.11525560170412064
 20
0.2813127934932709
 30
0.3833388686180115
 11
-0.15534742176532745
 21
0.2665196657180786
 31
0.4072338044643402
 12
-0.09325623512268066
 22
0.15839333832263947
 32
0.4431785047054291
 13
-0.04406764730811119
 23
0.15773925185203552
 33
0.41466912627220154
  0
3DFACE
  8
0
 10
-0.27796149253845215
 20
0.5637300610542297
 30
0.39486220479011536
 11
-0.31043243408203125
 21
0.5357076525688171
 31
0.42201513051986694
 12
-0.2207539975643158
 22
0.38005751371383667
 32
0.3784478008747101
 13
-0.18644355237483978
 23
0.4048863351345062
 33
0.3520086407661438
  0
3DFACE
  8
0
 10
-0.18413807451725006
 20
0.24251483380794525
 30
0.3757862448692322
 11
-0.11424728482961655
 21
0.12119218707084656
 31
0.4065464735031128
 12
-0.09325623512268066
 22
0.15839333832263947
 32
0.4431785047054291
 13
-0.15534742176532745
 23
0.2665196657180786
 33
0.4072338044643402
  0
3DFACE
  8
0
 10
-0.18413807451725006
 20
0.24251483380794525
 30
0.3757862448692322
 11
-0.15534742176532745
 21
0.2665196657180786
 31
0.4072338044643402
 12
-0.2207539975643158
 22
0.38005751371383667
 32
0.3784478008747101
 13
-0.254028856754303
 23
0.36383748054504395
 33
0.34502601623535156
  0
3DFACE
  8
0
 10
-0.34259819984436035
 20
0.5175618529319763
 30
0.3882101774215698
 11
-0.254028856754303
 21
0.36383748054504395
 31
0.34502601623535156
 12
-0.2207539975643158
 22
0.38005751371383667
 32
0.3784478008747101
 13
-0.31043243408203125
 23
0.5357076525688171
 33
0.42201513051986694
  0
3DFACE
  8
0
 10
-0.46030110120773315
 20
0.7218564748764038
 30
0.42819350957870483
 11
-0.4324101209640503
 21
0.7474228143692017
 31
0.46167492866516113
 12
-0.46470940113067627
 22
0.8034878969192505
 32
0.45776742696762085
 13
-0.4894346594810486
 23
0.7724267244338989
 33
0.42499271035194397
  0
3DFACE
  8
0
 10
-0.3084750175476074
 20
-0.001149659277871251
 30
0.40724289417266846
 11
-0.1812298595905304
 21
-0.0013372583780437708
 31
0.4431785047054291
 12
-0.15862831473350525
 22
0.04083353281021118
 32
0.4146610498428345
 13
-0.301241010427475
 23
0.04096009582281113
 33
0.38333481550216675
  0
3DFACE
  8
0
 10
-0.3084750175476074
 20
-0.001149659277871251
 30
0.40724289417266846
 11
-0.301241010427475
 21
0.04096009582281113
 31
0.38333481550216675
 12
-0.4438537061214447
 22
0.04108665883541107
 32
0.35200855135917664
 13
-0.43950575590133667
 23
-0.0010333401151001453
 33
0.37846052646636963
  0
3DFACE
  8
0
 10
-0.6191407442092896
 20
-0.0008586384356021881
 30
0.42203289270401
 11
-0.43950575590133667
 21
-0.0010333401151001453
 31
0.37846052646636963
 12
-0.4438537061214447
 22
0.04108665883541107
 32
0.35200855135917664
 13
-0.6271741986274719
 23
0.041264843195676804
 33
0.3948672413825989
  0
3DFACE
  8
0
 10
-0.6191407442092896
 20
-0.0008586384356021881
 30
0.42203289270401
 11
-0.6271741986274719
 21
0.041264843195676804
 31
0.3948672413825989
 12
-0.8104947209358215
 22
0.041443027555942535
 32
0.43772590160369873
 13
-0.8073592185974121
 23
-0.0009668568382039666
 33
0.47215235233306885
  0
3DFACE
  8
0
 10
-0.30208244919776917
 20
-0.03809518367052078
 30
0.3758065104484558
 11
-0.16206768155097961
 21
-0.03821983560919762
 31
0.40656280517578125
 12
-0.1812298595905304
 22
-0.0013372583780437708
 32
0.4431785047054291
 13
-0.3084750175476074
 23
-0.001149659277871251
 33
0.40724289417266846
  0
3DFACE
  8
0
 10
-0.30208244919776917
 20
-0.03809518367052078
 30
0.3758065104484558
 11
-0.3084750175476074
 21
-0.001149659277871251
 31
0.40724289417266846
 12
-0.43950575590133667
 22
-0.0010333401151001453
 32
0.37846052646636963
 13
-0.4420972168445587
 23
-0.03797053545713425
 33
0.345050185918808
  0
3DFACE
  8
0
 10
-0.6195098757743835
 20
-0.037798333913087845
 30
0.388239324092865
 11
-0.4420972168445587
 21
-0.03797053545713425
 31
0.345050185918808
 12
-0.43950575590133667
 22
-0.0010333401151001453
 32
0.37846052646636963
 13
-0.6191407442092896
 23
-0.0008586384356021881
 33
0.42203289270401
  0
3DFACE
  8
0
 10
-0.8552845120429993
 20
-0.03757241368293762
 30
0.42822927236557007
 11
-0.8634791970252991
 21
-0.0006246361881494522
 31
0.4616994857788086
 12
-0.9281826019287109
 22
-0.0005653344560414553
 32
0.45779380202293396
 13
-0.9136464595794678
 23
-0.0375186949968338
 33
0.42503008246421814
  0
3DFACE
  8
0
 10
-0.8634791970252991
 20
-0.0006246361881494522
 30
0.4616994857788086
 11
-0.8073592185974121
 21
-0.0009668568382039666
 31
0.47215235233306885
 12
-0.8104947209358215
 22
0.041443027555942535
 32
0.43772590160369873
 13
-0.8634978532791138
 23
0.0414915569126606
 33
0.4347626268863678
  0
3DFACE
  8
0
 10
-0.8634791970252991
 20
-0.0006246361881494522
 30
0.4616994857788086
 11
-0.8634978532791138
 21
0.0414915569126606
 31
0.4347626268863678
 12
-0.9165009260177612
 22
0.04154008626937866
 32
0.43179935216903687
 13
-0.9281826019287109
 23
-0.0005653344560414553
 33
0.45779380202293396
  0
3DFACE
  8
0
 10
-0.15323036909103394
 20
-0.26759669184684753
 30
0.40732958912849426
 11
-0.08938144892454147
 21
-0.15723775327205658
 31
0.4431785047054291
 12
-0.11466532945632935
 22
-0.11683176457881927
 32
0.4147002696990967
 13
-0.1860821545124054
 23
-0.24028432369232178
 33
0.38341403007507324
  0
3DFACE
  8
0
 10
-0.15323036909103394
 20
-0.26759669184684753
 30
0.40732958912849426
 11
-0.1860821545124054
 21
-0.24028432369232178
 31
0.38341403007507324
 12
-0.25749897956848145
 22
-0.3637368977069855
 32
0.3521277904510498
 13
-0.21884728968143463
 23
-0.3810233473777771
 33
0.37858399748802185
  0
3DFACE
  8
0
 10
-0.3088148534297943
 20
-0.5364910364151001
 30
0.42220672965049744
 11
-0.21884728968143463
 21
-0.3810233473777771
 31
0.37858399748802185
 12
-0.25749897956848145
 22
-0.3637368977069855
 32
0.3521277904510498
 13
-0.34931230545043945
 23
-0.5223948359489441
 33
0.3950378894805908
  0
3DFACE
  8
0
 10
-0.11803921312093735
 20
-0.2805429995059967
 30
0.3758961856365204
 11
-0.0479230135679245
 21
-0.1593395173549652
 31
0.40661323070526123
 12
-0.08938144892454147
 22
-0.15723775327205658
 32
0.4431785047054291
 13
-0.15323036909103394
 23
-0.26759669184684753
 33
0.40732958912849426
  0
3DFACE
  8
0
 10
-0.11803921312093735
 20
-0.2805429995059967
 30
0.3758961856365204
 11
-0.15323036909103394
 21
-0.26759669184684753
 31
0.40732958912849426
 12
-0.21884728968143463
 22
-0.3810233473777771
 32
0.37858399748802185
 13
-0.1881554126739502
 23
-0.4017464816570282
 33
0.34517914056777954
  0
3DFACE
  8
0
 10
-0.27700966596603394
 20
-0.5552909970283508
 30
0.3884180188179016
 11
-0.1881554126739502
 21
-0.4017464816570282
 31
0.34517914056777954
 12
-0.21884728968143463
 22
-0.3810233473777771
 32
0.37858399748802185
 13
-0.3088148534297943
 23
-0.5364910364151001
 33
0.42220672965049744
  0
3DFACE
  8
0
 10
-0.3950914740562439
 20
-0.7593525648117065
 30
0.4284741282463074
 11
-0.4311855733394623
 21
-0.7479650974273682
 31
0.4619418978691101
 12
-0.46358877420425415
 22
-0.8039714694023132
 32
0.4580543339252472
 13
-0.4243190884590149
 23
-0.8098695874214172
 33
0.4252912998199463
  0
3DFACE
  8
0
 10
-0.4311855733394623
 20
-0.7479650974273682
 30
0.4619418978691101
 11
-0.4676693081855774
 21
-0.7269314527511597
 31
0.43499955534935
 12
-0.4942129850387573
 22
-0.7728101015090942
 32
0.4320511519908905
 13
-0.46358877420425415
 23
-0.8039714694023132
 33
0.4580543339252472
  0
3DFACE
  8
0
 10
-0.7420207262039185
 20
0.19777587056159973
 30
0.5108664631843567
 11
-0.7690296173095703
 21
-0.0010304211173206568
 31
0.5108950734138489
 12
-0.730680525302887
 22
-0.0011083396384492517
 32
0.47217175364494324
 13
-0.7050186395645142
 23
0.18778370320796967
 33
0.47214460372924805
  0
3DFACE
  8
0
 10
-0.7420207262039185
 20
0.19777587056159973
 30
0.5108664631843567
 11
-0.7050186395645142
 21
0.18778370320796967
 31
0.47214460372924805
 12
-0.6321454048156738
 22
0.3639320135116577
 32
0.4721316397190094
 13
-0.665322482585907
 23
0.38316962122917175
 33
0.5108527541160583
  0
3DFACE
  8
0
 10
-0.7427550554275513
 20
-0.19993525743484497
 30
0.5109371542930603
 11
-0.6667419075965881
 21
-0.38561105728149414
 31
0.5109894275665283
 12
-0.6334939002990723
 22
-0.3665098547935486
 32
0.4722614288330078
 13
-0.7057162523269653
 23
-0.1900937855243683
 33
0.4722117483615875
  0
3DFACE
  8
0
 10
-0.7427550554275513
 20
-0.19993525743484497
 30
0.5109371542930603
 11
-0.7057162523269653
 21
-0.1900937855243683
 31
0.4722117483615875
 12
-0.730680525302887
 22
-0.0011083396384492517
 32
0.47217175364494324
 13
-0.7690296173095703
 23
-0.0010304211173206568
 33
0.5108950734138489
  0
3DFACE
  8
0
 10
0.5440381765365601
 20
0.5398306846618652
 30
0.511130154132843
 11
0.38537099957466125
 21
0.6626242399215698
 31
0.5110682249069214
 12
0.3661502003669739
 22
0.6294500827789307
 32
0.4723362922668457
 13
0.5169044733047485
 23
0.5127804279327393
 33
0.472395122051239
  0
3DFACE
  8
0
 10
0.5440381765365601
 20
0.5398306846618652
 30
0.511130154132843
 11
0.5169044733047485
 21
0.5127804279327393
 31
0.472395122051239
 12
0.6330165863037109
 22
0.36159637570381165
 32
0.472451388835907
 13
0.6662450432777405
 23
0.3807113468647003
 33
0.5111892819404602
  0
3DFACE
  8
0
 10
-0.5445349216461182
 20
-0.5447303652763367
 30
0.5110485553741455
 11
-0.38586780428886414
 21
-0.6675236821174622
 31
0.5111104846000671
 12
-0.3666273355484009
 22
-0.6343634128570557
 32
0.4723764657974243
 13
-0.5173816084861755
 23
-0.5176938772201538
 33
0.472317636013031
  0
3DFACE
  8
0
 10
-0.5445349216461182
 20
-0.5447303652763367
 30
0.5110485553741455
 11
-0.5173816084861755
 21
-0.5176938772201538
 31
0.472317636013031
 12
-0.6334939002990723
 22
-0.3665098547935486
 32
0.4722614288330078
 13
-0.6667419075965881
 23
-0.38561105728149414
 33
0.5109894275665283
  0
3DFACE
  8
0
 10
-0.4073883295059204
 20
-0.11267391592264175
 30
0.4373982548713684
 11
-0.3652092218399048
 21
-0.21442639827728271
 31
0.4374270439147949
 12
-0.3360036015510559
 22
-0.19747719168663025
 32
0.3986983299255371
 13
-0.37480849027633667
 23
-0.10386432707309723
 33
0.3986719250679016
  0
3DFACE
  8
0
 10
-0.4073883295059204
 20
-0.11267391592264175
 30
0.4373982548713684
 11
-0.37480849027633667
 21
-0.10386432707309723
 31
0.3986719250679016
 12
-0.388520747423172
 22
-0.0034593609161674976
 32
0.398650586605072
 13
-0.4222930073738098
 23
-0.003538669552654028
 33
0.4373750686645508
  0
3DFACE
  8
0
 10
-0.2977338433265686
 20
-0.3014877438545227
 30
0.4374595880508423
 11
-0.21032950282096863
 21
-0.368518203496933
 31
0.43749362230300903
 12
-0.1935134381055832
 22
-0.3392430543899536
 32
0.3987595736980438
 13
-0.27392593026161194
 23
-0.2775743901729584
 33
0.39872828125953674
  0
3DFACE
  8
0
 10
-0.2977338433265686
 20
-0.3014877438545227
 30
0.4374595880508423
 11
-0.27392593026161194
 21
-0.2775743901729584
 31
0.39872828125953674
 12
-0.3360036015510559
 22
-0.19747719168663025
 32
0.3986983299255371
 13
-0.3652092218399048
 23
-0.21442639827728271
 33
0.4374270439147949
  0
3DFACE
  8
0
 10
-0.1083635613322258
 20
-0.410178005695343
 30
0.43752676248550415
 11
0.0008460140088573098
 21
-0.4245261251926422
 31
0.4375568926334381
 12
0.0007695242529734969
 22
-0.3907705843448639
 32
0.39881783723831177
 13
-0.09970403462648392
 23
-0.37757039070129395
 33
0.3987900912761688
  0
3DFACE
  8
0
 10
-0.1083635613322258
 20
-0.410178005695343
 30
0.43752676248550415
 11
-0.09970403462648392
 21
-0.37757039070129395
 31
0.3987900912761688
 12
-0.1935134381055832
 22
-0.3392430543899536
 32
0.3987595736980438
 13
-0.21032950282096863
 23
-0.368518203496933
 33
0.43749362230300903
  0
3DFACE
  8
0
 10
0.1099812239408493
 20
-0.4096214771270752
 30
0.4375818073749542
 11
0.21173366904258728
 21
-0.3674423098564148
 31
0.43759995698928833
 12
0.19478736817836761
 22
-0.3382526636123657
 32
0.3988574147224426
 13
0.10117451846599579
 23
-0.37705790996551514
 33
0.3988407254219055
  0
3DFACE
  8
0
 10
0.7785254716873169
 20
-0.21266768872737885
 30
0.4725903868675232
 11
0.7985405921936035
 21
0.000849640928208828
 31
0.46600815653800964
 12
0.7685321569442749
 22
-0.0038692390080541372
 32
0.5112836360931396
 13
0.7415234446525574
 23
-0.20267550647258759
 33
0.5113122463226318
  0
3DFACE
  8
0
 10
0.7785254716873169
 20
-0.21266768872737885
 30
0.4725903868675232
 11
0.7415234446525574
 21
-0.20267550647258759
 31
0.5113122463226318
 12
0.6648254990577698
 22
-0.3880692422389984
 32
0.5113259553909302
 13
0.6980025172233582
 23
-0.4073072075843811
 33
0.47260478138923645
  0
3DFACE
  8
0
 10
0.20709532499313354
 20
-0.7819916605949402
 30
0.47254759073257446
 11
0.4020305871963501
 21
-0.7021878957748413
 31
0.47258254885673523
 12
0.3829127550125122
 22
-0.6689432263374329
 32
0.5113047957420349
 13
0.19723692536354065
 23
-0.7449560165405273
 33
0.5112714767456055
  0
3DFACE
  8
0
 10
0.20709532499313354
 20
-0.7819916605949402
 30
0.47254759073257446
 11
0.19723692536354065
 21
-0.7449560165405273
 31
0.5112714767456055
 12
-0.0016678525134921074
 22
-0.7712303400039673
 32
0.5112259387969971
 13
-0.0017286785878241062
 23
-0.8095765113830566
 33
0.4724997878074646
  0
3DFACE
  8
0
 10
-0.20757298171520233
 20
0.7770792245864868
 30
0.47216513752937317
 11
-0.4001108705997467
 21
0.6913577318191528
 31
0.4655824601650238
 12
-0.38340967893600464
 22
0.6640437841415405
 32
0.5108739137649536
 13
-0.19773411750793457
 23
0.7400569319725037
 33
0.5109072327613831
  0
3DFACE
  8
0
 10
-0.20757298171520233
 20
0.7770792245864868
 30
0.47216513752937317
 11
-0.19773411750793457
 21
0.7400569319725037
 31
0.5109072327613831
 12
0.00117053824942559
 22
0.7663314342498779
 32
0.5109527707099915
 13
0.0012513860128819942
 23
0.804663896560669
 33
0.47221291065216064
  0
3DFACE
  8
0
 10
0.5690852403640747
 20
-0.5738868713378906
 30
0.47260189056396484
 11
0.6980025172233582
 21
-0.4073072075843811
 31
0.47260478138923645
 12
0.6648254990577698
 22
-0.3880692422389984
 32
0.5113259553909302
 13
0.5420321226119995
 23
-0.5467363595962524
 33
0.5113232135772705
  0
3DFACE
  8
0
 10
0.5690852403640747
 20
-0.5738868713378906
 30
0.47260189056396484
 11
0.5420321226119995
 21
-0.5467363595962524
 31
0.5113232135772705
 12
0.3829127550125122
 22
-0.6689432263374329
 32
0.5113047957420349
 13
0.4020305871963501
 23
-0.7021878957748413
 33
0.47258254885673523
  0
3DFACE
  8
0
 10
0.44416147470474243
 20
-0.12032857537269592
 30
0.39888155460357666
 11
0.45979976654052734
 21
-0.001297422801144421
 31
0.3988643288612366
 12
0.4218333065509796
 22
-0.0013872184790670872
 32
0.4375877380371094
 13
0.4074851870536804
 23
-0.11059678345918655
 33
0.43760359287261963
  0
3DFACE
  8
0
 10
0.44416147470474243
 20
-0.12032857537269592
 30
0.39888155460357666
 11
0.4074851870536804
 21
-0.11059678345918655
 31
0.43760359287261963
 12
0.3658253848552704
 22
-0.2125627100467682
 32
0.43761125206947327
 13
0.39875537157058716
 23
-0.23146463930606842
 33
0.39888983964920044
  0
3DFACE
  8
0
 10
0.11763822287321091
 20
0.44191211462020874
 30
0.39869898557662964
 11
-0.0013932104920968413
 21
0.45755064487457275
 31
0.3986662030220032
 12
-0.0013062907382845879
 22
0.41960030794143677
 32
0.43740588426589966
 13
0.10790354758501053
 23
0.4052521586418152
 33
0.43743598461151123
  0
3DFACE
  8
0
 10
0.11763822287321091
 20
0.44191211462020874
 30
0.39869898557662964
 11
0.10790354758501053
 21
0.4052521586418152
 31
0.43743598461151123
 12
0.209869846701622
 22
0.36359232664108276
 32
0.4374691843986511
 13
0.22877469658851624
 23
0.3965056538581848
 33
0.3987351059913635
  0
3DFACE
  8
0
 10
-0.12034294009208679
 20
0.44130557775497437
 30
0.3986390233039856
 11
-0.23124581575393677
 21
0.3953331410884857
 31
0.3986192047595978
 12
-0.21219344437122345
 22
0.36251652240753174
 32
0.43736281991004944
 13
-0.11044126749038696
 23
0.40469565987586975
 33
0.43738099932670593
  0
3DFACE
  8
0
 10
-0.12034294009208679
 20
0.44130557775497437
 30
0.3986390233039856
 11
-0.11044126749038696
 21
0.40469565987586975
 31
0.43738099932670593
 12
-0.0013062907382845879
 22
0.41960030794143677
 32
0.43740588426589966
 13
-0.0013932104920968413
 23
0.45755064487457275
 33
0.3986662030220032
  0
3DFACE
  8
0
 10
-0.3261367082595825
 20
0.32178962230682373
 30
0.39860832691192627
 11
-0.39919549226760864
 21
0.22652491927146912
 31
0.39860689640045166
 12
-0.3662855625152588
 22
0.20763681828975677
 32
0.4373515546321869
 13
-0.2992549240589142
 23
0.29504111409187317
 33
0.43735289573669434
  0
3DFACE
  8
0
 10
-0.3261367082595825
 20
0.32178962230682373
 30
0.39860832691192627
 11
-0.2992549240589142
 21
0.29504111409187317
 31
0.43735289573669434
 12
-0.21219344437122345
 22
0.36251652240753174
 32
0.43736281991004944
 13
-0.23124581575393677
 23
0.3953331410884857
 33
0.3986192047595978
  0
3DFACE
  8
0
 10
0.7415234446525574
 20
-0.20267550647258759
 30
0.5113122463226318
 11
0.7045409679412842
 21
-0.1926971673965454
 31
0.472568154335022
 12
0.6316681504249573
 22
-0.36884549260139465
 32
0.4725811779499054
 13
0.6648254990577698
 23
-0.3880692422389984
 33
0.5113259553909302
  0
3DFACE
  8
0
 10
0.742257833480835
 20
0.19503551721572876
 30
0.5112415552139282
 11
0.6662450432777405
 21
0.3807113468647003
 31
0.5111892819404602
 12
0.6330165863037109
 22
0.36159637570381165
 32
0.472451388835907
 13
0.7052385807037354
 23
0.18518032133579254
 33
0.4725010395050049
  0
3DFACE
  8
0
 10
0.742257833480835
 20
0.19503551721572876
 30
0.5112415552139282
 11
0.7052385807037354
 21
0.18518032133579254
 31
0.4725010395050049
 12
0.7302025556564331
 22
-0.003805117215961218
 32
0.4725409746170044
 13
0.7685321569442749
 23
-0.0038692390080541372
 33
0.5112836360931396
  0
3DFACE
  8
0
 10
0.19997699558734894
 20
0.7393224835395813
 30
0.5110077857971191
 11
0.00117053824942559
 21
0.7663314342498779
 31
0.5109527707099915
 12
0.0011098257964476943
 22
0.7279852628707886
 32
0.4722265601158142
 13
0.19000189006328583
 23
0.702323317527771
 33
0.4722788333892822
  0
3DFACE
  8
0
 10
0.19997699558734894
 20
0.7393224835395813
 30
0.5110077857971191
 11
0.19000189006328583
 21
0.702323317527771
 31
0.4722788333892822
 12
0.3661502003669739
 22
0.6294500827789307
 32
0.4723362922668457
 13
0.38537099957466125
 23
0.6626242399215698
 33
0.5110682249069214
  0
3DFACE
  8
0
 10
-0.2004741132259369
 20
-0.7442216277122498
 30
0.5111709237098694
 11
-0.0016678525134921074
 21
-0.7712303400039673
 31
0.5112259387969971
 12
-0.0015870026545599103
 22
-0.7328978776931763
 32
0.47248613834381104
 13
-0.19047904014587402
 23
-0.7072362899780273
 33
0.4724338948726654
  0
3DFACE
  8
0
 10
-0.2004741132259369
 20
-0.7442216277122498
 30
0.5111709237098694
 11
-0.19047904014587402
 21
-0.7072362899780273
 31
0.4724338948726654
 12
-0.3666273355484009
 22
-0.6343634128570557
 32
0.4723764657974243
 13
-0.38586780428886414
 23
-0.6675236821174622
 33
0.5111104846000671
  0
3DFACE
  8
0
 10
-0.19773411750793457
 20
0.7400569319725037
 30
0.5109072327613831
 11
-0.38340967893600464
 21
0.6640437841415405
 31
0.5108739137649536
 12
-0.3642917573451996
 22
0.6307984590530396
 32
0.47215166687965393
 13
-0.1878756433725357
 23
0.7030208706855774
 33
0.47218331694602966
  0
3DFACE
  8
0
 10
-0.19773411750793457
 20
0.7400569319725037
 30
0.5109072327613831
 11
-0.1878756433725357
 21
0.7030208706855774
 31
0.47218331694602966
 12
0.0011098257964476943
 22
0.7279852628707886
 32
0.4722265601158142
 13
0.00117053824942559
 23
0.7663314342498779
 33
0.5109527707099915
  0
3DFACE
  8
0
 10
0.5420321226119995
 20
-0.5467363595962524
 30
0.5113232135772705
 11
0.6648254990577698
 21
-0.3880692422389984
 31
0.5113259553909302
 12
0.6316681504249573
 22
-0.36884549260139465
 32
0.4725811779499054
 13
0.5149985551834106
 23
-0.5195997357368469
 33
0.47257858514785767
  0
3DFACE
  8
0
 10
-0.5425289273262024
 20
0.5418368577957153
 30
0.510855495929718
 11
-0.665322482585907
 21
0.38316962122917175
 31
0.5108527541160583
 12
-0.6321454048156738
 22
0.3639320135116577
 32
0.4721316397190094
 13
-0.5154757499694824
 23
0.5146862268447876
 33
0.47213423252105713
  0
3DFACE
  8
0
 10
0.4074851870536804
 20
-0.11059678345918655
 30
0.43760359287261963
 11
0.4218333065509796
 21
-0.0013872184790670872
 31
0.4375877380371094
 12
0.3880806863307953
 22
-0.0014803421217948198
 32
0.39884623885154724
 13
0.37488049268722534
 23
-0.10195384174585342
 33
0.3988608121871948
  0
3DFACE
  8
0
 10
0.406928688287735
 20
0.10774802416563034
 30
0.43756455183029175
 11
0.3743680715560913
 21
0.09892462193965912
 31
0.39882490038871765
 12
0.3880806863307953
 22
-0.0014803421217948198
 32
0.39884623885154724
 13
0.4218333065509796
 23
-0.0013872184790670872
 33
0.4375877380371094
  0
3DFACE
  8
0
 10
0.29727423191070557
 20
0.2965618371963501
 30
0.4375031590461731
 11
0.209869846701622
 21
0.36359232664108276
 31
0.4374691843986511
 12
0.19307318329811096
 22
0.3343033790588379
 32
0.39873719215393066
 13
0.2734854817390442
 23
0.27263468503952026
 33
0.39876845479011536
  0
3DFACE
  8
0
 10
0.29727423191070557
 20
0.2965618371963501
 30
0.4375031590461731
 11
0.2734854817390442
 21
0.27263468503952026
 31
0.39876845479011536
 12
0.33556291460990906
 22
0.19253748655319214
 32
0.398798406124115
 13
0.364749550819397
 23
0.2095005214214325
 33
0.43753576278686523
  0
3DFACE
  8
0
 10
0.10790354758501053
 20
0.4052521586418152
 30
0.43743598461151123
 11
-0.0013062907382845879
 21
0.41960030794143677
 31
0.43740588426589966
 12
-0.001210294314660132
 22
0.38583099842071533
 32
0.3986789584159851
 13
0.09926352649927139
 23
0.37263065576553345
 33
0.39870667457580566
  0
3DFACE
  8
0
 10
0.10790354758501053
 20
0.4052521586418152
 30
0.43743598461151123
 11
0.09926352649927139
 21
0.37263065576553345
 31
0.39870667457580566
 12
0.19307318329811096
 22
0.3343033790588379
 32
0.39873719215393066
 13
0.209869846701622
 23
0.36359232664108276
 33
0.4374691843986511
  0
3DFACE
  8
0
 10
-0.11044126749038696
 20
0.40469565987586975
 30
0.43738099932670593
 11
-0.21219344437122345
 21
0.36251652240753174
 31
0.43736281991004944
 12
-0.1952275037765503
 22
0.33331385254859924
 32
0.3986393213272095
 13
-0.10161502659320831
 23
0.3721187710762024
 33
0.39865607023239136
  0
3DFACE
  8
0
 10
-0.11044126749038696
 20
0.40469565987586975
 30
0.43738099932670593
 11
-0.10161502659320831
 21
0.3721187710762024
 31
0.39865607023239136
 12
-0.001210294314660132
 22
0.38583099842071533
 32
0.3986789584159851
 13
-0.0013062907382845879
 23
0.41960030794143677
 33
0.43740588426589966
  0
3DFACE
  8
0
 10
0.2987949848175049
 20
-0.2999669909477234
 30
0.4376099109649658
 11
0.3658253848552704
 21
-0.2125627100467682
 31
0.43761125206947327
 12
0.3365531861782074
 22
-0.19576305150985718
 32
0.39886781573295593
 13
0.27488452196121216
 23
-0.27617520093917847
 33
0.39886656403541565
  0
3DFACE
  8
0
 10
0.2987949848175049
 20
-0.2999669909477234
 30
0.4376099109649658
 11
0.27488452196121216
 21
-0.27617520093917847
 31
0.39886656403541565
 12
0.19478736817836761
 22
-0.3382526636123657
 32
0.3988574147224426
 13
0.21173366904258728
 23
-0.3674423098564148
 33
0.43759995698928833
  0
3DFACE
  8
0
 10
-0.2992549240589142
 20
0.29504111409187317
 30
0.43735289573669434
 11
-0.2753245234489441
 21
0.2712360620498657
 31
0.39863020181655884
 12
-0.1952275037765503
 22
0.33331385254859924
 32
0.3986393213272095
 13
-0.21219344437122345
 23
0.36251652240753174
 33
0.43736281991004944
  0
3DFACE
  8
0
 10
-0.7790036201477051
 20
0.2077542245388031
 30
0.4721223711967468
 11
-0.8073592185974121
 21
-0.0009668568382039666
 31
0.47215235233306885
 12
-0.7690296173095703
 22
-0.0010304211173206568
 32
0.5108950734138489
 13
-0.7420207262039185
 23
0.19777587056159973
 33
0.5108664631843567
  0
3DFACE
  8
0
 10
-0.7790036201477051
 20
0.2077542245388031
 30
0.4721223711967468
 11
-0.7420207262039185
 21
0.19777587056159973
 31
0.5108664631843567
 12
-0.665322482585907
 22
0.38316962122917175
 32
0.5108527541160583
 13
-0.6984807252883911
 23
0.4023938477039337
 33
0.47210800647735596
  0
3DFACE
  8
0
 10
0.7792962789535522
 20
0.20487727224826813
 30
0.4725162088871002
 11
0.6994926333427429
 21
0.3998125195503235
 31
0.4724613428115845
 12
0.6662450432777405
 22
0.3807113468647003
 32
0.5111892819404602
 13
0.742257833480835
 23
0.19503551721572876
 33
0.5112415552139282
  0
3DFACE
  8
0
 10
0.7792962789535522
 20
0.20487727224826813
 30
0.4725162088871002
 11
0.742257833480835
 21
0.19503551721572876
 31
0.5112415552139282
 12
0.7685321569442749
 22
-0.0038692390080541372
 32
0.5112836360931396
 13
0.7985405921936035
 23
0.000849640928208828
 33
0.46600815653800964
  0
3DFACE
  8
0
 10
-0.7797744274139404
 20
-0.20979127287864685
 30
0.4721965789794922
 11
-0.6999706625938416
 21
-0.4047268033027649
 31
0.4722514748573303
 12
-0.6667419075965881
 22
-0.38561105728149414
 32
0.5109894275665283
 13
-0.7427550554275513
 23
-0.19993525743484497
 33
0.5109371542930603
  0
3DFACE
  8
0
 10
-0.7797744274139404
 20
-0.20979127287864685
 30
0.4721965789794922
 11
-0.7427550554275513
 21
-0.19993525743484497
 31
0.5109371542930603
 12
-0.7690296173095703
 22
-0.0010304211173206568
 32
0.5108950734138489
 13
-0.8073592185974121
 23
-0.0009668568382039666
 33
0.47215235233306885
  0
3DFACE
  8
0
 10
0.5711915493011475
 20
0.5668671727180481
 30
0.47239917516708374
 11
0.3985474407672882
 21
0.6921247243881226
 31
0.46578389406204224
 12
0.38537099957466125
 22
0.6626242399215698
 32
0.5110682249069214
 13
0.5440381765365601
 23
0.5398306846618652
 33
0.511130154132843
  0
3DFACE
  8
0
 10
0.5711915493011475
 20
0.5668671727180481
 30
0.47239917516708374
 11
0.5440381765365601
 21
0.5398306846618652
 31
0.511130154132843
 12
0.6662450432777405
 22
0.3807113468647003
 32
0.5111892819404602
 13
0.6994926333427429
 23
0.3998125195503235
 33
0.4724613428115845
  0
3DFACE
  8
0
 10
-0.5716692209243774
 20
-0.5717812180519104
 30
0.4723135828971863
 11
-0.40508919954299927
 21
-0.7006980776786804
 31
0.47237855195999146
 12
-0.38586780428886414
 22
-0.6675236821174622
 32
0.5111104846000671
 13
-0.5445349216461182
 23
-0.5447303652763367
 33
0.5110485553741455
  0
3DFACE
  8
0
 10
-0.5716692209243774
 20
-0.5717812180519104
 30
0.4723135828971863
 11
-0.5445349216461182
 21
-0.5447303652763367
 31
0.5110485553741455
 12
-0.6667419075965881
 22
-0.38561105728149414
 32
0.5109894275665283
 13
-0.6999706625938416
 23
-0.4047268033027649
 33
0.4722514748573303
  0
3DFACE
  8
0
 10
0.20997244119644165
 20
0.7763079404830933
 30
0.472270667552948
 11
0.0012513860128819942
 21
0.804663896560669
 31
0.47221291065216064
 12
0.00117053824942559
 22
0.7663314342498779
 32
0.5109527707099915
 13
0.19997699558734894
 23
0.7393224835395813
 33
0.5110077857971191
  0
3DFACE
  8
0
 10
-0.21044960618019104
 20
-0.7812209129333496
 30
0.47244203090667725
 11
-0.0017286785878241062
 21
-0.8095765113830566
 31
0.4724997878074646
 12
-0.0016678525134921074
 22
-0.7712303400039673
 32
0.5112259387969971
 13
-0.2004741132259369
 23
-0.7442216277122498
 33
0.5111709237098694
  0
3DFACE
  8
0
 10
-0.21044960618019104
 20
-0.7812209129333496
 30
0.47244203090667725
 11
-0.2004741132259369
 21
-0.7442216277122498
 31
0.5111709237098694
 12
-0.38586780428886414
 22
-0.6675236821174622
 32
0.5111104846000671
 13
-0.40508919954299927
 23
-0.7006980776786804
 33
0.47237855195999146
  0
3DFACE
  8
0
 10
-0.5695634484291077
 20
0.5689738988876343
 30
0.4721108675003052
 11
-0.6984807252883911
 21
0.4023938477039337
 31
0.47210800647735596
 12
-0.665322482585907
 22
0.38316962122917175
 32
0.5108527541160583
 13
-0.5425289273262024
 23
0.5418368577957153
 33
0.510855495929718
  0
3DFACE
  8
0
 10
-0.5695634484291077
 20
0.5689738988876343
 30
0.4721108675003052
 11
-0.5425289273262024
 21
0.5418368577957153
 31
0.510855495929718
 12
-0.38340967893600464
 22
0.6640437841415405
 32
0.5108739137649536
 13
-0.4001108705997467
 23
0.6913577318191528
 33
0.4655824601650238
  0
3DFACE
  8
0
 10
-0.44460195302963257
 20
0.11538887023925781
 30
0.3986152410507202
 11
-0.4602404832839966
 21
-0.0036422796547412872
 31
0.3986325263977051
 12
-0.4222930073738098
 22
-0.003538669552654028
 32
0.4373750686645508
 13
-0.4079451858997345
 23
0.10567089915275574
 33
0.4373592138290405
  0
3DFACE
  8
0
 10
-0.44460195302963257
 20
0.11538887023925781
 30
0.3986152410507202
 11
-0.4079451858997345
 21
0.10567089915275574
 31
0.4373592138290405
 12
-0.3662855625152588
 22
0.20763681828975677
 32
0.4373515546321869
 13
-0.39919549226760864
 23
0.22652491927146912
 33
0.39860689640045166
  0
3DFACE
  8
0
 10
0.44355493783950806
 20
0.11765257269144058
 30
0.3988390266895294
 11
0.39758288860321045
 21
0.2285558581352234
 31
0.3988076448440552
 12
0.364749550819397
 22
0.2095005214214325
 32
0.43753576278686523
 13
0.406928688287735
 23
0.10774802416563034
 33
0.43756455183029175
  0
3DFACE
  8
0
 10
0.44355493783950806
 20
0.11765257269144058
 30
0.3988390266895294
 11
0.406928688287735
 21
0.10774802416563034
 31
0.43756455183029175
 12
0.4218333065509796
 22
-0.0013872184790670872
 32
0.4375877380371094
 13
0.45979976654052734
 23
-0.001297422801144421
 33
0.3988643288612366
  0
3DFACE
  8
0
 10
-0.4439954459667206
 20
-0.12259227782487869
 30
0.39865776896476746
 11
-0.3980230689048767
 21
-0.2334955930709839
 31
0.3986890912055969
 12
-0.3652092218399048
 22
-0.21442639827728271
 32
0.4374270439147949
 13
-0.4073883295059204
 23
-0.11267391592264175
 33
0.4373982548713684
  0
3DFACE
  8
0
 10
-0.4439954459667206
 20
-0.12259227782487869
 30
0.39865776896476746
 11
-0.4073883295059204
 21
-0.11267391592264175
 31
0.4373982548713684
 12
-0.4222930073738098
 22
-0.003538669552654028
 32
0.4373750686645508
 13
-0.4602404832839966
 23
-0.0036422796547412872
 33
0.3986325263977051
  0
3DFACE
  8
0
 10
0.3240395486354828
 20
0.3234468996524811
 30
0.3987721800804138
 11
0.29727423191070557
 21
0.2965618371963501
 31
0.4375031590461731
 12
0.364749550819397
 22
0.2095005214214325
 32
0.43753576278686523
 13
0.39758288860321045
 23
0.2285558581352234
 33
0.3988076448440552
  0
3DFACE
  8
0
 10
-0.3244795799255371
 20
-0.32838666439056396
 30
0.3987245559692383
 11
-0.22921481728553772
 21
-0.40144532918930054
 31
0.3987616300582886
 12
-0.21032950282096863
 22
-0.368518203496933
 32
0.43749362230300903
 13
-0.2977338433265686
 23
-0.3014877438545227
 33
0.4374595880508423
  0
3DFACE
  8
0
 10
-0.3244795799255371
 20
-0.32838666439056396
 30
0.3987245559692383
 11
-0.2977338433265686
 21
-0.3014877438545227
 31
0.4374595880508423
 12
-0.3652092218399048
 22
-0.21442639827728271
 32
0.4374270439147949
 13
-0.3980230689048767
 23
-0.2334955930709839
 33
0.3986890912055969
  0
3DFACE
  8
0
 10
-0.11807870864868164
 20
-0.4468514323234558
 30
0.39879781007766724
 11
0.0009524857741780579
 21
-0.46248963475227356
 31
0.3988306224346161
 12
0.0008460140088573098
 22
-0.4245261251926422
 32
0.4375568926334381
 13
-0.1083635613322258
 23
-0.410178005695343
 33
0.43752676248550415
  0
3DFACE
  8
0
 10
-0.11807870864868164
 20
-0.4468514323234558
 30
0.39879781007766724
 11
-0.1083635613322258
 21
-0.410178005695343
 31
0.43752676248550415
 12
-0.21032950282096863
 22
-0.368518203496933
 32
0.43749362230300903
 13
-0.22921481728553772
 23
-0.40144532918930054
 33
0.3987616300582886
  0
3DFACE
  8
0
 10
0.11990245431661606
 20
-0.4462447762489319
 30
0.3988577723503113
 11
0.23080569505691528
 21
-0.4002727270126343
 31
0.3988775610923767
 12
0.21173366904258728
 22
-0.3674423098564148
 32
0.43759995698928833
 13
0.1099812239408493
 23
-0.4096214771270752
 33
0.4375818073749542
  0
3DFACE
  8
0
 10
0.11990245431661606
 20
-0.4462447762489319
 30
0.3988577723503113
 11
0.1099812239408493
 21
-0.4096214771270752
 31
0.4375818073749542
 12
0.0008460140088573098
 22
-0.4245261251926422
 32
0.4375568926334381
 13
0.0009524857741780579
 23
-0.46248963475227356
 33
0.3988306224346161
  0
3DFACE
  8
0
 10
0.325696736574173
 20
-0.32672935724258423
 30
0.39888840913772583
 11
0.39875537157058716
 21
-0.23146463930606842
 31
0.39888983964920044
 12
0.3658253848552704
 22
-0.2125627100467682
 32
0.43761125206947327
 13
0.2987949848175049
 23
-0.2999669909477234
 33
0.4376099109649658
  0
3DFACE
  8
0
 10
0.325696736574173
 20
-0.32672935724258423
 30
0.39888840913772583
 11
0.2987949848175049
 21
-0.2999669909477234
 31
0.4376099109649658
 12
0.21173366904258728
 22
-0.3674423098564148
 32
0.43759995698928833
 13
0.23080569505691528
 23
-0.4002727270126343
 33
0.3988775610923767
  0
3DFACE
  8
0
 10
0.34240174293518066
 20
-0.5174236297607422
 30
0.38856762647628784
 11
0.31021884083747864
 21
-0.5355573296546936
 31
0.4223628044128418
 12
0.4020305871963501
 22
-0.7021878957748413
 32
0.47258254885673523
 13
0.4309491217136383
 23
-0.6711326241493225
 33
0.431851327419281
  0
3DFACE
  8
0
 10
0.4600842595100403
 20
-0.7217040061950684
 30
0.4286832809448242
 11
0.4309491217136383
 21
-0.6711326241493225
 31
0.431851327419281
 12
0.4020305871963501
 22
-0.7021878957748413
 32
0.47258254885673523
 13
0.4321763515472412
 23
-0.7472583651542664
 33
0.4621596932411194
  0
3DFACE
  8
0
 10
-0.6195098757743835
 20
-0.037798333913087845
 30
0.388239324092865
 11
-0.6191407442092896
 21
-0.0008586384356021881
 31
0.42203289270401
 12
-0.8073592185974121
 22
-0.0009668568382039666
 32
0.47215235233306885
 13
-0.7969225645065308
 23
-0.03762613236904144
 33
0.4314284324645996
  0
3DFACE
  8
0
 10
-0.8552845120429993
 20
-0.03757241368293762
 30
0.42822927236557007
 11
-0.7969225645065308
 21
-0.03762613236904144
 31
0.4314284324645996
 12
-0.8073592185974121
 22
-0.0009668568382039666
 32
0.47215235233306885
 13
-0.8634791970252991
 23
-0.0006246361881494522
 33
0.4616994857788086
  0
3DFACE
  8
0
 10
-0.27700966596603394
 20
-0.5552909970283508
 30
0.3884180188179016
 11
-0.3088148534297943
 21
-0.5364910364151001
 31
0.42220672965049744
 12
-0.40508919954299927
 22
-0.7006980776786804
 32
0.47237855195999146
 13
-0.3658638894557953
 23
-0.7088354825973511
 33
0.43165692687034607
  0
3DFACE
  8
0
 10
-0.3950914740562439
 20
-0.7593525648117065
 30
0.4284741282463074
 11
-0.3658638894557953
 21
-0.7088354825973511
 31
0.43165692687034607
 12
-0.40508919954299927
 22
-0.7006980776786804
 32
0.47237855195999146
 13
-0.4311855733394623
 23
-0.7479650974273682
 33
0.4619418978691101
  0
3DFACE
  8
0
 10
-0.15713629126548767
 20
-0.09011047333478928
 30
0.4431785047054291
 11
-0.09342912584543228
 21
-0.053392864763736725
 31
0.5023130178451538
 12
-0.1095031201839447
 22
0.0024364786222577095
 32
0.5023130178451538
 13
-0.1812298595905304
 23
-0.0013372583780437708
 33
0.4431785047054291
  0
3DFACE
  8
0
 10
-0.1565842628479004
 20
0.0947985053062439
 30
0.4431785047054291
 11
-0.1812298595905304
 21
-0.0013372583780437708
 31
0.4431785047054291
 12
-0.1095031201839447
 22
0.0024364786222577095
 32
0.5023130178451538
 13
-0.09335076808929443
 23
0.05824321135878563
 33
0.5023130178451538
  0
3DFACE
  8
0
 10
-0.15713629126548767
 20
-0.09011047333478928
 30
0.4431785047054291
 11
-0.08938144892454147
 21
-0.15723775327205658
 31
0.4431785047054291
 12
-0.0531754307448864
 22
-0.09528471529483795
 32
0.5023130178451538
 13
-0.09342912584543228
 23
-0.053392864763736725
 33
0.5023130178451538
  0
3DFACE
  8
0
 10
0.0031461953185498714
 20
-0.1822928786277771
 30
0.4431785047054291
 11
0.0032113026827573776
 21
-0.10927896201610565
 31
0.5023130178451538
 12
-0.0531754307448864
 22
-0.09528471529483795
 32
0.5023130178451538
 13
-0.08938144892454147
 23
-0.15723775327205658
 33
0.4431785047054291
  0
3DFACE
  8
0
 10
0.13548383116722107
 20
-0.08202289044857025
 30
0.4320802092552185
 11
0.13558554649353027
 21
-0.08209474384784698
 31
0.0290675051510334
 12
0.15827402472496033
 22
-0.004139598924666643
 32
0.029059330001473427
 13
0.15817232429981232
 23
-0.004067736677825451
 33
0.4320720434188843
  0
3DFACE
  8
0
 10
0.13548383116722107
 20
-0.08202289044857025
 30
0.4320802092552185
 11
0.07906091213226318
 21
-0.14040285348892212
 31
0.4320763945579529
 12
0.07916263490915298
 22
-0.14047470688819885
 32
0.029063671827316284
 13
0.13558554649353027
 23
-0.08209474384784698
 33
0.0290675051510334
  0
3DFACE
  8
0
 10
-0.1343907117843628
 20
0.07457762211561203
 30
0.43198418617248535
 11
-0.1342889815568924
 21
0.07450587302446365
 31
0.028971459716558456
 12
-0.1569776087999344
 22
-0.0034492395352572203
 32
0.028979633003473282
 13
-0.15707933902740479
 23
-0.0033774073235690594
 33
0.4319923520088196
  0
3DFACE
  8
0
 10
0.7162200808525085
 20
-0.47957319021224976
 30
0.29987192153930664
 11
0.7165921330451965
 21
-0.4800072908401489
 31
0.33917689323425293
 12
0.004467581864446402
 22
0.003253933973610401
 32
0.26206493377685547
 13
0.00436656316742301
 23
0.0020847455598413944
 33
0.2066800594329834
  0
3DFACE
  8
0
 10
-0.00037784327287226915
 20
-0.004823936615139246
 30
0.2066800594329834
 11
-0.7734326720237732
 21
-0.3804781138896942
 31
0.29987192153930664
 12
-0.7739946246147156
 22
-0.3805832862854004
 32
0.33917689323425293
 13
0.0005841992679052055
 23
-0.005496004596352577
 33
0.26206493377685547
  0
3DFACE
  8
0
 10
-0.00037784327287226915
 20
-0.004823936615139246
 30
0.2066800594329834
 11
0.0005841992679052055
 21
-0.005496004596352577
 31
0.26206493377685547
 12
0.001720170141197741
 22
-0.8312589526176453
 32
0.16413044929504395
 13
0.0006789694889448583
 23
-0.8254039287567139
 33
0.10219848155975342
  0
3DFACE
  8
0
 10
0.7704124450683594
 20
-0.3669600486755371
 30
0.314725399017334
 11
0.8128155469894409
 21
-0.2538485527038574
 31
0.2905930280685425
 12
0.004467581864446402
 22
0.003253933973610401
 32
0.26206493377685547
 13
0.7165921330451965
 23
-0.4800072908401489
 33
0.33917689323425293
  0
3DFACE
  8
0
 10
0.8326168656349182
 20
0.0843263640999794
 30
0.22155535221099854
 11
0.8134697079658508
 21
0.1956947147846222
 31
0.20039689540863037
 12
0.004467581864446402
 22
0.003253933973610401
 32
0.26206493377685547
 13
0.8365178108215332
 23
-0.027722777798771858
 33
0.24412551522254944
  0
3DFACE
  8
0
 10
0.8323840498924255
 20
-0.14060860872268677
 30
0.26709890365600586
 11
0.8365178108215332
 21
-0.027722777798771858
 31
0.24412551522254944
 12
0.004467581864446402
 22
0.003253933973610401
 32
0.26206493377685547
 13
0.8128155469894409
 23
-0.2538485527038574
 33
0.2905930280685425
  0
3DFACE
  8
0
 10
0.0005841992679052055
 20
-0.005496004596352577
 30
0.26206493377685547
 11
-0.7030029892921448
 21
-0.4837167263031006
 31
0.314725399017334
 12
-0.6262471079826355
 22
-0.5769945979118347
 32
0.2905930280685425
 13
-0.6262471079826355
 23
-0.5769945979118347
 33
0.2905930280685425
  0
3DFACE
  8
0
 10
0.0005841992679052055
 20
-0.005496004596352577
 30
0.26206493377685547
 11
-0.7739946246147156
 21
-0.3805832862854004
 31
0.33917689323425293
 12
-0.7030029892921448
 22
-0.4837167263031006
 32
0.314725399017334
 13
-0.7030029892921448
 23
-0.4837167263031006
 33
0.314725399017334
  0
3DFACE
  8
0
 10
0.0005841992679052055
 20
-0.005496004596352577
 30
0.26206493377685547
 11
-0.34327971935272217
 21
-0.763230562210083
 31
0.22155535221099854
 12
-0.23725834488868713
 22
-0.802332878112793
 32
0.20039689540863037
 13
-0.23725834488868713
 23
-0.802332878112793
 33
0.20039689540863037
  0
3DFACE
  8
0
 10
0.0005841992679052055
 20
-0.005496004596352577
 30
0.26206493377685547
 11
-0.44226759672164917
 21
-0.7105843424797058
 31
0.24412551522254944
 12
-0.34327971935272217
 22
-0.763230562210083
 32
0.22155535221099854
 13
-0.34327971935272217
 23
-0.763230562210083
 33
0.22155535221099854
  0
3DFACE
  8
0
 10
0.0005841992679052055
 20
-0.005496004596352577
 30
0.26206493377685547
 11
-0.6262471079826355
 21
-0.5769945979118347
 31
0.2905930280685425
 12
-0.5379626750946045
 22
-0.6505613923072815
 32
0.26709890365600586
 13
-0.5379626750946045
 23
-0.6505613923072815
 33
0.26709890365600586
  0
3DFACE
  8
0
 10
0.0005841992679052055
 20
-0.005496004596352577
 30
0.26206493377685547
 11
-0.5379626750946045
 21
-0.6505613923072815
 31
0.26709890365600586
 12
-0.44226759672164917
 22
-0.7105843424797058
 32
0.24412551522254944
 13
-0.44226759672164917
 23
-0.7105843424797058
 33
0.24412551522254944
  0
3DFACE
  8
0
 10
0.7718649506568909
 20
0.3065381646156311
 30
0.18165862560272217
 11
0.7190312743186951
 21
0.41711920499801636
 31
0.16413044929504395
 12
0.004467581864446402
 22
0.003253933973610401
 32
0.26206493377685547
 13
0.8134697079658508
 23
0.1956947147846222
 33
0.20039689540863037
  0
3DFACE
  8
0
 10
0.0005841992679052055
 20
-0.005496004596352577
 30
0.26206493377685547
 11
-0.23725834488868713
 21
-0.802332878112793
 31
0.20039689540863037
 12
-0.12046265602111816
 22
-0.8217237591743469
 32
0.18165862560272217
 13
-0.12046265602111816
 23
-0.8217237591743469
 33
0.18165862560272217
  0
3DFACE
  8
0
 10
0.0005841992679052055
 20
-0.005496004596352577
 30
0.26206493377685547
 11
-0.12046265602111816
 21
-0.8217237591743469
 31
0.18165862560272217
 12
0.001720170141197741
 22
-0.8312589526176453
 32
0.16413044929504395
 13
0.001720170141197741
 23
-0.8312589526176453
 33
0.16413044929504395
  0
3DFACE
  8
0
 10
-0.06740947812795639
 20
0.8506767749786377
 30
0.314725399017334
 11
-0.1865684539079666
 21
0.8308432102203369
 31
0.2905930280685425
 12
-0.005051780957728624
 22
0.002242074813693762
 32
0.26206493377685547
 13
0.057402532547712326
 23
0.8605905771255493
 33
0.33917689323425293
  0
3DFACE
  8
0
 10
-0.4893372058868408
 20
0.6789042949676514
 30
0.22155535221099854
 11
-0.5762113928794861
 21
0.6066381931304932
 31
0.20039689540863037
 12
-0.005051780957728624
 22
0.002242074813693762
 32
0.26206493377685547
 13
-0.39425021409988403
 23
0.7383071184158325
 33
0.24412551522254944
  0
3DFACE
  8
0
 10
-0.29442134499549866
 20
0.791170060634613
 30
0.26709890365600586
 11
-0.39425021409988403
 21
0.7383071184158325
 31
0.24412551522254944
 12
-0.005051780957728624
 22
0.002242074813693762
 32
0.26206493377685547
 13
-0.1865684539079666
 23
0.8308432102203369
 33
0.2905930280685425
  0
3DFACE
  8
0
 10
-0.6514022946357727
 20
0.5151856541633606
 30
0.18165862560272217
 11
-0.7207514643669128
 21
0.41413989663124084
 31
0.16413044929504395
 12
-0.005051780957728624
 22
0.002242074813693762
 32
0.26206493377685547
 13
-0.5762113928794861
 23
0.6066381931304932
 33
0.20039689540863037
  0
3DFACE
  8
0
 10
-0.7151601910591125
 20
0.4121140241622925
 30
0.10219848155975342
 11
-0.003988734912127256
 21
0.002739200135692954
 31
0.2066800594329834
 12
-0.005051780957728624
 22
0.002242074813693762
 32
0.26206493377685547
 13
-0.7207514643669128
 23
0.41413989663124084
 33
0.16413044929504395
  0
3DFACE
  8
0
 10
0.05721261724829674
 20
0.8600513935089111
 30
0.29987192153930664
 11
0.057402532547712326
 21
0.8605905771255493
 31
0.33917689323425293
 12
-0.005051780957728624
 22
0.002242074813693762
 32
0.26206493377685547
 13
-0.003988734912127256
 23
0.002739200135692954
 33
0.2066800594329834
  0
3DFACE
  8
0
 10
0.7144811749458313
 20
0.41328996419906616
 30
0.10219848155975342
 11
0.00436656316742301
 21
0.0020847455598413944
 31
0.2066800594329834
 12
0.004467581864446402
 22
0.003253933973610401
 32
0.26206493377685547
 13
0.7190312743186951
 23
0.41711920499801636
 33
0.16413044929504395
  0
3DFACE
  8
0
 10
0.13582488894462585
 20
0.07398631423711777
 30
0.43205249309539795
 11
0.13592660427093506
 21
0.07391446083784103
 31
0.029039772227406502
 12
0.07975959777832031
 22
0.13254129886627197
 32
0.02901514060795307
 13
0.07965787500143051
 23
0.1326131373643875
 33
0.4320278763771057
  0
3DFACE
  8
0
 10
0.13582488894462585
 20
0.07398631423711777
 30
0.43205249309539795
 11
0.15817232429981232
 21
-0.004067736677825451
 31
0.4320720434188843
 12
0.15827402472496033
 22
-0.004139598924666643
 32
0.029059330001473427
 13
0.13592660427093506
 23
0.07391446083784103
 33
0.029039772227406502
  0
3DFACE
  8
0
 10
0.00020502685219980776
 20
-0.15973135828971863
 30
0.4320599436759949
 11
0.0003067521611228585
 21
-0.15980322659015656
 31
0.02904721349477768
 12
0.07916263490915298
 22
-0.14047470688819885
 32
0.029063671827316284
 13
0.07906091213226318
 23
-0.14040285348892212
 33
0.4320763945579529
  0
3DFACE
  8
0
 10
0.00020502685219980776
 20
-0.15973135828971863
 30
0.4320599436759949
 11
-0.07856547087430954
 21
-0.14005768299102783
 31
0.4320365786552429
 12
-0.07846375554800034
 22
-0.14012955129146576
 32
0.029023822396993637
 13
0.0003067521611228585
 23
-0.15980322659015656
 33
0.02904721349477768
  0
3DFACE
  8
0
 10
-0.13473224639892578
 20
-0.08143110573291779
 30
0.4320119023323059
 11
-0.13463053107261658
 21
-0.08150296658277512
 31
0.028999190777540207
 12
-0.07846375554800034
 22
-0.14012955129146576
 32
0.029023822396993637
 13
-0.07856547087430954
 23
-0.14005768299102783
 33
0.4320365786552429
  0
3DFACE
  8
0
 10
-0.13473224639892578
 20
-0.08143110573291779
 30
0.4320119023323059
 11
-0.15707933902740479
 21
-0.0033774073235690594
 31
0.4319923520088196
 12
-0.1569776087999344
 22
-0.0034492395352572203
 32
0.028979633003473282
 13
-0.13463053107261658
 23
-0.08150296658277512
 33
0.028999190777540207
  0
3DFACE
  8
0
 10
0.0008876312058418989
 20
0.152286559343338
 30
0.43200448155403137
 11
0.0009893565438687801
 21
0.15221482515335083
 31
0.02899174951016903
 12
-0.07786615937948227
 22
0.13288602232933044
 32
0.028975293040275574
 13
-0.07796788960695267
 23
0.13295769691467285
 33
0.43198803067207336
  0
3DFACE
  8
0
 10
0.0008876312058418989
 20
0.152286559343338
 30
0.43200448155403137
 11
0.07965787500143051
 21
0.1326131373643875
 31
0.4320278763771057
 12
0.07975959777832031
 22
0.13254129886627197
 32
0.02901514060795307
 13
0.0009893565438687801
 23
0.15221482515335083
 33
0.02899174951016903
  0
3DFACE
  8
0
 10
-0.1343907117843628
 20
0.07457762211561203
 30
0.43198418617248535
 11
-0.07796788960695267
 21
0.13295769691467285
 31
0.43198803067207336
 12
-0.07786615937948227
 22
0.13288602232933044
 32
0.028975293040275574
 13
-0.1342889815568924
 23
0.07450587302446365
 33
0.028971459716558456
  0
ENDSEC
  0
EOF
